<svg width="18" height="20" viewBox="0 0 18 20" fill="none" xmlns="http://www.w3.org/2000/svg">
<path d="M0.749756 11.8335V15.8169C0.749756 16.1482 1.01838 16.4169 1.34976 16.4169H6.24976" stroke="#222B27" stroke-linecap="round" stroke-linejoin="round"/>
<path d="M14.4991 11.8335V15.8169C14.4991 16.1482 14.2305 16.4169 13.8991 16.4169H9.91577" stroke="#222B27" stroke-linecap="round" stroke-linejoin="round"/>
<path d="M9.91577 3.58378H13.8991C14.2305 3.58378 14.4991 3.85241 14.4991 4.18378V8.16711" stroke="#222B27" stroke-linecap="round" stroke-linejoin="round"/>
<path d="M0.749756 8.16711V4.18378C0.749756 3.85241 1.01839 3.58378 1.34976 3.58378H6.24976" stroke="#222B27" stroke-linecap="round" stroke-linejoin="round"/>
<path d="M9.91496 16.4169V17.3335C9.91496 18.3461 9.09415 19.1669 8.08162 19.1669C7.0691 19.1669 6.24829 18.3461 6.24829 17.3335V16.4169" stroke="#222B27" stroke-linecap="round" stroke-linejoin="round"/>
<path d="M0.749756 8.16711H1.66642C2.67894 8.16711 3.49976 8.98793 3.49976 10.0004C3.49976 11.013 2.67894 11.8338 1.66642 11.8338H0.749756" stroke="#222B27" stroke-linecap="round" stroke-linejoin="round"/>
<path d="M14.501 8.16711H15.4176C16.4302 8.16711 17.251 8.98793 17.251 10.0004C17.251 11.013 16.4302 11.8338 15.4176 11.8338H14.501" stroke="#222B27" stroke-linecap="round" stroke-linejoin="round"/>
<path d="M9.91496 3.58374V2.66707C9.91496 1.65455 9.09415 0.83374 8.08162 0.83374C7.0691 0.83374 6.24829 1.65455 6.24829 2.66707V3.58374" stroke="#222B27" stroke-linecap="round" stroke-linejoin="round"/>
</svg>
