<svg width="21" height="19" viewBox="0 0 21 19" fill="none" xmlns="http://www.w3.org/2000/svg">
<path d="M0.833252 15.4166V14.4999C0.833252 10.9561 3.70609 8.08325 7.24992 8.08325V8.08325" stroke="#222B27" stroke-linecap="round" stroke-linejoin="round"/>
<path d="M13.4867 8.37081C14.075 7.72481 15.0915 7.72481 15.6798 8.37081V8.37081C15.9771 8.69729 16.4045 8.8743 16.8456 8.85369V8.85369C17.7184 8.8129 18.4371 9.53164 18.3963 10.4044V10.4044C18.3757 10.8455 18.5527 11.2729 18.8792 11.5702V11.5702C19.5252 12.1585 19.5252 13.175 18.8792 13.7633V13.7633C18.5527 14.0606 18.3757 14.488 18.3963 14.9291V14.9291C18.4371 15.8019 17.7184 16.5206 16.8456 16.4798V16.4798C16.4045 16.4592 15.9771 16.6362 15.6798 16.9627V16.9627C15.0915 17.6087 14.075 17.6087 13.4867 16.9627V16.9627C13.1894 16.6362 12.762 16.4592 12.3209 16.4798V16.4798C11.4481 16.5206 10.7294 15.8019 10.7702 14.9291V14.9291C10.7908 14.488 10.6138 14.0606 10.2873 13.7633V13.7633C9.64131 13.175 9.64131 12.1585 10.2873 11.5702V11.5702C10.6138 11.2729 10.7908 10.8455 10.7702 10.4044V10.4044C10.7294 9.53164 11.4481 8.8129 12.3209 8.85369V8.85369C12.762 8.8743 13.1894 8.69729 13.4867 8.37081V8.37081Z" stroke="#222B27"/>
<path d="M13.083 12.6667L14.083 13.6667L16.083 11.6667" stroke="#222B27" stroke-linecap="round" stroke-linejoin="round"/>
<path d="M7.24992 8.08333C9.27496 8.08333 10.9166 6.44171 10.9166 4.41667C10.9166 2.39162 9.27496 0.75 7.24992 0.75C5.22487 0.75 3.58325 2.39162 3.58325 4.41667C3.58325 6.44171 5.22487 8.08333 7.24992 8.08333Z" stroke="#222B27" stroke-linecap="round" stroke-linejoin="round"/>
</svg>
