<svg width="18" height="19" viewBox="0 0 18 19" fill="none" xmlns="http://www.w3.org/2000/svg">
<path d="M17.25 0.83374L16.3333 1.75041" stroke="#222B27" stroke-linecap="round" stroke-linejoin="round"/>
<path d="M0.75 0.83374L1.66667 1.75041" stroke="#222B27" stroke-linecap="round" stroke-linejoin="round"/>
<path d="M17.25 13.6663L16.3333 12.7496" stroke="#222B27" stroke-linecap="round" stroke-linejoin="round"/>
<path d="M0.75 13.6663L1.66667 12.7496" stroke="#222B27" stroke-linecap="round" stroke-linejoin="round"/>
<path d="M6.25 15.5H11.75" stroke="#222B27" stroke-linecap="round" stroke-linejoin="round"/>
<path d="M7.16943 18.25H10.8361" stroke="#222B27" stroke-linecap="round" stroke-linejoin="round"/>
<path d="M8.99978 1.75C5.33297 1.75 3.45579 3.53776 3.49978 6.33333C3.52122 7.69631 3.95797 8.625 4.87478 9.54167C5.79159 10.4583 6.24992 10.9167 6.24978 12.75H11.7498C11.7499 10.9167 12.2082 10.4584 13.1247 9.54177L13.1248 9.54167C14.0413 8.625 14.4783 7.69631 14.4998 6.33333C14.5438 3.53776 12.6666 1.75 8.99978 1.75Z" stroke="#222B27" stroke-linecap="round" stroke-linejoin="round"/>
</svg>
