<svg width="45" height="45" viewBox="0 0 45 45" fill="none" xmlns="http://www.w3.org/2000/svg">
<g style="mix-blend-mode:luminosity">
<path d="M9.16806 32.2242L9.16577 32.2225C8.63793 31.8327 8.12994 31.1774 7.75294 30.4212C7.37613 29.6653 7.15625 28.861 7.15625 28.1997V13.0122C7.15625 12.0742 7.51603 11.0608 8.12185 10.1869C8.72748 9.31334 9.55143 8.61903 10.4321 8.2865C10.4323 8.28642 10.4326 8.28634 10.4328 8.28626L20.7416 4.42513C20.742 4.42498 20.7424 4.42483 20.7428 4.42468C21.205 4.25465 21.8449 4.16064 22.5094 4.16064C23.1739 4.16064 23.8138 4.25465 24.276 4.4247C24.2764 4.42484 24.2768 4.42499 24.2771 4.42513L34.5845 8.2857C34.5849 8.28587 34.5854 8.28603 34.5858 8.28619C35.4569 8.61843 36.2762 9.31229 36.8772 10.1855C37.4785 11.0592 37.8333 12.0715 37.825 13.0078L37.825 13.0078V13.0122V28.1997C37.825 28.8606 37.6053 29.66 37.2286 30.4136C36.8521 31.1665 36.3436 31.824 35.8125 32.2247C35.8122 32.2249 35.8119 32.2252 35.8115 32.2254L25.5007 39.9304L25.4993 39.9314C24.6916 40.5393 23.6026 40.8575 22.4906 40.8575C21.3787 40.8575 20.2896 40.5393 19.4819 39.9314L19.4805 39.9304L9.16806 32.2242ZM24.4062 29.0622V24.4833C26.3165 23.7261 27.6875 21.8853 27.6875 19.6872C27.6875 16.8236 25.3636 14.4997 22.5 14.4997C19.6364 14.4997 17.3125 16.8236 17.3125 19.6872C17.3125 21.8665 18.6825 23.7238 20.5937 24.4832V29.0622C20.5937 30.1071 21.4551 30.9685 22.5 30.9685C23.5449 30.9685 24.4062 30.1071 24.4062 29.0622Z" stroke="black"/>
</g>
</svg>
