<svg width="45" height="45" viewBox="0 0 45 45" fill="none" xmlns="http://www.w3.org/2000/svg">
<path d="M40.1412 13.1721L40.1415 13.173C41.0483 16.2264 40.8963 18.1529 39.9082 19.4164L39.9081 19.4163L39.9015 19.4251C39.3219 20.2007 38.4952 20.6497 37.5824 20.9045C36.6659 21.1605 35.693 21.2119 34.8646 21.2119H29.4833C27.5154 21.2119 26.1146 20.6556 25.1965 19.63C24.2692 18.5941 23.7583 16.9956 23.7583 14.7556V10.0869C23.7583 8.36917 23.9821 6.21818 25.545 5.05C26.8293 4.09084 28.7623 3.95925 31.8177 4.84797C35.7233 6.00018 38.9893 9.26642 40.1412 13.1721Z" stroke="black"/>
<path d="M35.0702 25.3767L35.0702 25.3767L35.0758 25.383C35.4649 25.817 35.6464 26.4027 35.5709 26.9919L35.5708 26.9921C35.0261 31.2594 32.682 35.1869 29.1541 37.751L29.1528 37.7519C26.4456 39.7323 23.268 40.7492 19.9793 40.7492C18.9786 40.7492 17.9803 40.6582 16.9836 40.4589L16.9836 40.4589L16.9781 40.4578C10.7115 39.2772 5.71362 34.2789 4.53312 28.0314L4.53311 28.0313C3.7145 23.7017 4.66002 19.3799 7.23975 15.8373L7.24002 15.8369C9.80414 12.309 13.7316 9.96491 17.9989 9.42016L18.0008 9.41991C18.5708 9.34491 19.1745 9.52656 19.608 9.91522L19.608 9.91527L19.6143 9.92078C20.066 10.3122 20.3231 10.8863 20.3231 11.4742V18.1867C20.3231 21.7628 23.2282 24.6679 26.8043 24.6679H33.5168C34.1047 24.6679 34.6788 24.925 35.0702 25.3767Z" stroke="black"/>
</svg>
