<svg xmlns="http://www.w3.org/2000/svg" width="352" height="332" fill="none"><path fill="#fff" d="M0 0h352v332H0z"/><rect width="41" height="12" x="296" y="283.821" fill="#727942" rx="6"/><path stroke="#fff" stroke-width=".5" d="m304.133 290.621 1.555-1.524.623.915 1.555-1.524m0 0h-1.089m1.089 0v.914"/><path fill="#fff" d="M314.296 292.885a2.28 2.28 0 0 1-.784-.136 1.736 1.736 0 0 1-.64-.408 1.494 1.494 0 0 1-.376-.688h.768a.94.94 0 0 0 .464.456c.219.096.435.144.648.144.288 0 .525-.058.712-.176.192-.122.341-.288.448-.496.112-.208.192-.44.24-.696.048-.261.072-.53.072-.808v-.176a1.357 1.357 0 0 1-.408.504c-.171.123-.36.214-.568.272-.208.054-.419.08-.632.08-.331 0-.635-.066-.912-.2a1.64 1.64 0 0 1-.656-.6c-.16-.266-.24-.589-.24-.968 0-.378.083-.709.248-.992.165-.282.395-.501.688-.656.299-.16.643-.24 1.032-.24.416 0 .76.088 1.032.264.277.176.493.411.648.704.16.294.272.616.336.968.064.347.096.694.096 1.04 0 .4-.04.771-.12 1.112-.08.336-.208.632-.384.888a1.824 1.824 0 0 1-.688.6c-.283.139-.624.208-1.024.208Zm.048-2.768c.229 0 .437-.048.624-.144.192-.096.344-.229.456-.4.117-.17.176-.37.176-.6 0-.245-.053-.458-.16-.64a1.17 1.17 0 0 0-.44-.44 1.212 1.212 0 0 0-.624-.16c-.24 0-.453.054-.64.16a1.208 1.208 0 0 0-.432.432c-.107.182-.16.382-.16.6 0 .374.107.667.32.88.219.208.512.312.88.312Zm3.477 2.768a.463.463 0 0 1-.48-.48.467.467 0 0 1 .48-.48.47.47 0 0 1 .344.136.47.47 0 0 1 .136.344.467.467 0 0 1-.48.48Zm3.639 0c-.384 0-.715-.072-.992-.216a1.958 1.958 0 0 1-.672-.6 2.735 2.735 0 0 1-.376-.864 4.268 4.268 0 0 1-.12-1.024c0-.421.04-.816.12-1.184.085-.373.216-.701.392-.984.181-.282.416-.504.704-.664.288-.165.635-.248 1.04-.248.272 0 .525.048.76.144a1.69 1.69 0 0 1 1.016 1.088h-.728a.974.974 0 0 0-.44-.448 1.336 1.336 0 0 0-.616-.152c-.245 0-.456.048-.632.144a1.376 1.376 0 0 0-.448.368 2.126 2.126 0 0 0-.288.528c-.069.198-.12.403-.152.616a4.218 4.218 0 0 0-.048.624c.123-.186.264-.338.424-.456a1.73 1.73 0 0 1 .536-.256c.197-.058.397-.088.6-.088.373 0 .696.078.968.232.277.15.493.36.648.632.155.267.232.576.232.928 0 .374-.083.702-.248.984a1.751 1.751 0 0 1-.688.664 2.061 2.061 0 0 1-.992.232Zm-.016-.632a1.195 1.195 0 0 0 1.072-.576c.107-.181.16-.381.16-.6 0-.234-.051-.442-.152-.624a1.142 1.142 0 0 0-.424-.432 1.187 1.187 0 0 0-.624-.16 1.35 1.35 0 0 0-.624.152 1.214 1.214 0 0 0-.48.416 1.116 1.116 0 0 0-.176.632c0 .224.053.427.16.608a1.258 1.258 0 0 0 1.088.584Zm3.488.568 3.48-5.656h.704l-3.472 5.656h-.712Zm3.696.048c-.256 0-.472-.056-.648-.168a1.106 1.106 0 0 1-.392-.448 1.489 1.489 0 0 1-.136-.64c0-.245.046-.461.136-.648.091-.186.224-.333.4-.44.176-.106.39-.16.64-.16.246 0 .454.054.624.16.171.107.302.254.392.44.091.187.136.403.136.648 0 .235-.045.448-.136.64-.09.187-.221.336-.392.448a1.11 1.11 0 0 1-.624.168Zm-.008-.568a.51.51 0 0 0 .328-.096.48.48 0 0 0 .176-.256.988.988 0 0 0 .056-.336.93.93 0 0 0-.056-.328.484.484 0 0 0-.176-.256.51.51 0 0 0-.328-.096c-.213 0-.365.07-.456.208a.886.886 0 0 0-.128.472c0 .187.046.35.136.488.091.134.24.2.448.2Zm-3.16-2.696c-.256 0-.472-.056-.648-.168a1.106 1.106 0 0 1-.392-.448 1.563 1.563 0 0 1-.128-.64c0-.245.043-.461.128-.648.091-.186.224-.333.4-.44.176-.106.39-.16.64-.16.251 0 .462.054.632.16a.996.996 0 0 1 .384.44c.091.187.136.403.136.648 0 .235-.045.448-.136.64a1.038 1.038 0 0 1-.384.448c-.17.112-.381.168-.632.168Zm0-.568a.51.51 0 0 0 .328-.096.549.549 0 0 0 .176-.256.988.988 0 0 0 .056-.336.93.93 0 0 0-.056-.328.554.554 0 0 0-.176-.256.51.51 0 0 0-.328-.096c-.213 0-.365.07-.456.208a.85.85 0 0 0-.136.472c0 .187.046.35.136.488.091.134.243.2.456.2Z"/><path fill="#000" fill-opacity=".7" d="M309.11 270.901c-.327 0-.643-.036-.95-.11a2.632 2.632 0 0 1-.83-.35 1.877 1.877 0 0 1-.58-.65c-.147-.266-.22-.593-.22-.98 0-.266.043-.506.13-.72.087-.22.213-.41.38-.57.173-.16.373-.286.6-.38a1.69 1.69 0 0 1-.55-.45 1.552 1.552 0 0 1-.27-.57c-.047-.2-.07-.39-.07-.57 0-.34.067-.626.2-.86.133-.24.313-.433.54-.58.227-.153.48-.263.76-.33a3.435 3.435 0 0 1 1.73 0c.28.067.533.177.76.33.227.154.407.35.54.59.133.24.2.53.2.87 0 .174-.027.357-.08.55a1.463 1.463 0 0 1-.27.55c-.133.174-.32.32-.56.44.24.094.443.224.61.39.173.167.303.36.39.58.087.22.13.467.13.74 0 .38-.073.704-.22.97a1.81 1.81 0 0 1-.6.65c-.247.16-.523.277-.83.35-.3.074-.613.11-.94.11Zm0-.96c.16 0 .327-.016.5-.05a1.77 1.77 0 0 0 .49-.17c.153-.086.277-.203.37-.35.1-.153.15-.343.15-.57 0-.28-.07-.5-.21-.66a1.18 1.18 0 0 0-.56-.36 2.209 2.209 0 0 0-.74-.12c-.26 0-.507.04-.74.12a1.247 1.247 0 0 0-.56.36c-.14.16-.21.38-.21.66 0 .227.047.417.14.57.1.147.227.264.38.35.16.08.327.137.5.17.173.034.337.05.49.05Zm.01-3.16c.24 0 .453-.04.64-.12.193-.08.35-.196.47-.35.12-.16.18-.353.18-.58.007-.266-.05-.48-.17-.64a1.01 1.01 0 0 0-.48-.36c-.193-.08-.41-.12-.65-.12-.247 0-.47.04-.67.12a.975.975 0 0 0-.46.35c-.107.16-.16.364-.16.61 0 .247.06.454.18.62.12.16.277.28.47.36.2.074.417.11.65.11Zm6.18 4.13c-.306 0-.596-.036-.87-.11a2.61 2.61 0 0 1-.75-.33 2.17 2.17 0 0 1-.56-.57 2.374 2.374 0 0 1-.31-.83h1.06c.06.174.16.324.3.45.147.127.314.227.5.3.194.074.39.11.59.11.3 0 .564-.05.79-.15.234-.106.417-.26.55-.46.134-.2.2-.456.2-.77 0-.433-.133-.77-.4-1.01-.266-.24-.616-.36-1.05-.36-.26 0-.503.047-.73.14-.22.087-.423.21-.61.37h-1l.25-3.94h4.38v.97h-3.41l-.16 1.96c.187-.146.41-.26.67-.34.267-.08.57-.116.91-.11.454 0 .847.094 1.18.28.34.187.6.45.78.79.187.334.28.727.28 1.18 0 .514-.116.95-.35 1.31-.226.36-.536.637-.93.83-.386.194-.823.29-1.31.29Zm4.483-.09 4.44-7.07h1.06l-4.42 7.07h-1.08Zm4.85.06c-.327 0-.607-.07-.84-.21a1.448 1.448 0 0 1-.53-.57 1.892 1.892 0 0 1-.18-.84c0-.326.06-.61.18-.85.126-.24.306-.426.54-.56.233-.14.51-.21.83-.21.32 0 .593.067.82.2.226.134.4.324.52.57.12.24.18.52.18.84 0 .314-.064.594-.19.84-.12.247-.294.44-.52.58-.227.14-.497.21-.81.21Zm-.01-.82c.166 0 .3-.036.4-.11.1-.073.17-.173.21-.3a1.13 1.13 0 0 0 .07-.39c0-.133-.024-.26-.07-.38a.58.58 0 0 0-.21-.3.665.665 0 0 0-.4-.11c-.254 0-.434.084-.54.25a.95.95 0 0 0-.16.54c0 .214.053.4.16.56.113.16.293.24.54.24Zm-4.14-3.15c-.327 0-.607-.07-.84-.21-.227-.14-.4-.33-.52-.57a1.892 1.892 0 0 1-.18-.84c0-.326.06-.61.18-.85s.296-.426.53-.56c.233-.14.513-.21.84-.21.32 0 .593.067.82.2.226.134.4.324.52.57.12.24.18.52.18.84 0 .314-.06.594-.18.84-.12.247-.297.44-.53.58-.227.14-.5.21-.82.21Zm0-.82c.166 0 .296-.036.39-.11.1-.08.173-.18.22-.3a1.13 1.13 0 0 0 0-.78.644.644 0 0 0-.22-.29.583.583 0 0 0-.39-.12c-.254 0-.437.084-.55.25a.968.968 0 0 0-.16.55c0 .214.053.4.16.56.113.16.296.24.55.24Z"/><path stroke="#000" stroke-dasharray="1 1" stroke-opacity=".14" d="M15 196.961h322"/><path stroke="#000" stroke-dasharray="0.5 0.5" stroke-opacity=".14" d="M15 276.789h268"/><path stroke="#727942" stroke-dasharray="1 1" d="m83 232 .365 79.974"/><path fill="#727942" d="M80.697 195.89a2.667 2.667 0 1 0 5.333.107 2.667 2.667 0 0 0-5.333-.107Zm2.166.043-.01.502 1 .02.01-.501-1-.021Zm-.03 1.505-.02 1.003 1 .02.02-1.003-1-.02Zm-.04 2.006-.02 1.004.999.02.02-1.003-1-.021Zm-.041 2.007-.02 1.003 1 .02.02-1.003-1-.02Zm-.04 2.006-.021 1.003 1 .02.02-1.003-1-.02Zm-.041 2.006-.02 1.003 1 .021.02-1.004-1-.02Zm-.041 2.006-.02 1.004 1 .02.02-1.003-1-.021Zm-.04 2.007-.02 1.003.999.02.02-1.003-1-.02Zm-.041 2.006-.02 1.003 1 .02.02-1.003-1-.02Zm-.04 2.006-.01.502.999.02.01-.502-1-.02Z"/><rect width="29" height="13" x="69" y="216" fill="#727942" rx="6.5"/><path fill="#fff" d="M76.028 224.105v-3.281h.557v3.281h-.557Zm-1.362-1.362v-.557h3.281v.557h-3.28Zm6.106 2.327c-.342 0-.643-.061-.905-.182a1.482 1.482 0 0 1-.609-.504 1.27 1.27 0 0 1-.216-.736 1.356 1.356 0 0 1 .48-1.057c.15-.124.319-.203.504-.236v-.03a.98.98 0 0 1-.581-.41 1.242 1.242 0 0 1-.214-.723 1.23 1.23 0 0 1 .196-.694c.133-.203.315-.364.547-.482.234-.117.5-.176.798-.176.295 0 .558.059.79.176.232.118.415.279.547.482.135.204.203.435.204.694a1.26 1.26 0 0 1-.221.723.98.98 0 0 1-.574.41v.03c.184.033.35.112.497.236a1.383 1.383 0 0 1 .487 1.057c-.002.275-.076.52-.224.736a1.482 1.482 0 0 1-.609.504 2.095 2.095 0 0 1-.897.182Zm0-.547c.23 0 .43-.037.596-.112a.89.89 0 0 0 .388-.316.85.85 0 0 0 .14-.477.919.919 0 0 0-.15-.51 1.02 1.02 0 0 0-.4-.348 1.263 1.263 0 0 0-.574-.126 1.3 1.3 0 0 0-.582.126 1.02 1.02 0 0 0-.4.348.901.901 0 0 0-.142.51.834.834 0 0 0 .132.477.888.888 0 0 0 .39.316c.17.075.37.112.602.112Zm0-2.416c.182 0 .344-.037.485-.11a.83.83 0 0 0 .335-.305.873.873 0 0 0 .124-.46.845.845 0 0 0-.121-.45.796.796 0 0 0-.33-.299 1.08 1.08 0 0 0-.493-.106c-.19 0-.357.035-.5.106a.777.777 0 0 0-.33.299.828.828 0 0 0-.115.45.854.854 0 0 0 .117.46.83.83 0 0 0 .336.305c.142.073.306.11.492.11Zm4.343 2.963c-.374 0-.693-.102-.957-.306-.263-.205-.465-.503-.604-.892-.139-.391-.209-.864-.209-1.417 0-.55.07-1.02.21-1.41.14-.391.342-.689.606-.895.265-.207.583-.31.954-.31s.689.103.952.31c.265.206.468.504.607.895.14.39.211.86.211 1.41 0 .553-.07 1.026-.209 1.417-.139.389-.34.687-.604.892-.263.204-.582.306-.957.306Zm0-.547c.371 0 .66-.179.865-.537.206-.358.308-.868.308-1.531 0-.441-.047-.816-.141-1.126-.093-.31-.227-.546-.403-.709a.89.89 0 0 0-.629-.243c-.368 0-.655.181-.862.544-.207.361-.311.873-.311 1.534 0 .441.046.815.14 1.123.092.309.225.543.4.704a.905.905 0 0 0 .633.241Zm5.31-.477v-.269c0-.185.038-.355.114-.509a.917.917 0 0 1 .338-.373.988.988 0 0 1 .542-.142c.216 0 .396.047.542.142a.888.888 0 0 1 .33.373c.075.154.113.324.113.509v.269c0 .185-.038.356-.115.512a.907.907 0 0 1-.333.373.987.987 0 0 1-.537.139 1.01 1.01 0 0 1-.544-.139.926.926 0 0 1-.336-.373 1.152 1.152 0 0 1-.114-.512Zm.507-.269v.269c0 .154.037.292.11.415.072.121.198.181.377.181.174 0 .297-.06.368-.181a.798.798 0 0 0 .11-.415v-.269a.81.81 0 0 0-.105-.412c-.07-.123-.194-.184-.373-.184-.174 0-.299.061-.375.184a.768.768 0 0 0-.112.412Zm-3.043-2.645v-.268c0-.186.038-.356.115-.51a.917.917 0 0 1 .338-.373.996.996 0 0 1 .542-.141.98.98 0 0 1 .542.141.889.889 0 0 1 .33.373c.075.154.112.324.112.51v.268c0 .186-.038.357-.114.512a.9.9 0 0 1-.333.373.979.979 0 0 1-.537.139c-.216 0-.397-.046-.545-.139a.92.92 0 0 1-.335-.373 1.146 1.146 0 0 1-.115-.512Zm.508-.268v.268c0 .154.036.293.109.415.073.121.199.182.378.182.174 0 .296-.061.368-.182a.795.795 0 0 0 .109-.415v-.268a.814.814 0 0 0-.104-.413c-.07-.122-.194-.184-.373-.184-.174 0-.3.062-.376.184a.772.772 0 0 0-.111.413ZM88.078 225l3.5-5.091h.567l-3.5 5.091h-.567Z"/><path fill="#727942" d="M15 270.005h.5v41.994H15z"/><path fill="#D7D79C" d="M19.672 293.335h.5v18.664h-.5z"/><path fill="#727942" d="M24.352 281.67h.5v30.329h-.5zM29.023 287.503h.5V312h-.5zM33.695 285.17h.5v26.829h-.5zM38.375 299.168h.5V312h-.5zM43.047 274.671h.5v37.328h-.5zM47.723 292.169h.5V312h-.5zM52.398 303.834h.5V312h-.5zM57.07 294.502h.5v17.497h-.5z"/><path fill="#D7D79C" d="M61.746 287.503h.5V312h-.5z"/><path fill="#727942" d="M66.422 287.503h.5V312h-.5zM71.094 301.501h.5v10.498h-.5zM75.769 298.002h.5V312h-.5zM80.445 284.003h.5v27.996h-.5zM85.117 260.673h.5v51.326h-.5zM89.793 274.671h.5v37.328h-.5zM94.469 279.337h.5v32.662h-.5z"/><path fill="#D7D79C" d="M99.141 289.836h.5v22.163h-.5z"/><path fill="#727942" d="M103.816 296.835h.5V312h-.5zM108.492 264.173h.5V312h-.5zM113.168 270.005h.5v41.994h-.5zM117.844 237.343h.5v74.656h-.5zM122.516 229.178h.5V312h-.5z"/><path fill="#D7D79C" d="M127.191 257.174h.5v54.825h-.5z"/><path fill="#727942" d="M131.867 245.509h.5v66.49h-.5zM136.539 236.177h.5V312h-.5z"/><path fill="#D7D79C" d="M141.215 231.511h.5V312h-.5z"/><path fill="#727942" d="M145.891 253.674h.5v58.325h-.5z"/><path fill="#D7D79C" d="M150.562 284.003h.5v27.996h-.5z"/><path fill="#727942" d="M155.238 291.002h.5v20.997h-.5zM159.914 260.673h.5v51.326h-.5z"/><path fill="#D7D79C" d="M164.586 270.005h.5v41.994h-.5z"/><path fill="#727942" d="M169.262 259.507h.5v52.492h-.5zM173.938 279.337h.5v32.662h-.5zM178.609 261.84h.5V312h-.5z"/><path fill="#D7D79C" d="M183.285 285.17h.5v26.829h-.5z"/><path fill="#727942" d="M187.961 292.169h.5V312h-.5z"/><path fill="#D7D79C" d="M192.633 281.67h.5v30.329h-.5z"/><path fill="#727942" d="M197.309 270.005h.5v41.994h-.5z"/><path fill="#D7D79C" d="M201.984 274.671h.5v37.328h-.5z"/><path fill="#727942" d="M206.656 288.669h.5v23.33h-.5zM211.332 286.336h.5v25.663h-.5zM216.008 284.003h.5v27.996h-.5zM220.68 259.507h.5v52.492h-.5zM225.359 301.501h.5v10.498h-.5zM230.031 251.342h.5V312h-.5z"/><path fill="#D7D79C" d="M234.703 257.174h.5v54.825h-.5z"/><path fill="#727942" d="M239.379 281.671h.5V312h-.5zM244.055 253.674h.5v58.325h-.5z"/><path fill="#D7D79C" d="M248.727 259.507h.5v52.492h-.5z"/><path fill="#727942" d="M253.402 237.343h.5v74.656h-.5zM258.078 256.008h.5V312h-.5z"/><path fill="#D7D79C" d="M262.75 260.673h.5v51.326h-.5z"/><path fill="#727942" d="M267.426 254.841h.5v57.158h-.5zM272.102 245.509h.5v66.49h-.5z"/><path fill="#D7D79C" d="M276.773 268.839h.5v43.16h-.5z"/><path fill="#727942" d="M281.449 273.505h.5V312h-.5z"/><path fill="#676767" d="M21.752 188.44v-.592h.288c.192 0 .339-.032.44-.096a.477.477 0 0 0 .216-.288c.043-.123.064-.275.064-.456v-4.224h.68v4.296c0 .309-.045.565-.136.768a.853.853 0 0 1-.416.448c-.192.096-.448.144-.768.144h-.368Zm1.344-6.28a.456.456 0 0 1-.336-.128.46.46 0 0 1-.12-.328c0-.133.043-.24.128-.32a.445.445 0 0 1 .328-.128c.123 0 .23.043.32.128a.41.41 0 0 1 .144.32.43.43 0 0 1-.136.328.463.463 0 0 1-.328.128Zm2.823 4.888c-.192 0-.378-.024-.56-.072a1.669 1.669 0 0 1-.48-.232 1.251 1.251 0 0 1-.336-.392c-.08-.16-.12-.344-.12-.552 0-.24.043-.443.128-.608.09-.165.21-.296.36-.392a1.57 1.57 0 0 1 .52-.208c.198-.043.403-.064.616-.064h1.24a1.7 1.7 0 0 0-.104-.624.791.791 0 0 0-.32-.408c-.15-.101-.346-.152-.592-.152-.15 0-.288.016-.416.048a.892.892 0 0 0-.328.152.6.6 0 0 0-.2.28H24.6c.038-.192.11-.355.216-.488.112-.139.246-.251.4-.336.16-.091.33-.157.512-.2a2.35 2.35 0 0 1 .544-.064c.608 0 1.04.179 1.296.536.256.357.384.84.384 1.448V187h-.568l-.04-.536a1.21 1.21 0 0 1-.424.368 1.668 1.668 0 0 1-.512.168c-.17.032-.333.048-.488.048Zm.064-.6c.267 0 .496-.043.688-.128.198-.091.35-.221.456-.392.107-.171.16-.379.16-.624v-.208h-.744c-.176 0-.35.003-.52.008a2.03 2.03 0 0 0-.464.064.693.693 0 0 0-.336.192c-.08.091-.12.221-.12.392 0 .16.04.291.12.392a.816.816 0 0 0 .328.232c.139.048.283.072.432.072Zm3.022.552v-4.216h.656l.032.64c.096-.155.218-.283.368-.384.15-.101.312-.176.488-.224a1.88 1.88 0 0 1 .528-.08c.41 0 .73.085.96.256.234.171.4.403.496.696.101.288.152.616.152.984V187h-.68v-2.144c0-.197-.014-.387-.04-.568a1.414 1.414 0 0 0-.144-.488.775.775 0 0 0-.304-.336c-.134-.085-.312-.128-.536-.128-.278 0-.515.077-.712.232a1.461 1.461 0 0 0-.44.624 2.538 2.538 0 0 0-.144.88V187h-.68ZM48.944 187v-3.616h-.688v-.6h.688v-.448c0-.315.043-.571.128-.768a.89.89 0 0 1 .424-.448c.197-.096.456-.144.776-.144h.48v.6h-.408c-.192 0-.341.032-.448.096a.522.522 0 0 0-.216.288 1.592 1.592 0 0 0-.056.456v.368h1.128v.6h-1.128V187h-.68Zm4.268.048c-.448 0-.82-.091-1.112-.272a1.711 1.711 0 0 1-.656-.768 2.72 2.72 0 0 1-.216-1.112c0-.421.074-.792.224-1.112.154-.325.378-.581.672-.768.293-.187.653-.28 1.08-.28a1.748 1.748 0 0 1 1.44.688c.154.208.266.437.336.688.069.245.098.493.088.744l-.016.144c0 .048-.003.096-.008.144h-3.128c.02.245.082.467.184.664.1.197.245.355.432.472.186.112.418.168.696.168.138 0 .277-.016.416-.048.144-.037.272-.099.384-.184.117-.085.2-.2.248-.344h.696a1.37 1.37 0 0 1-.36.672 1.685 1.685 0 0 1-.632.384c-.246.08-.502.12-.768.12Zm-1.28-2.496h2.44a1.337 1.337 0 0 0-.16-.632 1.097 1.097 0 0 0-.416-.424 1.189 1.189 0 0 0-.616-.152 1.24 1.24 0 0 0-.664.168 1.157 1.157 0 0 0-.408.44 1.597 1.597 0 0 0-.176.6Zm6.033 2.496c-.192 0-.37-.021-.536-.064a1.749 1.749 0 0 1-.44-.2 1.622 1.622 0 0 1-.335-.296l-.033.512h-.648v-5.656h.68v2.048c.14-.213.337-.376.593-.488.26-.112.527-.168.8-.168.426 0 .776.096 1.047.288.272.187.472.443.6.768.134.32.2.683.2 1.088 0 .4-.069.765-.208 1.096-.138.325-.349.587-.632.784-.282.192-.645.288-1.087.288Zm-.008-.6c.31 0 .555-.069.736-.208a1.2 1.2 0 0 0 .393-.568c.085-.235.128-.493.128-.776 0-.288-.043-.549-.128-.784a1.133 1.133 0 0 0-.4-.56c-.187-.139-.435-.208-.745-.208-.277 0-.514.077-.712.232a1.491 1.491 0 0 0-.44.592c-.1.24-.151.485-.151.736 0 .272.042.525.128.76.09.235.232.424.424.568.197.144.453.216.768.216ZM75.536 187v-4.216h.656l.032.504c.09-.128.192-.232.304-.312.117-.08.245-.139.384-.176.144-.043.296-.064.456-.064.293 0 .53.064.712.192.181.123.317.285.408.488.096-.144.205-.267.328-.368.128-.101.27-.179.424-.232.16-.053.336-.08.528-.08.31 0 .557.067.744.2.192.133.33.315.416.544.085.224.128.477.128.76V187h-.68v-2.416c0-.139-.008-.28-.024-.424a1.226 1.226 0 0 0-.096-.4.683.683 0 0 0-.24-.304c-.101-.08-.245-.12-.432-.12a.767.767 0 0 0-.448.128.908.908 0 0 0-.288.328 1.604 1.604 0 0 0-.16.448 2.285 2.285 0 0 0-.048.464V187h-.68v-2.424c0-.133-.008-.272-.024-.416a1.373 1.373 0 0 0-.088-.4.588.588 0 0 0-.224-.304c-.101-.08-.243-.12-.424-.12-.256 0-.456.075-.6.224a1.19 1.19 0 0 0-.304.536c-.053.208-.08.413-.08.616V187h-.68Zm7.907.048c-.192 0-.379-.024-.56-.072a1.669 1.669 0 0 1-.48-.232 1.251 1.251 0 0 1-.336-.392c-.08-.16-.12-.344-.12-.552 0-.24.042-.443.128-.608.09-.165.21-.296.36-.392a1.57 1.57 0 0 1 .52-.208c.197-.043.402-.064.616-.064h1.24a1.7 1.7 0 0 0-.104-.624.791.791 0 0 0-.32-.408c-.15-.101-.347-.152-.592-.152-.15 0-.288.016-.416.048a.892.892 0 0 0-.328.152.602.602 0 0 0-.2.28h-.728c.037-.192.109-.355.216-.488.112-.139.245-.251.4-.336.16-.091.33-.157.512-.2a2.35 2.35 0 0 1 .544-.064c.608 0 1.04.179 1.296.536.256.357.384.84.384 1.448V187h-.568l-.04-.536c-.118.16-.259.283-.424.368a1.667 1.667 0 0 1-.512.168 2.65 2.65 0 0 1-.488.048Zm.064-.6c.266 0 .496-.043.688-.128.197-.091.349-.221.456-.392.106-.171.16-.379.16-.624v-.208h-.744c-.176 0-.35.003-.52.008a2.03 2.03 0 0 0-.464.064.693.693 0 0 0-.336.192c-.08.091-.12.221-.12.392 0 .16.04.291.12.392a.816.816 0 0 0 .328.232c.138.048.282.072.432.072Zm3.021.552v-4.216h.656l.032.656c.107-.165.23-.299.368-.4.144-.101.301-.176.472-.224a1.96 1.96 0 0 1 .568-.08h.216v.64h-.248c-.33 0-.6.072-.808.216-.203.139-.35.328-.44.568a2.16 2.16 0 0 0-.136.784V187h-.68ZM104.888 187.048c-.192 0-.379-.024-.56-.072a1.669 1.669 0 0 1-.48-.232 1.244 1.244 0 0 1-.336-.392c-.08-.16-.12-.344-.12-.552 0-.24.043-.443.128-.608.091-.165.211-.296.36-.392a1.57 1.57 0 0 1 .52-.208c.197-.043.403-.064.616-.064h1.24c0-.24-.035-.448-.104-.624a.793.793 0 0 0-.32-.408c-.149-.101-.347-.152-.592-.152-.149 0-.288.016-.416.048a.895.895 0 0 0-.328.152.602.602 0 0 0-.2.28h-.728c.037-.192.109-.355.216-.488.112-.139.245-.251.4-.336.16-.091.331-.157.512-.2a2.35 2.35 0 0 1 .544-.064c.608 0 1.04.179 1.296.536.256.357.384.84.384 1.448V187h-.568l-.04-.536c-.117.16-.259.283-.424.368a1.664 1.664 0 0 1-.512.168 2.65 2.65 0 0 1-.488.048Zm.064-.6c.267 0 .496-.043.688-.128.197-.091.349-.221.456-.392.107-.171.16-.379.16-.624v-.208h-.744c-.176 0-.349.003-.52.008a2.03 2.03 0 0 0-.464.064.69.69 0 0 0-.336.192c-.08.091-.12.221-.12.392 0 .16.04.291.12.392a.816.816 0 0 0 .328.232c.139.048.283.072.432.072Zm3.022 2.072v-5.736h.648l.032.632c.144-.219.338-.387.584-.504.25-.117.52-.176.808-.176.426 0 .776.096 1.048.288.272.187.472.443.6.768.133.325.2.693.2 1.104 0 .411-.067.779-.2 1.104a1.67 1.67 0 0 1-.616.768c-.278.187-.632.28-1.064.28-.214 0-.406-.021-.576-.064a1.571 1.571 0 0 1-.448-.2 1.724 1.724 0 0 1-.336-.312v2.048h-.68Zm1.984-2.072c.309 0 .554-.069.736-.208.181-.144.312-.333.392-.568.085-.235.128-.493.128-.776a2.29 2.29 0 0 0-.128-.784 1.138 1.138 0 0 0-.4-.56c-.187-.139-.435-.208-.744-.208-.278 0-.515.072-.712.216a1.31 1.31 0 0 0-.44.568 1.926 1.926 0 0 0-.152.776c0 .293.048.557.144.792.096.235.242.419.44.552.197.133.442.2.736.2Zm2.844.552v-4.216h.656l.032.656c.106-.165.229-.299.368-.4.144-.101.301-.176.472-.224a1.96 1.96 0 0 1 .568-.08h.216v.64h-.248c-.331 0-.6.072-.808.216-.203.139-.35.328-.44.568a2.154 2.154 0 0 0-.136.784V187h-.68ZM130.536 187v-4.216h.656l.032.504a1.31 1.31 0 0 1 .304-.312c.117-.08.245-.139.384-.176.144-.043.296-.064.456-.064.293 0 .531.064.712.192.181.123.317.285.408.488a1.67 1.67 0 0 1 .328-.368c.128-.101.269-.179.424-.232.16-.053.336-.08.528-.08.309 0 .557.067.744.2.192.133.331.315.416.544.085.224.128.477.128.76V187h-.68v-2.416c0-.139-.008-.28-.024-.424a1.241 1.241 0 0 0-.096-.4.679.679 0 0 0-.24-.304c-.101-.08-.245-.12-.432-.12a.768.768 0 0 0-.448.128.913.913 0 0 0-.288.328 1.595 1.595 0 0 0-.16.448 2.285 2.285 0 0 0-.048.464V187h-.68v-2.424c0-.133-.008-.272-.024-.416a1.382 1.382 0 0 0-.088-.4.588.588 0 0 0-.224-.304c-.101-.08-.243-.12-.424-.12-.256 0-.456.075-.6.224a1.192 1.192 0 0 0-.304.536c-.053.208-.08.413-.08.616V187h-.68Zm7.907.048c-.192 0-.379-.024-.56-.072a1.669 1.669 0 0 1-.48-.232 1.244 1.244 0 0 1-.336-.392c-.08-.16-.12-.344-.12-.552 0-.24.042-.443.128-.608.09-.165.21-.296.36-.392.149-.096.322-.165.52-.208.197-.043.402-.064.616-.064h1.24c0-.24-.035-.448-.104-.624a.793.793 0 0 0-.32-.408c-.15-.101-.347-.152-.592-.152-.15 0-.288.016-.416.048a.887.887 0 0 0-.328.152.595.595 0 0 0-.2.28h-.728c.037-.192.109-.355.216-.488.112-.139.245-.251.4-.336.16-.091.33-.157.512-.2.181-.043.362-.064.544-.064.608 0 1.04.179 1.296.536.256.357.384.84.384 1.448V187h-.568l-.04-.536c-.118.16-.259.283-.424.368a1.673 1.673 0 0 1-.512.168 2.659 2.659 0 0 1-.488.048Zm.064-.6c.266 0 .496-.043.688-.128.197-.091.349-.221.456-.392.106-.171.16-.379.16-.624v-.208h-.744c-.176 0-.35.003-.52.008a2.022 2.022 0 0 0-.464.064.69.69 0 0 0-.336.192c-.08.091-.12.221-.12.392 0 .16.04.291.12.392a.81.81 0 0 0 .328.232c.138.048.282.072.432.072Zm4.877 2.44c-.325 0-.64-.045-.944-.136a2.052 2.052 0 0 1-.808-.472l.296-.536c.208.165.43.296.664.392.24.096.491.144.752.144.438 0 .75-.128.936-.384.192-.251.288-.571.288-.96v-.504a1.24 1.24 0 0 1-.368.36c-.144.091-.304.16-.48.208a2.282 2.282 0 0 1-.544.064c-.416 0-.744-.083-.984-.248a1.345 1.345 0 0 1-.512-.688 3.116 3.116 0 0 1-.152-1.016v-2.328h.68v2.136c0 .192.011.381.032.568.027.181.078.347.152.496a.907.907 0 0 0 .328.352c.144.085.336.128.576.128.304 0 .547-.075.728-.224.187-.149.32-.349.4-.6.086-.251.128-.528.128-.832v-2.024h.68V187c0 .304-.04.573-.12.808-.08.235-.2.432-.36.592-.16.16-.354.28-.584.36a2.203 2.203 0 0 1-.784.128ZM159.752 188.44v-.592h.288c.192 0 .339-.032.44-.096a.475.475 0 0 0 .216-.288c.043-.123.064-.275.064-.456v-4.224h.68v4.296c0 .309-.045.565-.136.768a.852.852 0 0 1-.416.448c-.192.096-.448.144-.768.144h-.368Zm1.344-6.28a.455.455 0 0 1-.336-.128.46.46 0 0 1-.12-.328.42.42 0 0 1 .128-.32.445.445 0 0 1 .328-.128c.123 0 .229.043.32.128a.41.41 0 0 1 .144.32.43.43 0 0 1-.136.328.463.463 0 0 1-.328.128Zm3.231 4.888c-.581 0-1.024-.155-1.328-.464-.298-.309-.448-.784-.448-1.424v-2.376h.68v2.344c0 .277.04.515.12.712.08.197.2.349.36.456.166.101.371.152.616.152.256 0 .467-.051.632-.152a.903.903 0 0 0 .36-.456c.08-.197.12-.435.12-.712v-2.344h.68v2.376c0 .64-.154 1.115-.464 1.424-.304.309-.746.464-1.328.464Zm2.85-.048v-4.216h.656l.032.64a1.25 1.25 0 0 1 .368-.384c.149-.101.312-.176.488-.224.181-.053.357-.08.528-.08.41 0 .73.085.96.256.234.171.4.403.496.696.101.288.152.616.152.984V187h-.68v-2.144c0-.197-.014-.387-.04-.568a1.44 1.44 0 0 0-.144-.488.78.78 0 0 0-.304-.336c-.134-.085-.312-.128-.536-.128-.278 0-.515.077-.712.232a1.458 1.458 0 0 0-.44.624 2.538 2.538 0 0 0-.144.88V187h-.68ZM185.752 188.44v-.592h.288c.192 0 .339-.032.44-.096a.475.475 0 0 0 .216-.288c.043-.123.064-.275.064-.456v-4.224h.68v4.296c0 .309-.045.565-.136.768a.852.852 0 0 1-.416.448c-.192.096-.448.144-.768.144h-.368Zm1.344-6.28a.455.455 0 0 1-.336-.128.46.46 0 0 1-.12-.328.42.42 0 0 1 .128-.32.445.445 0 0 1 .328-.128c.123 0 .229.043.32.128a.41.41 0 0 1 .144.32.43.43 0 0 1-.136.328.463.463 0 0 1-.328.128Zm3.231 4.888c-.581 0-1.024-.155-1.328-.464-.298-.309-.448-.784-.448-1.424v-2.376h.68v2.344c0 .277.04.515.12.712.08.197.2.349.36.456.166.101.371.152.616.152.256 0 .467-.051.632-.152a.903.903 0 0 0 .36-.456c.08-.197.12-.435.12-.712v-2.344h.68v2.376c0 .64-.154 1.115-.464 1.424-.304.309-.746.464-1.328.464Zm2.85-.048v-5.656h.68V187h-.68ZM210.888 187.048c-.192 0-.379-.024-.56-.072a1.669 1.669 0 0 1-.48-.232 1.244 1.244 0 0 1-.336-.392c-.08-.16-.12-.344-.12-.552 0-.24.043-.443.128-.608.091-.165.211-.296.36-.392a1.57 1.57 0 0 1 .52-.208c.197-.043.403-.064.616-.064h1.24c0-.24-.035-.448-.104-.624a.793.793 0 0 0-.32-.408c-.149-.101-.347-.152-.592-.152-.149 0-.288.016-.416.048a.895.895 0 0 0-.328.152.602.602 0 0 0-.2.28h-.728c.037-.192.109-.355.216-.488.112-.139.245-.251.4-.336.16-.091.331-.157.512-.2a2.35 2.35 0 0 1 .544-.064c.608 0 1.04.179 1.296.536.256.357.384.84.384 1.448V187h-.568l-.04-.536c-.117.16-.259.283-.424.368a1.664 1.664 0 0 1-.512.168 2.65 2.65 0 0 1-.488.048Zm.064-.6c.267 0 .496-.043.688-.128.197-.091.349-.221.456-.392.107-.171.16-.379.16-.624v-.208h-.744c-.176 0-.349.003-.52.008a2.03 2.03 0 0 0-.464.064.69.69 0 0 0-.336.192c-.08.091-.12.221-.12.392 0 .16.04.291.12.392a.816.816 0 0 0 .328.232c.139.048.283.072.432.072Zm4.782.6c-.582 0-1.024-.155-1.328-.464-.299-.309-.448-.784-.448-1.424v-2.376h.68v2.344c0 .277.04.515.12.712.08.197.2.349.36.456.165.101.37.152.616.152.256 0 .466-.051.632-.152a.913.913 0 0 0 .36-.456c.08-.197.12-.435.12-.712v-2.344h.68v2.376c0 .64-.155 1.115-.464 1.424-.304.309-.747.464-1.328.464Zm4.681 1.84c-.288 0-.555-.045-.8-.136a1.496 1.496 0 0 1-.624-.408 1.464 1.464 0 0 1-.344-.712h.704c.043.16.123.288.24.384a1 1 0 0 0 .408.2 1.7 1.7 0 0 0 .456.064c.288 0 .52-.059.696-.176a.95.95 0 0 0 .392-.472c.08-.197.12-.424.12-.68v-.584c-.091.16-.211.291-.36.392a1.628 1.628 0 0 1-.488.224 2.282 2.282 0 0 1-.544.064c-.427 0-.776-.093-1.048-.28a1.732 1.732 0 0 1-.608-.768 2.972 2.972 0 0 1-.192-1.096c0-.405.067-.771.2-1.096.133-.331.339-.592.616-.784.277-.192.632-.288 1.064-.288.245 0 .493.045.744.136.251.091.456.237.616.44l.032-.528h.648v4.184c0 .395-.072.736-.216 1.024a1.458 1.458 0 0 1-.64.664c-.283.155-.64.232-1.072.232Zm-.048-2.44c.283 0 .52-.072.712-.216.192-.144.339-.336.44-.576a2 2 0 0 0 .152-.784c0-.293-.051-.555-.152-.784a1.218 1.218 0 0 0-.432-.544c-.192-.133-.435-.2-.728-.2-.304 0-.549.069-.736.208a1.203 1.203 0 0 0-.4.56 2.42 2.42 0 0 0-.12.784c0 .299.043.565.128.8.085.235.221.419.408.552.187.133.429.2.728.2ZM239.072 187.048c-.192 0-.387-.019-.584-.056a1.926 1.926 0 0 1-.544-.192 1.254 1.254 0 0 1-.416-.368 1.266 1.266 0 0 1-.216-.576H238a.777.777 0 0 0 .256.352c.123.085.259.147.408.184.155.037.301.056.44.056.085 0 .184-.005.296-.016.112-.011.219-.035.32-.072a.61.61 0 0 0 .256-.184.499.499 0 0 0 .104-.336.452.452 0 0 0-.072-.264.528.528 0 0 0-.2-.168.961.961 0 0 0-.312-.104c-.251-.053-.52-.104-.808-.152a2.113 2.113 0 0 1-.752-.272 1.49 1.49 0 0 1-.208-.16 1.143 1.143 0 0 1-.152-.208 1.345 1.345 0 0 1-.104-.256 1.458 1.458 0 0 1-.032-.312c0-.208.04-.387.12-.536.085-.155.203-.28.352-.376.149-.101.32-.176.512-.224.197-.048.408-.072.632-.072.277 0 .525.045.744.136.224.085.408.213.552.384.144.165.229.371.256.616h-.632c-.037-.155-.139-.28-.304-.376-.165-.101-.376-.152-.632-.152-.085 0-.181.008-.288.024a.982.982 0 0 0-.304.08.56.56 0 0 0-.24.176.452.452 0 0 0-.096.304c0 .117.029.216.088.296.064.08.152.144.264.192.112.048.24.088.384.12l.616.12c.224.037.4.077.528.12.171.053.312.128.424.224a.848.848 0 0 1 .256.344c.059.133.088.288.088.464 0 .251-.051.456-.152.616-.096.16-.227.285-.392.376a1.804 1.804 0 0 1-.552.192 3.207 3.207 0 0 1-.592.056Zm4.358 0c-.448 0-.818-.091-1.112-.272a1.714 1.714 0 0 1-.656-.768 2.72 2.72 0 0 1-.216-1.112c0-.421.075-.792.224-1.112.155-.325.379-.581.672-.768.294-.187.654-.28 1.08-.28.331 0 .614.064.848.192.24.123.438.288.592.496.155.208.267.437.336.688.07.245.099.493.088.744l-.016.144c0 .048-.002.096-.008.144h-3.128c.022.245.083.467.184.664.102.197.246.355.432.472.187.112.419.168.696.168.139 0 .278-.016.416-.048.144-.037.272-.099.384-.184.118-.085.2-.2.248-.344h.696a1.37 1.37 0 0 1-.36.672 1.68 1.68 0 0 1-.632.384c-.245.08-.501.12-.768.12Zm-1.28-2.496h2.44a1.324 1.324 0 0 0-.16-.632 1.094 1.094 0 0 0-.416-.424 1.187 1.187 0 0 0-.616-.152c-.261 0-.482.056-.664.168a1.157 1.157 0 0 0-.408.44 1.61 1.61 0 0 0-.176.6Zm4.042 3.968v-5.736h.648l.032.632c.144-.219.339-.387.584-.504.251-.117.52-.176.808-.176.427 0 .776.096 1.048.288.272.187.472.443.6.768.134.325.2.693.2 1.104 0 .411-.066.779-.2 1.104a1.657 1.657 0 0 1-.616.768c-.277.187-.632.28-1.064.28-.213 0-.405-.021-.576-.064a1.584 1.584 0 0 1-.448-.2 1.724 1.724 0 0 1-.336-.312v2.048h-.68Zm1.984-2.072c.31 0 .555-.069.736-.208.182-.144.312-.333.392-.568a2.24 2.24 0 0 0 .128-.776c0-.288-.042-.549-.128-.784a1.131 1.131 0 0 0-.4-.56c-.186-.139-.434-.208-.744-.208-.277 0-.514.072-.712.216a1.318 1.318 0 0 0-.44.568 1.943 1.943 0 0 0-.152.776c0 .293.048.557.144.792.096.235.243.419.44.552.198.133.443.2.736.2ZM267.376 187.048c-.443 0-.813-.091-1.112-.272a1.742 1.742 0 0 1-.672-.768 2.72 2.72 0 0 1-.216-1.112c0-.421.075-.792.224-1.112.149-.325.373-.581.672-.768.299-.187.672-.28 1.12-.28.443 0 .811.093 1.104.28.299.187.52.443.664.768.149.32.224.691.224 1.112 0 .416-.075.787-.224 1.112a1.742 1.742 0 0 1-.672.768c-.293.181-.664.272-1.112.272Zm0-.6c.309 0 .56-.069.752-.208.197-.139.341-.325.432-.56.096-.235.144-.496.144-.784 0-.288-.048-.549-.144-.784a1.196 1.196 0 0 0-.432-.56c-.192-.139-.443-.208-.752-.208-.304 0-.555.069-.752.208a1.263 1.263 0 0 0-.432.56 2.154 2.154 0 0 0-.136.784c0 .288.045.549.136.784.096.235.24.421.432.56.197.139.448.208.752.208Zm4.718.6c-.443 0-.811-.091-1.104-.272a1.728 1.728 0 0 1-.648-.768 2.783 2.783 0 0 1-.208-1.104c0-.4.072-.763.216-1.088.149-.331.373-.592.672-.784.304-.197.688-.296 1.152-.296.288 0 .544.048.768.144.229.096.418.237.568.424.149.181.253.411.312.688h-.696c-.08-.235-.208-.4-.384-.496a1.175 1.175 0 0 0-.608-.152c-.32 0-.576.075-.768.224a1.302 1.302 0 0 0-.424.584 2.168 2.168 0 0 0-.128.752c0 .277.045.533.136.768.09.235.232.424.424.568.192.139.44.208.744.208.224 0 .434-.048.632-.144.202-.096.336-.267.4-.512h.704a1.382 1.382 0 0 1-.344.712 1.567 1.567 0 0 1-.632.416 2.383 2.383 0 0 1-.784.128Zm4.334-.048c-.32 0-.579-.048-.776-.144a.887.887 0 0 1-.424-.448c-.086-.203-.128-.459-.128-.768v-2.256h-.688v-.6h.688v-1.256h.68v1.256h1.128v.6h-1.128v2.184c0 .288.05.501.152.64.106.133.32.2.64.2h.312V187h-.456ZM292.536 187v-4.216h.656l.032.64c.096-.155.219-.283.368-.384.149-.101.312-.176.488-.224.181-.053.357-.08.528-.08.411 0 .731.085.96.256.235.171.4.403.496.696.101.288.152.616.152.984V187h-.68v-2.144c0-.197-.013-.387-.04-.568a1.396 1.396 0 0 0-.144-.488.774.774 0 0 0-.304-.336c-.133-.085-.312-.128-.536-.128-.277 0-.515.077-.712.232a1.458 1.458 0 0 0-.44.624 2.538 2.538 0 0 0-.144.88V187h-.68Zm6.567.048c-.443 0-.814-.091-1.112-.272a1.742 1.742 0 0 1-.672-.768 2.72 2.72 0 0 1-.216-1.112c0-.421.074-.792.224-1.112.149-.325.373-.581.672-.768.298-.187.672-.28 1.12-.28.442 0 .81.093 1.104.28a1.7 1.7 0 0 1 .664.768c.149.32.224.691.224 1.112 0 .416-.075.787-.224 1.112-.15.325-.374.581-.672.768-.294.181-.664.272-1.112.272Zm0-.6c.309 0 .56-.069.752-.208.197-.139.341-.325.432-.56.096-.235.144-.496.144-.784 0-.288-.048-.549-.144-.784a1.196 1.196 0 0 0-.432-.56c-.192-.139-.443-.208-.752-.208-.304 0-.555.069-.752.208a1.263 1.263 0 0 0-.432.56 2.154 2.154 0 0 0-.136.784c0 .288.045.549.136.784.096.235.24.421.432.56.197.139.448.208.752.208Zm4.061.552-1.624-4.216h.768l1.328 3.56 1.304-3.56h.776L304.092 187h-.928ZM322.224 187.048c-.421 0-.768-.093-1.04-.28a1.732 1.732 0 0 1-.608-.768 2.873 2.873 0 0 1-.2-1.096c0-.405.067-.771.2-1.096.133-.331.339-.592.616-.784.277-.192.632-.288 1.064-.288.165 0 .331.021.496.064.171.037.331.099.48.184.149.08.277.189.384.328v-1.968h.68V187h-.648l-.032-.632c-.096.16-.219.291-.368.392a1.633 1.633 0 0 1-.48.216 2.056 2.056 0 0 1-.544.072Zm.096-.6c.283 0 .52-.072.712-.216.192-.144.339-.336.44-.576a2 2 0 0 0 .152-.784c0-.293-.051-.555-.152-.784a1.218 1.218 0 0 0-.432-.544c-.192-.133-.435-.2-.728-.2-.304 0-.549.069-.736.208a1.202 1.202 0 0 0-.4.568c-.08.235-.12.499-.12.792 0 .213.021.413.064.6.048.181.12.344.216.488.101.139.232.248.392.328.16.08.357.12.592.12Zm4.868.6c-.448 0-.819-.091-1.112-.272a1.714 1.714 0 0 1-.656-.768 2.72 2.72 0 0 1-.216-1.112c0-.421.075-.792.224-1.112.155-.325.379-.581.672-.768.293-.187.653-.28 1.08-.28a1.748 1.748 0 0 1 1.44.688c.155.208.267.437.336.688.069.245.099.493.088.744l-.016.144c0 .048-.003.096-.008.144h-3.128c.021.245.083.467.184.664.101.197.245.355.432.472.187.112.419.168.696.168.139 0 .277-.016.416-.048.144-.037.272-.099.384-.184a.68.68 0 0 0 .248-.344h.696a1.37 1.37 0 0 1-.36.672 1.688 1.688 0 0 1-.632.384c-.245.08-.501.12-.768.12Zm-1.28-2.496h2.44a1.336 1.336 0 0 0-.16-.632 1.094 1.094 0 0 0-.416-.424 1.19 1.19 0 0 0-.616-.152 1.24 1.24 0 0 0-.664.168 1.157 1.157 0 0 0-.408.44 1.592 1.592 0 0 0-.176.6Zm5.92 2.496c-.442 0-.81-.091-1.104-.272a1.728 1.728 0 0 1-.648-.768 2.8 2.8 0 0 1-.208-1.104c0-.4.072-.763.216-1.088a1.79 1.79 0 0 1 .672-.784c.304-.197.688-.296 1.152-.296.288 0 .544.048.768.144.23.096.419.237.568.424.15.181.254.411.312.688h-.696c-.08-.235-.208-.4-.384-.496a1.17 1.17 0 0 0-.608-.152c-.32 0-.576.075-.768.224a1.31 1.31 0 0 0-.424.584 2.191 2.191 0 0 0-.128.752c0 .277.046.533.136.768.091.235.232.424.424.568.192.139.44.208.744.208.224 0 .435-.048.632-.144.203-.096.336-.267.4-.512h.704a1.375 1.375 0 0 1-.344.712c-.17.187-.381.325-.632.416a2.374 2.374 0 0 1-.784.128Z"/><rect width="322" height="135" x="15" y="20" fill="#fff" rx="8"/><rect width="321.5" height="134.5" x="15.25" y="20.25" stroke="#000" stroke-opacity=".15" stroke-width=".5" rx="7.75"/><path fill="#000" fill-opacity=".8" d="M34.915 67.143c-.687 0-1.277-.155-1.773-.466a3.087 3.087 0 0 1-1.136-1.297c-.264-.551-.397-1.182-.397-1.893 0-.72.136-1.356.407-1.907.27-.554.652-.986 1.145-1.297.492-.31 1.072-.466 1.74-.466.538 0 1.019.1 1.44.3.422.197.762.474 1.02.83.262.358.418.775.467 1.252h-1.344a1.61 1.61 0 0 0-.507-.859c-.262-.24-.613-.36-1.053-.36-.385 0-.722.102-1.011.305-.286.2-.51.486-.67.859-.16.369-.24.806-.24 1.31 0 .518.079.964.236 1.34.157.375.379.666.665.872.29.206.63.31 1.02.31.262 0 .499-.049.71-.144.216-.098.396-.238.541-.42.148-.182.25-.4.31-.656h1.343a2.61 2.61 0 0 1-.448 1.228c-.25.36-.583.644-1.002.85-.415.206-.903.31-1.463.31Zm7.376 0c-.665 0-1.245-.152-1.74-.457a3.082 3.082 0 0 1-1.155-1.279c-.274-.547-.41-1.188-.41-1.92 0-.736.136-1.379.41-1.93.274-.55.659-.979 1.154-1.283.496-.305 1.076-.457 1.74-.457.666 0 1.246.152 1.741.457.496.304.88.732 1.154 1.283.274.551.411 1.194.411 1.93 0 .732-.137 1.372-.41 1.92a3.082 3.082 0 0 1-1.155 1.28c-.495.304-1.075.456-1.74.456Zm.004-1.159c.431 0 .788-.113 1.071-.341.284-.228.493-.531.628-.91.139-.378.208-.795.208-1.25 0-.453-.07-.869-.208-1.247a2.03 2.03 0 0 0-.628-.919c-.283-.23-.64-.346-1.07-.346-.435 0-.795.115-1.08.346-.284.23-.495.537-.633.919a3.674 3.674 0 0 0-.203 1.246c0 .456.067.873.203 1.251.138.379.349.682.632.91.286.228.646.341 1.08.341Zm6.222-3.194V67h-1.38v-7.09h1.325v1.153h.087c.164-.375.42-.677.767-.905.35-.227.792-.341 1.325-.341.483 0 .906.101 1.27.304.362.2.644.499.844.896.2.397.3.888.3 1.473V67h-1.38v-4.344c0-.514-.134-.916-.402-1.205-.268-.292-.635-.439-1.103-.439-.32 0-.605.07-.854.208a1.494 1.494 0 0 0-.586.61c-.142.264-.213.584-.213.96Zm7.77 0V67h-1.38v-7.09h1.324v1.153h.088c.163-.375.419-.677.766-.905.351-.227.793-.341 1.325-.341.484 0 .907.101 1.27.304.363.2.645.499.845.896.2.397.3.888.3 1.473V67h-1.38v-4.344c0-.514-.135-.916-.402-1.205-.268-.292-.636-.439-1.103-.439-.32 0-.605.07-.855.208a1.495 1.495 0 0 0-.586.61c-.142.264-.212.584-.212.96Zm9.445 4.353c-.699 0-1.3-.15-1.805-.448a3.038 3.038 0 0 1-1.163-1.27c-.271-.547-.407-1.189-.407-1.924 0-.727.136-1.367.407-1.92a3.155 3.155 0 0 1 1.145-1.298c.492-.31 1.068-.466 1.726-.466.4 0 .788.066 1.163.198.376.133.713.34 1.011.623.299.284.535.651.707 1.104.172.45.258.995.258 1.639v.489h-5.636v-1.034h4.284c0-.363-.074-.685-.222-.965a1.675 1.675 0 0 0-.623-.67 1.742 1.742 0 0 0-.933-.244c-.387 0-.726.095-1.015.286a1.92 1.92 0 0 0-.665.739c-.154.301-.23.63-.23.983v.808c0 .474.082.877.248 1.21.17.332.405.586.707.761.301.173.654.259 1.057.259.261 0 .5-.037.716-.111a1.483 1.483 0 0 0 .919-.9l1.306.235a2.366 2.366 0 0 1-.564 1.011c-.267.287-.604.51-1.01.67a3.785 3.785 0 0 1-1.38.235Zm7.56 0c-.686 0-1.276-.155-1.772-.466a3.087 3.087 0 0 1-1.136-1.297c-.264-.551-.397-1.182-.397-1.893 0-.72.136-1.356.407-1.907.27-.554.652-.986 1.144-1.297.493-.31 1.073-.466 1.74-.466.54 0 1.02.1 1.441.3.422.197.762.474 1.02.83.262.358.417.775.467 1.252h-1.344a1.61 1.61 0 0 0-.507-.859c-.262-.24-.613-.36-1.053-.36-.385 0-.722.102-1.011.305-.286.2-.51.486-.67.859-.16.369-.24.806-.24 1.31 0 .518.079.964.236 1.34.157.375.379.666.665.872.289.206.63.31 1.02.31.261 0 .498-.049.71-.144.216-.098.396-.238.541-.42.148-.182.25-.4.31-.656h1.343a2.61 2.61 0 0 1-.448 1.228c-.25.36-.583.644-1.002.85-.415.206-.903.31-1.463.31Zm7.7-7.234v1.108h-3.873v-1.108h3.873Zm-2.835-1.699h1.38v6.708c0 .268.04.47.12.605.08.132.184.223.31.272.13.046.27.07.42.07.11 0 .208-.008.29-.024.084-.015.149-.027.195-.037l.25 1.14c-.08.031-.195.062-.343.093a2.696 2.696 0 0 1-.553.055 2.428 2.428 0 0 1-1.016-.194 1.742 1.742 0 0 1-.762-.627c-.194-.284-.29-.639-.29-1.067V58.21Zm9.34 8.79-2.087-7.09h1.426l1.39 5.207h.07l1.393-5.208h1.427l1.385 5.184h.069l1.38-5.184h1.427L93.295 67h-1.408l-1.44-5.12h-.107L88.9 67h-1.404Zm9.19 0v-7.09h1.38V67h-1.38Zm.697-8.185a.877.877 0 0 1-.619-.24.78.78 0 0 1-.254-.582.77.77 0 0 1 .254-.581.868.868 0 0 1 .619-.245c.24 0 .445.081.614.245.172.16.258.354.258.581a.774.774 0 0 1-.258.582.861.861 0 0 1-.614.24Zm5.85 1.094v1.108h-3.873v-1.108h3.873ZM100.4 58.21h1.38v6.708c0 .268.04.47.12.605.08.132.183.223.309.272.129.046.269.07.42.07.111 0 .208-.008.291-.024.083-.015.148-.027.194-.037l.249 1.14a2.702 2.702 0 0 1-.895.148 2.43 2.43 0 0 1-1.016-.194 1.743 1.743 0 0 1-.762-.627c-.194-.284-.29-.639-.29-1.067V58.21Zm5.894 4.58V67h-1.381v-9.455h1.362v3.518h.088c.166-.381.42-.685.762-.91.341-.224.787-.336 1.338-.336.487 0 .911.1 1.274.3.367.2.65.498.85.895.203.394.305.887.305 1.478V67h-1.381v-4.344c0-.52-.134-.923-.401-1.21-.268-.289-.641-.434-1.118-.434-.326 0-.618.07-.877.208a1.495 1.495 0 0 0-.604.61c-.145.264-.217.584-.217.96Zm14.372 1.27v-4.15h1.385V67h-1.357v-1.228h-.074a2.213 2.213 0 0 1-.785.946c-.357.25-.802.374-1.334.374a2.4 2.4 0 0 1-1.21-.3 2.114 2.114 0 0 1-.822-.9c-.197-.397-.295-.888-.295-1.473v-4.51h1.38v4.344c0 .483.134.868.402 1.154.268.287.615.43 1.043.43.259 0 .516-.065.771-.194a1.62 1.62 0 0 0 .642-.587c.172-.261.257-.593.254-.997Zm8.553-2.42-1.251.222a1.472 1.472 0 0 0-.249-.457 1.236 1.236 0 0 0-.453-.356c-.191-.092-.429-.138-.715-.138-.391 0-.717.088-.979.263-.262.172-.392.395-.392.67 0 .236.087.427.263.572.175.145.458.263.849.355l1.127.259c.652.15 1.138.383 1.458.697.32.314.481.722.481 1.223 0 .425-.124.804-.37 1.136-.243.33-.583.588-1.02.776-.434.187-.937.281-1.51.281-.794 0-1.442-.17-1.943-.508-.502-.341-.81-.826-.923-1.454l1.334-.203c.083.348.254.61.512.79.259.175.596.263 1.011.263.453 0 .814-.094 1.085-.282.271-.19.406-.423.406-.697a.725.725 0 0 0-.249-.559c-.163-.15-.414-.264-.753-.341l-1.2-.264c-.662-.15-1.151-.39-1.468-.72-.314-.329-.471-.746-.471-1.25 0-.42.117-.785.351-1.1.234-.313.557-.558.97-.733.412-.179.884-.268 1.417-.268.766 0 1.369.166 1.81.498.44.33.73.771.872 1.325Zm4.712 5.503c-.698 0-1.3-.15-1.805-.448a3.042 3.042 0 0 1-1.163-1.27c-.271-.547-.406-1.189-.406-1.924 0-.727.135-1.367.406-1.92a3.151 3.151 0 0 1 1.145-1.298c.492-.31 1.068-.466 1.726-.466.4 0 .788.066 1.164.198.375.133.712.34 1.011.623.298.284.534.651.706 1.104.172.45.259.995.259 1.639v.489h-5.637v-1.034h4.284c0-.363-.074-.685-.222-.965a1.668 1.668 0 0 0-.623-.67 1.74 1.74 0 0 0-.932-.244c-.388 0-.727.095-1.016.286a1.923 1.923 0 0 0-.665.739 2.13 2.13 0 0 0-.231.983v.808c0 .474.083.877.25 1.21.169.332.404.586.706.761.302.173.654.259 1.057.259.262 0 .5-.037.716-.111a1.482 1.482 0 0 0 .918-.9l1.307.235a2.378 2.378 0 0 1-.563 1.011c-.268.287-.605.51-1.011.67a3.792 3.792 0 0 1-1.381.235Zm4.574-.143v-7.09h1.334v1.126h.074c.129-.382.357-.682.683-.9.33-.222.702-.333 1.118-.333a5.942 5.942 0 0 1 .586.032v1.32a2.506 2.506 0 0 0-.296-.05 2.803 2.803 0 0 0-.424-.033c-.327 0-.617.07-.873.208a1.547 1.547 0 0 0-.822 1.39V67h-1.38Zm8.748-4.593v1.195h-4.191v-1.195h4.191Zm5.215-2.498v1.108h-4.008v-1.108h4.008ZM149.559 67v-7.913c0-.443.097-.81.291-1.103.194-.295.451-.516.771-.66.32-.148.668-.222 1.043-.222.277 0 .514.023.711.07.197.043.343.083.439.12l-.323 1.117a6.75 6.75 0 0 0-.25-.065 1.413 1.413 0 0 0-.369-.041c-.335 0-.575.083-.72.249-.142.166-.212.406-.212.72V67h-1.381Zm4.333 0v-7.09h1.334v1.126h.074c.129-.382.357-.682.683-.9a1.955 1.955 0 0 1 1.117-.333 5.978 5.978 0 0 1 .587.032v1.32a2.506 2.506 0 0 0-.296-.05 2.816 2.816 0 0 0-.425-.033c-.326 0-.617.07-.872.208a1.534 1.534 0 0 0-.6.568c-.148.24-.222.514-.222.822V67h-1.38Zm4.989 0v-7.09h1.38V67h-1.38Zm.697-8.185a.875.875 0 0 1-.618-.24.778.778 0 0 1-.254-.582c0-.227.084-.421.254-.581a.867.867 0 0 1 .618-.245c.24 0 .445.081.614.245.172.16.259.354.259.581a.776.776 0 0 1-.259.582.86.86 0 0 1-.614.24Zm5.596 8.328c-.698 0-1.3-.15-1.805-.448a3.042 3.042 0 0 1-1.163-1.27c-.271-.547-.406-1.189-.406-1.924 0-.727.135-1.367.406-1.92a3.158 3.158 0 0 1 1.145-1.298c.492-.31 1.068-.466 1.727-.466.4 0 .787.066 1.163.198.375.133.712.34 1.011.623.298.284.534.651.706 1.104.173.45.259.995.259 1.639v.489h-5.637v-1.034h4.284c0-.363-.074-.685-.222-.965a1.668 1.668 0 0 0-.623-.67 1.738 1.738 0 0 0-.932-.244c-.388 0-.727.095-1.016.286a1.923 1.923 0 0 0-.665.739 2.13 2.13 0 0 0-.23.983v.808c0 .474.083.877.249 1.21.169.332.405.586.706.761.302.173.654.259 1.057.259.262 0 .5-.037.716-.111a1.496 1.496 0 0 0 .919-.9l1.306.235a2.367 2.367 0 0 1-.563 1.011c-.268.287-.605.51-1.011.67a3.788 3.788 0 0 1-1.381.235Zm5.955-4.353V67h-1.381v-7.09h1.325v1.153h.088c.163-.375.418-.677.766-.905.351-.227.793-.341 1.325-.341.483 0 .906.101 1.27.304.363.2.644.499.844.896.201.397.301.888.301 1.473V67h-1.381v-4.344c0-.514-.134-.916-.401-1.205-.268-.292-.636-.439-1.104-.439-.32 0-.605.07-.854.208a1.497 1.497 0 0 0-.586.61c-.142.264-.212.584-.212.96Zm9.043 4.348a2.746 2.746 0 0 1-1.532-.438c-.447-.296-.798-.716-1.053-1.26-.252-.548-.379-1.205-.379-1.972 0-.766.128-1.422.384-1.966.258-.545.612-.962 1.061-1.251.45-.29.959-.434 1.528-.434.441 0 .794.074 1.062.221.271.145.48.314.628.508.151.194.268.365.351.513h.083v-3.514h1.38V67h-1.348v-1.103h-.115a3.64 3.64 0 0 1-.36.517 2 2 0 0 1-.637.507c-.271.145-.622.217-1.053.217Zm.305-1.177c.397 0 .732-.104 1.006-.314.277-.212.487-.506.628-.881.145-.376.217-.813.217-1.312 0-.492-.071-.923-.212-1.292a1.908 1.908 0 0 0-.623-.863c-.274-.207-.613-.31-1.016-.31-.416 0-.762.108-1.039.324-.277.215-.486.509-.628.881a3.608 3.608 0 0 0-.207 1.26c0 .474.07.9.212 1.28.142.378.351.678.628.9.28.218.625.327 1.034.327Zm6.559-8.416V67h-1.381v-9.455h1.381Zm2.729 12.114c-.206 0-.394-.017-.563-.05a1.766 1.766 0 0 1-.378-.102l.332-1.131c.252.067.477.097.674.087a.808.808 0 0 0 .522-.221c.153-.139.289-.365.406-.679l.171-.47-2.595-7.184h1.477l1.796 5.503h.074l1.796-5.503h1.482l-2.922 8.037c-.136.37-.308.682-.517.938-.21.258-.459.452-.748.581a2.45 2.45 0 0 1-1.007.194ZM35.238 79.91v1.108h-3.873v-1.108h3.873Zm-2.835-1.699h1.38v6.708c0 .268.04.47.12.605.08.132.184.223.31.272.13.046.27.07.42.07.111 0 .208-.008.291-.024.083-.015.148-.027.194-.037l.25 1.14a2.696 2.696 0 0 1-.896.148 2.428 2.428 0 0 1-1.016-.194 1.742 1.742 0 0 1-.762-.627c-.194-.284-.29-.639-.29-1.067V78.21Zm7.342 8.933c-.699 0-1.3-.15-1.805-.448a3.038 3.038 0 0 1-1.164-1.27c-.27-.547-.406-1.189-.406-1.924 0-.727.136-1.367.406-1.92a3.155 3.155 0 0 1 1.145-1.298c.493-.31 1.068-.466 1.727-.466.4 0 .788.066 1.163.198.376.133.713.34 1.011.623.299.284.534.651.706 1.104.173.45.259.995.259 1.639v.489H37.15v-1.034h4.284c0-.363-.073-.685-.221-.965a1.675 1.675 0 0 0-.623-.67 1.742 1.742 0 0 0-.933-.244c-.388 0-.726.095-1.016.286a1.92 1.92 0 0 0-.664.739c-.154.302-.231.63-.231.983v.808c0 .474.083.877.25 1.21.168.332.404.586.705.761.302.173.654.259 1.058.259.261 0 .5-.037.715-.111a1.485 1.485 0 0 0 .919-.9l1.306.235a2.366 2.366 0 0 1-.563 1.011c-.268.287-.605.51-1.01.67a3.785 3.785 0 0 1-1.381.235Zm5.954-9.597V87h-1.38v-9.454h1.38Zm4.913 9.597c-.699 0-1.3-.15-1.805-.448a3.037 3.037 0 0 1-1.163-1.27c-.271-.547-.407-1.189-.407-1.924 0-.727.136-1.367.407-1.92a3.155 3.155 0 0 1 1.144-1.298c.493-.31 1.068-.466 1.727-.466.4 0 .788.066 1.163.198.376.133.713.34 1.011.623.299.284.534.651.707 1.104.172.45.258.995.258 1.639v.489h-5.637v-1.034h4.285c0-.363-.074-.685-.222-.965a1.675 1.675 0 0 0-.623-.67 1.742 1.742 0 0 0-.933-.244c-.388 0-.726.095-1.015.286a1.921 1.921 0 0 0-.665.739c-.154.302-.231.63-.231.983v.808c0 .474.083.877.25 1.21.169.332.404.586.706.761.301.173.654.259 1.057.259.261 0 .5-.037.715-.111a1.484 1.484 0 0 0 .919-.9l1.306.235a2.366 2.366 0 0 1-.563 1.011c-.267.287-.605.51-1.01.67a3.785 3.785 0 0 1-1.381.235Zm5.954-4.353V87h-1.38v-9.454h1.362v3.517h.087c.166-.381.42-.685.762-.91.342-.224.788-.336 1.339-.336.486 0 .91.1 1.274.3.366.2.65.498.85.895.203.394.304.887.304 1.478V87h-1.38v-4.344c0-.52-.134-.923-.402-1.21-.268-.289-.64-.434-1.117-.434-.326 0-.619.07-.877.208a1.498 1.498 0 0 0-.605.61c-.145.264-.217.584-.217.96Zm9.496 4.353c-.698 0-1.3-.15-1.805-.448a3.037 3.037 0 0 1-1.163-1.27c-.271-.547-.407-1.189-.407-1.924 0-.727.136-1.367.407-1.92a3.155 3.155 0 0 1 1.145-1.298c.492-.31 1.068-.466 1.726-.466.4 0 .788.066 1.164.198.375.133.712.34 1.01.623.3.284.535.651.707 1.104.172.45.258.995.258 1.639v.489h-5.636v-1.034h4.284c0-.363-.074-.685-.222-.965a1.675 1.675 0 0 0-.623-.67 1.742 1.742 0 0 0-.933-.244c-.387 0-.726.095-1.015.286a1.921 1.921 0 0 0-.665.739c-.154.302-.23.63-.23.983v.808c0 .474.082.877.249 1.21.169.332.404.586.706.761.301.173.654.259 1.057.259.262 0 .5-.037.716-.111a1.484 1.484 0 0 0 .919-.9l1.306.235a2.366 2.366 0 0 1-.563 1.011c-.268.287-.605.51-1.011.67a3.785 3.785 0 0 1-1.38.235Zm6.638.014c-.45 0-.856-.083-1.22-.25a2.054 2.054 0 0 1-.862-.733c-.21-.32-.314-.713-.314-1.178 0-.4.076-.729.23-.987.154-.259.362-.464.624-.615.261-.15.554-.264.877-.341.323-.077.652-.135.988-.175l1.034-.12c.264-.034.457-.088.577-.162.12-.074.18-.194.18-.36v-.032c0-.404-.114-.716-.342-.938-.224-.221-.56-.332-1.006-.332-.465 0-.831.103-1.099.31-.265.202-.448.429-.55.678l-1.296-.296c.153-.43.378-.778.674-1.043a2.733 2.733 0 0 1 1.029-.582 4.02 4.02 0 0 1 1.223-.184c.284 0 .584.034.9.101.32.065.62.185.896.36.28.176.51.427.688.753.178.323.268.743.268 1.26V87H74.85v-.97h-.056c-.089.179-.223.355-.401.527a2.134 2.134 0 0 1-.688.43c-.28.113-.616.17-1.007.17Zm.3-1.108c.381 0 .707-.075.978-.226.274-.151.482-.348.624-.591.144-.246.216-.51.216-.79v-.914c-.049.05-.144.096-.286.139a4.46 4.46 0 0 1-.475.106l-.522.079-.425.055a3.42 3.42 0 0 0-.734.17 1.26 1.26 0 0 0-.526.347c-.13.148-.194.345-.194.59 0 .343.126.601.379.776.252.173.574.259.965.259Zm6.418-8.504V87h-1.38v-9.454h1.38Zm5.167 2.364v1.108H80.71v-1.108h3.874ZM81.75 78.21h1.38v6.708c0 .268.04.47.12.605.08.132.184.223.31.272.129.046.269.07.42.07.11 0 .208-.008.29-.024.084-.015.148-.027.195-.037l.249 1.14a2.31 2.31 0 0 1-.342.093 2.694 2.694 0 0 1-.554.055 2.429 2.429 0 0 1-1.015-.194 1.742 1.742 0 0 1-.762-.627c-.194-.284-.29-.639-.29-1.067V78.21Zm5.894 4.58V87h-1.38v-9.454h1.362v3.517h.087c.167-.381.42-.685.762-.91.342-.224.788-.336 1.339-.336.486 0 .91.1 1.274.3.366.2.65.498.85.895.203.394.304.887.304 1.478V87h-1.38v-4.344c0-.52-.134-.923-.402-1.21-.267-.289-.64-.434-1.117-.434-.326 0-.619.07-.877.208a1.498 1.498 0 0 0-.605.61c-.145.264-.217.584-.217.96Zm9.88 6.87v-9.75h1.349v1.149h.115a3.85 3.85 0 0 1 .346-.513c.151-.194.36-.363.628-.508.268-.147.622-.221 1.062-.221.572 0 1.083.144 1.533.434.449.289.801.706 1.057 1.25.258.545.388 1.201.388 1.967 0 .767-.128 1.424-.384 1.972-.255.544-.606.965-1.052 1.26a2.726 2.726 0 0 1-1.528.438c-.431 0-.784-.072-1.057-.217a2 2 0 0 1-.637-.507 3.844 3.844 0 0 1-.356-.517h-.083v3.762h-1.38Zm1.353-6.206c0 .5.073.936.217 1.312.145.375.354.669.628.881.274.21.609.314 1.006.314.413 0 .758-.109 1.035-.328.277-.221.486-.521.627-.9.145-.378.217-.805.217-1.279 0-.467-.07-.887-.212-1.26a1.934 1.934 0 0 0-.628-.882c-.277-.215-.623-.323-1.039-.323-.4 0-.738.103-1.015.31a1.898 1.898 0 0 0-.623.863c-.142.37-.213.8-.213 1.292Zm8.051-5.908V87h-1.38v-9.454h1.38Zm3.921 9.611c-.449 0-.856-.083-1.219-.25a2.052 2.052 0 0 1-.863-.733c-.209-.32-.314-.713-.314-1.178 0-.4.077-.729.231-.987a1.7 1.7 0 0 1 .623-.615c.262-.15.554-.264.877-.341a8.74 8.74 0 0 1 .988-.175l1.034-.12c.265-.034.457-.088.577-.162.12-.074.18-.194.18-.36v-.032c0-.404-.114-.716-.341-.938-.225-.221-.561-.332-1.007-.332-.464 0-.831.103-1.098.31-.265.202-.448.429-.55.678l-1.297-.296c.154-.43.378-.778.674-1.043a2.733 2.733 0 0 1 1.029-.582 4.023 4.023 0 0 1 1.224-.184c.283 0 .583.034.9.101.32.065.619.185.896.36.28.176.509.427.687.753.179.323.268.743.268 1.26V87H113v-.97h-.055a1.95 1.95 0 0 1-.402.527 2.13 2.13 0 0 1-.688.43c-.28.113-.615.17-1.006.17Zm.3-1.108c.382 0 .708-.075.979-.226.274-.151.481-.348.623-.591a1.53 1.53 0 0 0 .217-.79v-.914c-.049.05-.145.096-.286.139a4.47 4.47 0 0 1-.476.106c-.178.028-.352.054-.522.079l-.424.055c-.268.034-.513.09-.734.17-.219.08-.394.196-.527.347-.129.148-.193.345-.193.59 0 .343.126.601.378.776.252.173.574.259.965.259Zm8.348-6.14v1.108h-3.874v-1.108h3.874Zm-2.835-1.699h1.381v6.708c0 .268.04.47.12.605.08.132.183.223.309.272.129.046.269.07.42.07.111 0 .208-.008.291-.024.083-.015.148-.027.194-.037l.249 1.14a2.686 2.686 0 0 1-.896.148 2.426 2.426 0 0 1-1.015-.194 1.743 1.743 0 0 1-.762-.627c-.194-.284-.291-.639-.291-1.067V78.21Zm7.736 1.7v1.107h-4.007v-1.108h4.007ZM121.49 87v-7.913c0-.443.097-.81.291-1.103.194-.295.451-.515.771-.66.32-.148.668-.222 1.043-.222.277 0 .514.023.711.07.197.043.343.083.438.12l-.323 1.117a6.151 6.151 0 0 0-.249-.065 1.424 1.424 0 0 0-.369-.041c-.336 0-.576.083-.72.249-.142.166-.213.406-.213.72V87h-1.38Zm7.04.143c-.665 0-1.245-.152-1.74-.457a3.081 3.081 0 0 1-1.155-1.279c-.273-.547-.41-1.188-.41-1.92 0-.736.137-1.379.41-1.93.274-.55.659-.978 1.155-1.283.495-.305 1.075-.457 1.74-.457s1.245.152 1.74.457c.496.305.881.732 1.155 1.283.273.551.41 1.194.41 1.93 0 .732-.137 1.373-.41 1.92a3.081 3.081 0 0 1-1.155 1.28c-.495.304-1.075.456-1.74.456Zm.005-1.159c.43 0 .788-.113 1.071-.341.283-.228.492-.531.627-.91.139-.378.208-.795.208-1.25a3.59 3.59 0 0 0-.208-1.247 2.027 2.027 0 0 0-.627-.919c-.283-.23-.641-.346-1.071-.346-.434 0-.794.115-1.081.346a2.06 2.06 0 0 0-.632.919 3.662 3.662 0 0 0-.203 1.246c0 .456.067.873.203 1.251.138.379.349.682.632.91.287.228.647.341 1.081.341ZM133.376 87v-7.09h1.334v1.126h.074c.129-.382.357-.682.683-.9.33-.222.702-.333 1.118-.333a5.942 5.942 0 0 1 .586.032v1.32a2.467 2.467 0 0 0-.296-.05 2.803 2.803 0 0 0-.424-.033c-.327 0-.617.07-.873.208a1.547 1.547 0 0 0-.822 1.39V87h-1.38Zm4.989 0v-7.09h1.325v1.153h.088c.148-.39.389-.695.725-.914.335-.221.737-.332 1.205-.332.474 0 .871.11 1.191.332.323.222.561.526.715.914h.074c.169-.378.439-.68.808-.905.369-.227.81-.341 1.32-.341.644 0 1.168.201 1.575.605.409.403.614 1.01.614 1.823V87h-1.381v-4.626c0-.48-.131-.828-.392-1.043a1.428 1.428 0 0 0-.937-.323c-.45 0-.799.138-1.048.415-.249.274-.374.627-.374 1.058V87h-1.376v-4.713c0-.385-.12-.694-.36-.928-.24-.234-.552-.351-.937-.351-.262 0-.503.07-.725.208a1.533 1.533 0 0 0-.531.567 1.743 1.743 0 0 0-.198.845V87h-1.381Z"/><path stroke="#000" stroke-linecap="round" stroke-linejoin="round" stroke-opacity=".6" d="M311 48.333c4.583 0 8.333-3.75 8.333-8.333s-3.75-8.333-8.333-8.333-8.333 3.75-8.333 8.333 3.75 8.333 8.333 8.333Z" opacity=".5"/><path stroke="#000" stroke-linecap="round" stroke-linejoin="round" stroke-opacity=".6" d="m308.642 42.358 4.716-4.716M313.358 42.358l-4.716-4.716"/><path fill="#666" fill-opacity=".71" d="M36.045 41.324v-3.87h1.006V44h-1.006v-1.108h-.068a2.148 2.148 0 0 1-.716.848c-.324.23-.733.345-1.227.345-.409 0-.773-.09-1.09-.268a1.88 1.88 0 0 1-.75-.818c-.183-.367-.274-.829-.274-1.385v-4.16h1.006v4.091c0 .478.134.858.4 1.142.27.285.614.427 1.032.427.25 0 .504-.064.763-.192.261-.128.48-.324.656-.588.179-.264.268-.601.268-1.01Zm7.484-2.404-.903.256a1.683 1.683 0 0 0-.251-.439 1.219 1.219 0 0 0-.444-.358c-.187-.093-.427-.14-.72-.14-.4 0-.734.092-1.001.277-.264.181-.396.413-.396.694 0 .25.09.448.272.593.182.144.466.265.853.362l.971.238c.585.142 1.022.36 1.308.652.287.29.43.664.43 1.121 0 .375-.107.71-.323 1.006a2.147 2.147 0 0 1-.895.699c-.383.17-.83.255-1.338.255-.668 0-1.22-.145-1.658-.434-.437-.29-.714-.713-.83-1.27l.954-.239c.09.352.263.617.516.793.255.176.589.264 1 .264.47 0 .842-.1 1.117-.298.279-.202.418-.444.418-.725a.761.761 0 0 0-.239-.57c-.159-.157-.403-.273-.733-.35l-1.09-.256c-.6-.142-1.04-.362-1.322-.66-.278-.301-.417-.678-.417-1.13 0-.369.104-.696.311-.98.21-.284.496-.507.856-.669a3.008 3.008 0 0 1 1.236-.243c.648 0 1.157.142 1.526.426.372.285.636.66.792 1.125Zm4.378 5.216c-.63 0-1.175-.139-1.632-.417a2.803 2.803 0 0 1-1.053-1.176c-.244-.506-.366-1.094-.366-1.765 0-.67.122-1.261.366-1.772a2.89 2.89 0 0 1 1.032-1.202c.443-.29.96-.435 1.55-.435.342 0 .678.057 1.01.17.333.114.636.3.908.555.273.253.49.588.652 1.005.162.418.243.932.243 1.543v.426h-5.045v-.87h4.022c0-.368-.073-.698-.221-.988a1.67 1.67 0 0 0-.622-.686 1.742 1.742 0 0 0-.946-.251c-.4 0-.748.1-1.04.298-.29.196-.513.452-.67.767a2.253 2.253 0 0 0-.233 1.014v.58c0 .494.085.913.255 1.257.174.34.414.6.72.78a2.11 2.11 0 0 0 1.07.264c.264 0 .503-.037.716-.11.216-.078.402-.191.558-.342.156-.153.277-.343.362-.57l.972.272c-.102.33-.274.62-.516.87-.241.246-.54.44-.895.579a3.318 3.318 0 0 1-1.197.204Zm4.24-.136v-6.545h.972v.988h.068c.12-.324.335-.587.648-.788a1.907 1.907 0 0 1 1.056-.303c.074 0 .166.002.277.005.111.002.195.007.252.012v1.023a2.976 2.976 0 0 0-.235-.038c-.119-.02-.245-.03-.379-.03-.318 0-.602.067-.852.2a1.47 1.47 0 0 0-.801 1.334V44h-1.006Zm7.734-4.21v.937h-3.818v-.937h3.818Zm4.685-2.335v.852h-3.529v-.852h3.529ZM62.094 44v-7.449c0-.375.088-.687.264-.937.176-.25.405-.438.686-.563.282-.125.579-.187.891-.187.247 0 .449.02.605.06.156.04.273.076.35.11l-.29.87a5.07 5.07 0 0 0-.213-.065 1.29 1.29 0 0 0-.35-.038c-.332 0-.572.084-.72.252-.145.167-.217.413-.217.737V44h-1.006Zm3.881 0v-6.545h.972v.988h.068c.12-.324.335-.587.648-.788a1.907 1.907 0 0 1 1.056-.303c.074 0 .167.002.277.005.111.002.195.007.252.012v1.023a2.982 2.982 0 0 0-.235-.038c-.119-.02-.245-.03-.379-.03a1.78 1.78 0 0 0-.852.2 1.47 1.47 0 0 0-.801 1.334V44h-1.006Zm4.465 0v-6.545h1.006V44H70.44Zm.511-7.636a.715.715 0 0 1-.507-.2.644.644 0 0 1-.209-.482c0-.188.07-.348.21-.482a.715.715 0 0 1 .506-.2.7.7 0 0 1 .503.2.638.638 0 0 1 .213.482.638.638 0 0 1-.213.481.7.7 0 0 1-.503.2Zm5.081 7.772c-.63 0-1.175-.139-1.632-.417a2.803 2.803 0 0 1-1.053-1.176c-.244-.506-.366-1.094-.366-1.765 0-.67.122-1.261.366-1.772a2.89 2.89 0 0 1 1.032-1.202c.443-.29.96-.435 1.55-.435.342 0 .678.057 1.01.17.333.114.636.3.908.555.273.253.49.588.652 1.005.162.418.243.932.243 1.543v.426h-5.045v-.87h4.022c0-.368-.073-.698-.221-.988a1.67 1.67 0 0 0-.622-.686 1.742 1.742 0 0 0-.946-.251c-.4 0-.748.1-1.04.298-.29.196-.513.452-.67.767a2.253 2.253 0 0 0-.233 1.014v.58c0 .494.085.913.255 1.257.173.34.413.6.72.78a2.11 2.11 0 0 0 1.07.264c.264 0 .503-.037.716-.11.216-.078.402-.191.558-.342.156-.153.277-.343.362-.57l.972.272c-.102.33-.274.62-.516.87-.241.246-.54.44-.895.579a3.318 3.318 0 0 1-1.197.204Zm5.246-4.074V44h-1.006v-6.545h.972v1.022h.085c.153-.332.386-.6.699-.8.312-.205.716-.308 1.21-.308.443 0 .83.091 1.163.273.333.179.591.452.776.818.184.364.277.824.277 1.38V44h-1.006v-4.09c0-.515-.133-.916-.4-1.203-.267-.29-.634-.434-1.1-.434-.32 0-.608.07-.86.208-.25.14-.448.343-.593.61-.145.267-.217.59-.217.971Zm8.485 4.074a2.563 2.563 0 0 1-1.445-.413c-.417-.278-.744-.67-.98-1.176-.235-.509-.353-1.11-.353-1.803 0-.687.118-1.284.353-1.79.236-.505.564-.896.985-1.171.42-.276.906-.414 1.457-.414.426 0 .763.071 1.01.213.25.14.44.299.571.478.134.176.237.32.311.434h.085v-3.221h1.006V44h-.972v-1.006h-.119c-.074.12-.179.27-.315.452-.136.179-.331.34-.584.482-.253.139-.59.208-1.01.208Zm.136-.903c.404 0 .745-.105 1.023-.315.279-.213.49-.508.635-.883.145-.377.218-.813.218-1.308 0-.488-.072-.916-.214-1.282a1.867 1.867 0 0 0-.63-.861c-.279-.208-.622-.311-1.031-.311-.427 0-.782.11-1.066.328-.281.216-.493.51-.635.882-.139.37-.209.784-.209 1.244 0 .466.071.89.214 1.27.144.378.357.68.639.904.284.221.636.332 1.056.332Zm5.851-7.96V44h-1.005v-8.727h1.005Zm2.49 11.181a2.203 2.203 0 0 1-.733-.119l.256-.886c.244.062.46.085.647.068a.776.776 0 0 0 .5-.251c.147-.148.282-.388.404-.72l.187-.512-2.42-6.58h1.09l1.808 5.216h.068l1.807-5.215h1.091l-2.779 7.5c-.125.338-.28.617-.464.839-.185.225-.4.39-.644.499a1.983 1.983 0 0 1-.818.162Z"/><path fill="#000" fill-opacity=".1" d="M31 104h290v1H31z"/><path stroke="#000" stroke-linecap="round" stroke-linejoin="round" stroke-miterlimit="10" stroke-opacity=".6" d="m310.5 127.501-7 7M310.5 132.636v-5.135h-5.135"/><circle cx="307" cy="131" r="13.5" stroke="#000" stroke-opacity=".6" opacity=".5"/><path fill="#666" fill-opacity=".71" d="m36.557 129.92-.904.256a1.686 1.686 0 0 0-.251-.439 1.222 1.222 0 0 0-.443-.358c-.188-.093-.428-.14-.72-.14-.4 0-.735.092-1.002.277-.264.181-.396.413-.396.694 0 .25.09.448.273.593.181.144.466.265.852.362l.971.238c.586.142 1.022.36 1.309.652.287.29.43.664.43 1.121 0 .375-.108.71-.324 1.006a2.156 2.156 0 0 1-.895.699c-.383.17-.83.255-1.338.255-.667 0-1.22-.145-1.657-.434-.438-.29-.715-.713-.831-1.27l.954-.239c.091.352.263.617.516.793.255.176.59.264 1.001.264.469 0 .841-.099 1.117-.298.278-.202.417-.443.417-.725a.763.763 0 0 0-.238-.571c-.16-.156-.404-.272-.733-.349l-1.091-.256c-.6-.142-1.04-.362-1.321-.66-.279-.302-.418-.678-.418-1.13 0-.369.104-.696.311-.98.21-.284.496-.507.857-.669a3.007 3.007 0 0 1 1.236-.243c.647 0 1.156.142 1.525.426.372.285.637.66.793 1.125Zm4.377 5.216c-.63 0-1.174-.139-1.632-.417a2.807 2.807 0 0 1-1.052-1.176c-.245-.506-.367-1.094-.367-1.765 0-.67.122-1.261.367-1.772a2.888 2.888 0 0 1 1.03-1.202c.444-.29.961-.435 1.552-.435.34 0 .678.057 1.01.171.332.113.635.298.908.554.272.253.49.588.652 1.005.162.418.242.932.242 1.543v.426H38.6v-.869h4.023a2.15 2.15 0 0 0-.222-.989 1.671 1.671 0 0 0-.622-.686 1.748 1.748 0 0 0-.946-.251c-.4 0-.747.099-1.04.298-.29.196-.513.452-.669.767a2.252 2.252 0 0 0-.234 1.014v.58c0 .494.085.913.255 1.257.174.341.414.601.72.78.308.176.664.264 1.07.264.265 0 .503-.037.716-.111.216-.077.402-.19.559-.341a1.55 1.55 0 0 0 .362-.571l.971.273a2.157 2.157 0 0 1-.515.869c-.242.247-.54.441-.895.58a3.326 3.326 0 0 1-1.198.204Zm6.9 0c-.614 0-1.143-.145-1.586-.434a2.832 2.832 0 0 1-1.023-1.198c-.238-.508-.358-1.089-.358-1.743 0-.664.123-1.251.367-1.76.247-.511.59-.91 1.031-1.197.444-.29.96-.435 1.551-.435.46 0 .875.086 1.245.256.369.17.672.409.907.716.236.307.382.665.44 1.074h-1.006a1.557 1.557 0 0 0-.512-.793c-.261-.233-.613-.349-1.056-.349-.393 0-.736.102-1.032.307a1.995 1.995 0 0 0-.686.856c-.162.367-.243.797-.243 1.291 0 .506.08.946.239 1.321.162.375.39.666.682.874.295.207.642.311 1.04.311.26 0 .498-.045.711-.136.213-.091.394-.222.541-.392.148-.171.253-.375.316-.614h1.005a2.332 2.332 0 0 1-.422 1.044 2.357 2.357 0 0 1-.882.733c-.363.179-.787.268-1.27.268Zm8.168-2.812v-3.869h1.006V135h-1.006v-1.108h-.068a2.15 2.15 0 0 1-.716.848c-.324.23-.733.345-1.227.345-.409 0-.773-.089-1.09-.268a1.883 1.883 0 0 1-.75-.818c-.183-.367-.274-.829-.274-1.385v-4.159h1.006v4.09c0 .478.134.858.4 1.143.27.284.614.426 1.032.426.25 0 .504-.064.763-.192.261-.128.48-.324.656-.588.179-.264.268-.601.268-1.01ZM58.85 135v-6.545h.972v.988h.068c.12-.324.335-.586.648-.788a1.905 1.905 0 0 1 1.056-.303 10.848 10.848 0 0 1 .529.017v1.023a3.325 3.325 0 0 0-.234-.038c-.12-.02-.246-.03-.38-.03-.318 0-.602.067-.852.2a1.467 1.467 0 0 0-.801 1.334V135H58.85Zm7.01.136c-.63 0-1.175-.139-1.632-.417a2.806 2.806 0 0 1-1.053-1.176c-.244-.506-.366-1.094-.366-1.765 0-.67.122-1.261.366-1.772.248-.515.591-.915 1.032-1.202.443-.29.96-.435 1.55-.435.342 0 .678.057 1.01.171.333.113.636.298.908.554.273.253.49.588.652 1.005.162.418.243.932.243 1.543v.426h-5.045v-.869h4.023a2.15 2.15 0 0 0-.222-.989 1.67 1.67 0 0 0-.622-.686 1.747 1.747 0 0 0-.946-.251c-.4 0-.747.099-1.04.298-.29.196-.513.452-.669.767a2.252 2.252 0 0 0-.234 1.014v.58c0 .494.085.913.255 1.257.174.341.414.601.72.78.307.176.664.264 1.07.264.264 0 .503-.037.716-.111a1.53 1.53 0 0 0 .558-.341c.156-.153.277-.344.362-.571l.972.273a2.156 2.156 0 0 1-.516.869c-.241.247-.54.441-.894.58a3.326 3.326 0 0 1-1.198.204Z"/></svg>