<svg width="19" height="19" viewBox="0 0 19 19" fill="none" xmlns="http://www.w3.org/2000/svg">
<path d="M6.7777 17.6667H12.2221M6.7777 17.6667V13.1296M6.7777 17.6667H1.93325C1.60188 17.6667 1.33325 17.398 1.33325 17.0667V13.7296C1.33325 13.3983 1.60188 13.1296 1.93325 13.1296H6.7777M12.2221 17.6667V6.77779M12.2221 17.6667H17.0666C17.398 17.6667 17.6666 17.398 17.6666 17.0667V1.93334C17.6666 1.60197 17.398 1.33334 17.0666 1.33334H12.8221C12.4908 1.33334 12.2221 1.60197 12.2221 1.93334V6.77779M12.2221 6.77779H7.3777C7.04633 6.77779 6.7777 7.04642 6.7777 7.37779V13.1296" stroke="black"/>
</svg>
