<svg width="17" height="17" viewBox="0 0 17 17" fill="none" xmlns="http://www.w3.org/2000/svg">
<path d="M15.9854 5.23336C14.7221 2.34916 11.8369 0.333557 8.47977 0.333557C4.23462 0.333557 0.744127 3.55655 0.333374 7.68326" stroke="black" stroke-width="0.5" stroke-linecap="round" stroke-linejoin="round"/>
<path d="M13.392 5.23211H16.0667C16.3981 5.23211 16.6667 4.96348 16.6667 4.63211V1.96558" stroke="black" stroke-width="0.5" stroke-linecap="round" stroke-linejoin="round"/>
<path d="M1.0145 11.7655C2.27782 14.6496 5.16299 16.6653 8.52011 16.6653C12.7653 16.6653 16.2558 13.4423 16.6665 9.31555" stroke="black" stroke-width="0.5" stroke-linecap="round" stroke-linejoin="round"/>
<path d="M3.60803 11.7665H0.933306C0.601935 11.7665 0.333306 12.0351 0.333306 12.3665V15.033" stroke="black" stroke-width="0.5" stroke-linecap="round" stroke-linejoin="round"/>
<path d="M8.47973 9.7238C9.15795 9.7238 9.70775 9.17537 9.70775 8.49885C9.70775 7.82232 9.15795 7.2739 8.47973 7.2739C7.80151 7.2739 7.25171 7.82232 7.25171 8.49885C7.25171 9.17537 7.80151 9.7238 8.47973 9.7238Z" stroke="black" stroke-width="0.5" stroke-linecap="round" stroke-linejoin="round"/>
<path d="M11.6 7.84421L11.1507 6.76193L11.7546 6.0495L10.9359 5.23286L10.2256 5.83838L9.11754 5.38383L8.86275 4.41623H8.06276L7.8041 5.39665L6.72152 5.85186L6.02384 5.23286L5.20516 6.0495L5.80008 6.77991L5.35764 7.86501L4.38647 8.09108V8.90771L5.36935 9.17537L5.82561 10.2551L5.20516 10.9493L6.02384 11.7659L6.75703 11.1699L7.82372 11.6076L8.07054 12.5826H8.88922L9.13668 11.608L10.2217 11.1598C10.4025 11.2887 10.9359 11.7659 10.9359 11.7659L11.7546 10.9493L11.1471 10.2345L11.5966 9.1519L12.5732 8.8984L12.5733 8.09108L11.6 7.84421Z" stroke="black" stroke-width="0.5" stroke-linecap="round" stroke-linejoin="round"/>
</svg>
