<svg width="382" height="362" fill="none" xmlns="http://www.w3.org/2000/svg"><path fill="#fff" d="M0 0h382v362H0z"/><mask id="a" style="mask-type:alpha" maskUnits="userSpaceOnUse" x="0" y="0" width="382" height="362"><path d="M0 8a8 8 0 0 1 8-8h374v362H0V8Z" fill="#EEE"/></mask><g mask="url(#a)"><rect x="303" y="148" width="130" height="101" rx="8" fill="#fff"/><rect x="303.25" y="148.25" width="129.5" height="100.5" rx="7.75" stroke="#000" stroke-opacity=".15" stroke-width=".5"/><rect x="318.125" y="198.125" width="99.75" height=".25" rx=".125" stroke="#000" stroke-opacity=".15" stroke-width=".25"/><path d="M357.805 176.153c.418.003.824.077 1.219.222.398.142.756.375 1.074.699.318.321.571.751.759 1.291.187.54.281 1.207.281 2.003.003.75-.077 1.42-.239 2.011-.159.588-.388 1.085-.686 1.492a3.03 3.03 0 0 1-1.078.929 3.098 3.098 0 0 1-1.419.319c-.551 0-1.04-.108-1.466-.324a2.744 2.744 0 0 1-1.027-.886 2.826 2.826 0 0 1-.482-1.287h1.556c.079.347.241.622.486.827.247.202.558.302.933.302.605 0 1.071-.262 1.398-.788.326-.526.49-1.256.49-2.19h-.06c-.139.25-.32.466-.541.647a2.478 2.478 0 0 1-.754.414 2.705 2.705 0 0 1-.887.145c-.511 0-.971-.122-1.38-.367a2.671 2.671 0 0 1-.968-1.005c-.236-.427-.355-.914-.358-1.462 0-.568.131-1.078.392-1.53a2.857 2.857 0 0 1 1.104-1.074c.472-.264 1.023-.393 1.653-.388Zm.005 1.279a1.591 1.591 0 0 0-1.411.831 1.73 1.73 0 0 0-.209.848c.003.309.073.591.209.844.139.252.328.453.567.6.241.148.517.222.827.222a1.57 1.57 0 0 0 1.163-.499c.151-.159.267-.339.349-.541.086-.201.127-.415.124-.639 0-.298-.071-.574-.213-.827a1.64 1.64 0 0 0-.575-.609 1.522 1.522 0 0 0-.831-.23Zm7.943 7.687a3.69 3.69 0 0 1-1.223-.217 2.873 2.873 0 0 1-1.074-.703c-.318-.327-.571-.76-.759-1.3-.187-.542-.279-1.214-.277-2.015 0-.748.08-1.414.239-1.999.159-.585.388-1.08.686-1.483a3.03 3.03 0 0 1 1.078-.929c.424-.213.897-.32 1.419-.32.549 0 1.034.108 1.458.324.426.216.77.512 1.031.887.261.372.423.792.486 1.261h-1.556a1.411 1.411 0 0 0-.49-.801c-.244-.202-.554-.303-.929-.303-.605 0-1.071.263-1.397.789-.324.525-.488 1.247-.49 2.164h.059c.139-.25.32-.464.541-.643a2.646 2.646 0 0 1 1.641-.563c.511 0 .97.123 1.376.367.41.244.733.581.972 1.01.239.426.357.915.354 1.466a3.007 3.007 0 0 1-.392 1.547 2.857 2.857 0 0 1-1.104 1.074c-.472.261-1.021.39-1.649.387Zm-.009-1.278c.31 0 .587-.075.831-.226.245-.151.438-.354.58-.609.142-.256.211-.543.209-.861a1.706 1.706 0 0 0-.205-.848 1.548 1.548 0 0 0-1.393-.823 1.602 1.602 0 0 0-1.164.499 1.717 1.717 0 0 0-.477 1.185c.003.304.074.583.213.839s.331.46.575.614c.245.153.522.23.831.23Z" fill="#000" fill-opacity=".8"/><path d="M332.751 211.71v-.937h6.546v.937h-2.744v7.79h-1.057v-7.79h-2.745Zm7.361 7.79v-6.545h.971v.988h.069c.119-.324.335-.586.647-.788a1.906 1.906 0 0 1 1.057-.303 10.862 10.862 0 0 1 .529.017v1.023a3.49 3.49 0 0 0-.235-.038 2.292 2.292 0 0 0-.379-.03c-.318 0-.602.067-.852.2a1.468 1.468 0 0 0-.801 1.334v4.142h-1.006Zm6.391.153c-.415 0-.791-.078-1.129-.234a1.942 1.942 0 0 1-.806-.686c-.199-.301-.298-.665-.298-1.091 0-.375.074-.679.221-.912.148-.236.346-.42.593-.554a3.12 3.12 0 0 1 .818-.298 10.1 10.1 0 0 1 .908-.162c.397-.051.72-.09.967-.115.25-.029.432-.075.545-.141.117-.065.175-.179.175-.341v-.034c0-.42-.115-.747-.345-.98-.227-.233-.572-.349-1.036-.349-.48 0-.856.105-1.129.315-.273.21-.464.435-.575.673l-.955-.341c.171-.397.398-.707.682-.929.287-.224.6-.38.938-.468a3.888 3.888 0 0 1 1.005-.137c.211 0 .452.026.725.077.275.048.541.149.797.303.258.153.473.385.643.694.171.31.256.725.256 1.245v4.312h-1.006v-.886h-.051a1.77 1.77 0 0 1-.341.456 1.973 1.973 0 0 1-.635.413c-.264.114-.586.17-.967.17Zm.153-.903c.398 0 .733-.078 1.006-.234a1.597 1.597 0 0 0 .835-1.385v-.921c-.042.051-.136.098-.281.141a4.65 4.65 0 0 1-.494.106 20.745 20.745 0 0 1-.963.128c-.262.034-.506.09-.733.166a1.259 1.259 0 0 0-.546.337c-.136.148-.204.349-.204.605 0 .35.129.614.387.793.262.176.593.264.993.264Zm5.688-3.188v3.938h-1.006v-6.545h.972v1.022h.085a1.88 1.88 0 0 1 .699-.801c.313-.204.716-.307 1.21-.307.444 0 .831.091 1.164.273.332.179.591.452.775.818.185.364.277.824.277 1.381v4.159h-1.005v-4.091c0-.514-.134-.915-.401-1.202-.267-.289-.634-.434-1.099-.434-.321 0-.608.069-.861.209-.25.139-.448.342-.593.609-.144.267-.217.591-.217.971Zm10.65-1.142-.903.256a1.689 1.689 0 0 0-.252-.439 1.209 1.209 0 0 0-.443-.358c-.187-.093-.427-.14-.72-.14-.4 0-.734.092-1.001.277-.264.181-.397.413-.397.694 0 .25.091.448.273.593.182.144.466.265.852.362l.972.238c.585.142 1.021.36 1.308.652.287.29.431.664.431 1.121 0 .375-.108.71-.324 1.006a2.16 2.16 0 0 1-.895.699c-.384.17-.83.255-1.338.255-.668 0-1.22-.145-1.658-.434-.437-.29-.714-.713-.831-1.27l.955-.239c.091.352.263.617.515.793.256.176.59.264 1.002.264.469 0 .841-.099 1.116-.298.279-.202.418-.443.418-.725a.763.763 0 0 0-.239-.571c-.159-.156-.403-.272-.733-.349l-1.091-.256c-.599-.142-1.039-.362-1.321-.66-.278-.302-.417-.678-.417-1.13 0-.369.103-.696.311-.98a2.12 2.12 0 0 1 .856-.669 3.01 3.01 0 0 1 1.236-.243c.648 0 1.156.142 1.526.426.372.285.636.66.792 1.125Zm3.56 5.233c-.415 0-.792-.078-1.13-.234a1.94 1.94 0 0 1-.805-.686c-.199-.301-.298-.665-.298-1.091 0-.375.074-.679.221-.912.148-.236.345-.42.593-.554.247-.133.519-.233.818-.298.301-.068.603-.122.907-.162.398-.051.721-.09.968-.115.25-.029.432-.075.545-.141.117-.065.175-.179.175-.341v-.034c0-.42-.115-.747-.345-.98-.228-.233-.573-.349-1.036-.349-.48 0-.856.105-1.129.315-.273.21-.464.435-.575.673l-.955-.341c.171-.397.398-.707.682-.929.287-.224.599-.38.937-.468a3.896 3.896 0 0 1 1.006-.137c.21 0 .452.026.725.077.275.048.541.149.796.303.259.153.473.385.644.694.17.31.256.725.256 1.245v4.312h-1.006v-.886h-.051a1.77 1.77 0 0 1-.341.456 1.973 1.973 0 0 1-.635.413c-.264.114-.587.17-.967.17Zm.153-.903c.398 0 .733-.078 1.006-.234.275-.157.483-.358.622-.605.142-.248.213-.508.213-.78v-.921c-.043.051-.136.098-.281.141-.142.04-.307.075-.495.106a20.68 20.68 0 0 1-.963.128 3.91 3.91 0 0 0-.733.166 1.261 1.261 0 0 0-.545.337c-.136.148-.205.349-.205.605 0 .35.13.614.388.793.261.176.592.264.993.264Zm7.341.886c-.613 0-1.142-.145-1.585-.434a2.837 2.837 0 0 1-1.023-1.198c-.238-.508-.358-1.089-.358-1.743 0-.664.123-1.251.367-1.76.247-.511.591-.91 1.031-1.197.443-.29.96-.435 1.551-.435.46 0 .875.086 1.245.256.369.17.671.409.907.716s.382.665.439 1.074h-1.006a1.553 1.553 0 0 0-.511-.793c-.261-.233-.614-.349-1.057-.349-.392 0-.735.102-1.031.307a1.993 1.993 0 0 0-.686.856c-.162.367-.243.797-.243 1.291 0 .506.08.946.239 1.321.162.375.389.666.682.874.295.207.642.311 1.039.311.262 0 .499-.045.712-.136.213-.091.393-.222.541-.392.148-.171.253-.375.315-.614h1.006a2.329 2.329 0 0 1-1.304 1.777c-.363.179-.787.268-1.27.268Zm6.891-6.681v.852h-3.392v-.852h3.392Zm-2.403-1.569h1.005v6.239c0 .284.041.497.124.639a.637.637 0 0 0 .324.281c.133.046.274.069.422.069.11 0 .201-.006.272-.017l.171-.035.204.904a2.178 2.178 0 0 1-.75.119c-.284 0-.562-.061-.835-.183a1.656 1.656 0 0 1-.673-.558c-.176-.25-.264-.566-.264-.946v-6.512Zm3.916 8.114v-6.545h1.005v6.545h-1.005Zm.511-7.636a.713.713 0 0 1-.507-.201.643.643 0 0 1-.209-.481c0-.188.07-.348.209-.482a.717.717 0 0 1 .507-.2c.196 0 .364.067.503.2a.639.639 0 0 1 .213.482.636.636 0 0 1-.213.481.7.7 0 0 1-.503.201Zm4.995 7.772c-.59 0-1.109-.14-1.555-.422a2.863 2.863 0 0 1-1.04-1.18c-.247-.506-.37-1.097-.37-1.773 0-.681.123-1.277.37-1.785.25-.509.597-.904 1.04-1.185.446-.281.965-.422 1.555-.422.591 0 1.108.141 1.552.422.446.281.792.676 1.039 1.185.25.508.375 1.104.375 1.785 0 .676-.125 1.267-.375 1.773a2.82 2.82 0 0 1-1.039 1.18c-.444.282-.961.422-1.552.422Zm0-.903c.449 0 .819-.115 1.108-.345.29-.23.505-.533.644-.908a3.48 3.48 0 0 0 .209-1.219c0-.437-.07-.845-.209-1.223a2.063 2.063 0 0 0-.644-.916c-.289-.233-.659-.349-1.108-.349-.448 0-.818.116-1.108.349a2.07 2.07 0 0 0-.643.916 3.518 3.518 0 0 0-.209 1.223c0 .438.07.844.209 1.219.139.375.354.678.643.908.29.23.66.345 1.108.345Zm5.507-3.171v3.938h-1.005v-6.545h.971v1.022h.085a1.88 1.88 0 0 1 .699-.801c.313-.204.716-.307 1.21-.307.444 0 .831.091 1.164.273.332.179.591.452.775.818.185.364.277.824.277 1.381v4.159h-1.005v-4.091c0-.514-.134-.915-.401-1.202-.267-.289-.633-.434-1.099-.434-.321 0-.608.069-.861.209-.25.139-.448.342-.592.609-.145.267-.218.591-.218.971Zm10.65-1.142-.903.256a1.713 1.713 0 0 0-.251-.439 1.22 1.22 0 0 0-.444-.358c-.187-.093-.427-.14-.72-.14-.4 0-.734.092-1.001.277-.264.181-.396.413-.396.694 0 .25.09.448.272.593.182.144.466.265.853.362l.971.238c.585.142 1.021.36 1.308.652.287.29.431.664.431 1.121 0 .375-.108.71-.324 1.006a2.153 2.153 0 0 1-.895.699c-.384.17-.83.255-1.338.255-.668 0-1.22-.145-1.658-.434-.437-.29-.714-.713-.831-1.27l.955-.239c.091.352.263.617.515.793.256.176.59.264 1.002.264.469 0 .841-.099 1.116-.298.279-.202.418-.443.418-.725a.763.763 0 0 0-.239-.571c-.159-.156-.403-.272-.733-.349l-1.091-.256c-.599-.142-1.039-.362-1.321-.66-.278-.302-.417-.678-.417-1.13 0-.369.104-.696.311-.98a2.12 2.12 0 0 1 .856-.669 3.01 3.01 0 0 1 1.236-.243c.648 0 1.156.142 1.526.426.372.285.636.66.792 1.125Z" fill="#666"/><rect x="303" y="20" width="130" height="101" rx="8" fill="#fff"/><rect x="303.25" y="20.25" width="129.5" height="100.5" rx="7.75" stroke="#000" stroke-opacity=".15" stroke-width=".5"/><rect x="318.125" y="70.125" width="99.75" height=".25" rx=".125" stroke="#000" stroke-opacity=".15" stroke-width=".25"/><path d="M358.325 48.273V57h-1.581v-7.189h-.051l-2.041 1.304v-1.449l2.169-1.393h1.504Zm5.318 8.846c-.633 0-1.196-.106-1.687-.32-.489-.212-.872-.504-1.151-.873a2.053 2.053 0 0 1-.409-1.266 2.092 2.092 0 0 1 .239-1.01c.162-.306.381-.562.656-.767.279-.207.588-.339.929-.396v-.06a1.848 1.848 0 0 1-1.091-.685 1.982 1.982 0 0 1-.409-1.25c-.003-.448.122-.848.375-1.2.253-.353.6-.63 1.04-.832.44-.204.943-.307 1.508-.307.56 0 1.059.103 1.496.307.441.202.787.479 1.04.831.256.353.383.753.383 1.202 0 .471-.14.888-.421 1.248a1.844 1.844 0 0 1-1.079.687v.06c.341.056.648.188.921.395.276.205.494.46.656.768.165.306.247.643.247 1.01 0 .471-.139.893-.417 1.265-.279.37-.662.66-1.151.874-.486.213-1.044.32-1.675.32Zm0-1.218c.327 0 .611-.056.853-.167.241-.113.429-.272.562-.477.134-.204.202-.44.205-.707a1.318 1.318 0 0 0-.218-.737 1.428 1.428 0 0 0-.575-.508 1.805 1.805 0 0 0-.827-.183c-.312 0-.59.061-.835.183a1.46 1.46 0 0 0-.579.508c-.14.213-.208.458-.205.737-.003.267.063.503.196.707.134.202.321.36.563.473.244.114.531.17.86.17Zm0-3.976c.268 0 .503-.054.708-.162.207-.108.371-.259.49-.452a1.28 1.28 0 0 0 .183-.669 1.242 1.242 0 0 0-.179-.656 1.149 1.149 0 0 0-.486-.44 1.561 1.561 0 0 0-.716-.157c-.275 0-.518.053-.728.158-.208.102-.37.248-.486.439a1.209 1.209 0 0 0-.166.656c-.003.253.054.476.17.67.12.19.283.34.49.45.211.109.451.163.72.163ZM368.607 57l3.712-7.347v-.06h-4.309v-1.32h5.945v1.35L370.248 57h-1.641Zm6.808 0v-8.727h1.581v4.01h.107l3.405-4.01h1.93l-3.375 3.916L382.468 57h-1.901l-2.603-3.742-.968 1.143V57h-1.581Z" fill="#000" fill-opacity=".8"/><path d="M330.58 83.71v-.937h6.545v.937h-2.744v7.79h-1.057v-7.79h-2.744Zm9.75 7.926c-.591 0-1.11-.14-1.556-.421a2.868 2.868 0 0 1-1.04-1.18c-.247-.507-.37-1.097-.37-1.774 0-.681.123-1.277.37-1.785.25-.509.597-.904 1.04-1.185.446-.281.965-.422 1.556-.422.59 0 1.108.14 1.551.422.446.281.792.676 1.039 1.185.25.508.375 1.103.375 1.785 0 .677-.125 1.267-.375 1.773-.247.506-.593.9-1.039 1.18-.443.282-.961.422-1.551.422Zm0-.903c.448 0 .818-.115 1.108-.345.289-.23.504-.533.643-.908a3.48 3.48 0 0 0 .209-1.219c0-.437-.07-.845-.209-1.223a2.064 2.064 0 0 0-.643-.916c-.29-.233-.66-.35-1.108-.35-.449 0-.819.117-1.108.35-.29.233-.505.538-.644.916a3.515 3.515 0 0 0-.209 1.223c0 .438.07.844.209 1.22.139.374.354.677.644.907.289.23.659.345 1.108.345Zm7.347-5.779v.853h-3.392v-.853h3.392Zm-2.403-1.568h1.005v6.239c0 .284.042.497.124.64.085.138.193.232.324.28.133.046.274.069.422.069.111 0 .201-.006.273-.017l.17-.034.205.903a2.096 2.096 0 0 1-.286.077 2.1 2.1 0 0 1-.464.042c-.285 0-.563-.06-.836-.183a1.658 1.658 0 0 1-.673-.558c-.176-.25-.264-.566-.264-.946v-6.512Zm5.842 8.267c-.415 0-.791-.078-1.129-.234a1.941 1.941 0 0 1-.806-.686c-.198-.301-.298-.665-.298-1.091 0-.375.074-.679.222-.912a1.56 1.56 0 0 1 .592-.554c.247-.133.52-.233.818-.298.301-.068.604-.122.908-.162.398-.051.72-.09.967-.115.25-.029.432-.075.546-.14.116-.066.174-.18.174-.342v-.034c0-.42-.115-.747-.345-.98-.227-.233-.572-.35-1.035-.35-.48 0-.857.106-1.13.316-.272.21-.464.435-.575.673l-.954-.34c.17-.398.397-.708.681-.93.287-.224.6-.38.938-.468.341-.091.676-.137 1.006-.137.21 0 .451.026.724.077.276.048.541.15.797.303.258.153.473.385.643.694.171.31.256.725.256 1.245V91.5h-1.006v-.886h-.051a1.768 1.768 0 0 1-.341.456c-.159.162-.37.3-.635.413-.264.114-.586.17-.967.17Zm.154-.903c.397 0 .732-.078 1.005-.234a1.59 1.59 0 0 0 .835-1.385v-.92c-.042.05-.136.097-.281.14-.142.04-.307.075-.494.106a22.717 22.717 0 0 1-.963.128c-.262.034-.506.09-.733.166a1.267 1.267 0 0 0-.546.337c-.136.148-.204.35-.204.605 0 .35.129.614.388.793.261.176.592.264.993.264Zm5.687-7.977V91.5h-1.005v-8.727h1.005Zm5.354 8.727v-8.727h3.051c.608 0 1.109.105 1.504.315.395.208.689.487.882.84.193.349.29.737.29 1.163 0 .375-.067.685-.2.929a1.56 1.56 0 0 1-.52.58 2.367 2.367 0 0 1-.695.315V87c.267.017.536.11.806.281.27.17.495.415.677.733.182.318.273.708.273 1.168 0 .437-.1.83-.298 1.18-.199.35-.513.627-.942.831-.429.205-.987.307-1.675.307h-3.153Zm1.057-.938h2.096c.69 0 1.181-.133 1.47-.4.293-.27.439-.597.439-.98 0-.296-.075-.568-.226-.818a1.632 1.632 0 0 0-.643-.606 2.02 2.02 0 0 0-.989-.23h-2.147v3.034Zm0-3.954h1.96c.318 0 .605-.063.861-.188.258-.124.463-.3.613-.528.154-.227.23-.494.23-.801 0-.384-.133-.709-.4-.976-.267-.27-.691-.405-1.27-.405h-1.994v2.898Zm8.537 5.045c-.415 0-.791-.078-1.129-.234a1.932 1.932 0 0 1-.805-.686c-.199-.301-.299-.665-.299-1.091 0-.375.074-.679.222-.912.148-.236.345-.42.592-.554.247-.133.52-.233.818-.298.301-.068.604-.122.908-.162.398-.051.72-.09.967-.115.25-.029.432-.075.546-.14.116-.066.175-.18.175-.342v-.034c0-.42-.116-.747-.346-.98-.227-.233-.572-.35-1.035-.35-.48 0-.857.106-1.129.316-.273.21-.465.435-.576.673l-.954-.34c.17-.398.397-.708.682-.93.286-.224.599-.38.937-.468.341-.091.676-.137 1.006-.137.21 0 .451.026.724.077.276.048.541.15.797.303.259.153.473.385.644.694.17.31.255.725.255 1.245V91.5H373.9v-.886h-.052a1.745 1.745 0 0 1-.341.456c-.159.162-.37.3-.634.413-.265.114-.587.17-.968.17Zm.154-.903c.397 0 .733-.078 1.005-.234a1.59 1.59 0 0 0 .622-.606c.142-.247.214-.507.214-.78v-.92c-.043.051-.137.098-.282.14-.142.04-.307.076-.494.107a22.717 22.717 0 0 1-.963.128c-.261.034-.506.09-.733.166a1.267 1.267 0 0 0-.546.337c-.136.148-.204.35-.204.605 0 .35.129.614.388.793.261.176.592.264.993.264Zm5.687-7.977V91.5h-1.005v-8.727h1.005Zm3.769 8.88c-.415 0-.792-.078-1.13-.234a1.939 1.939 0 0 1-.805-.686c-.199-.301-.298-.665-.298-1.091 0-.375.073-.679.221-.912.148-.236.345-.42.593-.554.247-.133.519-.233.818-.298.301-.068.603-.122.907-.162.398-.051.721-.09.968-.115.25-.029.432-.075.545-.14.117-.066.175-.18.175-.342v-.034c0-.42-.115-.747-.345-.98-.228-.233-.573-.35-1.036-.35-.48 0-.856.106-1.129.316-.273.21-.465.435-.575.673l-.955-.34c.171-.398.398-.708.682-.93.287-.224.599-.38.937-.468.341-.091.677-.137 1.006-.137.21 0 .452.026.725.077.275.048.541.15.796.303.259.153.473.385.644.694.17.31.256.725.256 1.245V91.5h-1.006v-.886h-.051a1.768 1.768 0 0 1-.341.456 1.97 1.97 0 0 1-.635.413c-.264.114-.587.17-.967.17Zm.153-.903c.398 0 .733-.078 1.006-.234a1.597 1.597 0 0 0 .835-1.385v-.92c-.043.05-.136.097-.281.14-.142.04-.307.075-.495.106a22.013 22.013 0 0 1-.963.128c-.261.034-.505.09-.733.166a1.263 1.263 0 0 0-.545.337c-.137.148-.205.35-.205.605 0 .35.13.614.388.793.261.176.592.264.993.264Zm5.688-3.188V91.5h-1.006v-6.546h.972v1.023h.085c.153-.332.386-.6.699-.8.312-.205.716-.308 1.21-.308.443 0 .831.091 1.163.273.333.179.591.452.776.818.185.364.277.824.277 1.38v4.16h-1.006v-4.09c0-.515-.133-.916-.4-1.203-.267-.29-.634-.434-1.1-.434-.321 0-.608.07-.861.209-.25.139-.447.342-.592.609-.145.267-.217.59-.217.972Zm8.673 4.074c-.614 0-1.142-.144-1.585-.434a2.823 2.823 0 0 1-1.023-1.198c-.239-.508-.358-1.09-.358-1.743 0-.664.122-1.251.366-1.76.247-.51.591-.91 1.032-1.197.443-.29.96-.435 1.551-.435.46 0 .875.085 1.244.256.369.17.672.41.908.716.236.307.382.665.439 1.074h-1.006a1.562 1.562 0 0 0-.511-.793c-.262-.233-.614-.35-1.057-.35-.392 0-.736.103-1.031.307a2 2 0 0 0-.687.857c-.161.367-.242.797-.242 1.291 0 .506.079.946.238 1.321.162.375.389.666.682.874.295.207.642.311 1.04.311.261 0 .498-.046.711-.136.213-.091.394-.222.542-.392.147-.17.252-.376.315-.614h1.006a2.336 2.336 0 0 1-.422 1.044 2.363 2.363 0 0 1-.882.733c-.364.179-.787.268-1.27.268Zm6.788 0c-.631 0-1.175-.139-1.632-.417a2.807 2.807 0 0 1-1.053-1.176c-.244-.506-.366-1.094-.366-1.765 0-.67.122-1.261.366-1.772a2.894 2.894 0 0 1 1.032-1.202c.443-.29.96-.435 1.551-.435.341 0 .677.057 1.01.17.332.114.635.3.907.555.273.253.491.588.652 1.005.162.418.243.932.243 1.543v.426h-5.045v-.87h4.023c0-.368-.074-.698-.222-.988a1.67 1.67 0 0 0-.622-.686 1.744 1.744 0 0 0-.946-.251c-.401 0-.747.1-1.04.298-.29.196-.513.452-.669.767a2.256 2.256 0 0 0-.234 1.014v.58c0 .494.085.913.255 1.257.174.34.414.6.721.78.306.176.663.264 1.069.264.264 0 .503-.037.716-.11.216-.078.402-.191.558-.342.157-.153.277-.344.362-.57l.972.272c-.102.33-.274.62-.516.87-.241.246-.539.44-.894.579a3.325 3.325 0 0 1-1.198.204Z" fill="#666"/><rect x="20" y="265" width="372" height="240" rx="8" fill="#fff"/><rect x="20.25" y="265.25" width="371.5" height="239.5" rx="7.75" stroke="#000" stroke-opacity=".1" stroke-width=".5"/><path d="M36.959 294v-8.727h3.196c.62 0 1.132.102 1.538.307.406.201.71.475.912.822.202.344.303.732.303 1.163 0 .364-.067.671-.2.921a1.644 1.644 0 0 1-.538.596 2.356 2.356 0 0 1-.733.324v.085c.29.015.573.108.849.282.278.17.508.413.69.728.182.316.273.699.273 1.151 0 .446-.105.847-.316 1.202-.207.352-.528.632-.963.839-.434.205-.99.307-1.666.307h-3.345Zm1.317-1.129h1.9c.63 0 1.082-.122 1.355-.367.273-.244.41-.549.41-.916 0-.276-.07-.528-.21-.758a1.483 1.483 0 0 0-.596-.55 1.904 1.904 0 0 0-.912-.205h-1.947v2.796Zm0-3.823h1.764c.295 0 .56-.057.797-.17a1.4 1.4 0 0 0 .566-.477c.142-.208.214-.452.214-.733 0-.361-.127-.664-.38-.908s-.64-.367-1.163-.367h-1.798v2.655Zm9.253 5.084c-.645 0-1.2-.138-1.666-.413a2.807 2.807 0 0 1-1.074-1.172c-.25-.506-.375-1.098-.375-1.777 0-.671.125-1.261.375-1.773.253-.511.605-.91 1.057-1.197.454-.287.986-.431 1.594-.431.369 0 .727.061 1.074.184.346.122.657.313.933.575.275.261.493.601.652 1.018.159.415.238.919.238 1.513v.452h-5.203v-.955h3.955c0-.335-.068-.632-.205-.89a1.538 1.538 0 0 0-.575-.618 1.603 1.603 0 0 0-.86-.226c-.359 0-.671.088-.938.264a1.773 1.773 0 0 0-.614.682 1.968 1.968 0 0 0-.213.908v.745c0 .438.077.81.23 1.117.156.307.374.541.652.703.278.159.604.239.976.239.241 0 .462-.035.66-.103a1.366 1.366 0 0 0 .848-.831l1.206.218c-.096.355-.27.666-.52.933-.247.264-.558.47-.933.618a3.49 3.49 0 0 1-1.274.217Zm9.127-5.079-1.155.204a1.371 1.371 0 0 0-.23-.422 1.141 1.141 0 0 0-.418-.328 1.515 1.515 0 0 0-.66-.128c-.361 0-.662.081-.904.243-.241.159-.362.365-.362.618a.65.65 0 0 0 .243.528c.162.134.423.243.784.329l1.04.238c.602.139 1.051.354 1.347.644.295.289.443.666.443 1.129 0 .392-.114.741-.341 1.048-.225.304-.538.543-.942.716-.4.173-.865.26-1.393.26-.733 0-1.331-.156-1.794-.469-.464-.315-.748-.762-.853-1.342l1.232-.187c.077.321.234.563.473.728.239.162.55.243.933.243.418 0 .752-.087 1.002-.26.25-.176.374-.39.374-.643a.669.669 0 0 0-.23-.516c-.15-.139-.382-.244-.694-.315l-1.108-.243c-.611-.139-1.063-.361-1.355-.665-.29-.304-.435-.689-.435-1.155 0-.386.108-.724.324-1.014a2.12 2.12 0 0 1 .895-.678 3.28 3.28 0 0 1 1.308-.247c.707 0 1.264.154 1.67.461.407.304.675.711.806 1.223Zm4.584-1.598v1.022h-3.575v-1.022h3.575Zm-2.616-1.569h1.274v6.192c0 .247.037.433.11.558.074.123.17.206.286.252.12.042.249.064.388.064.102 0 .192-.007.268-.022a7.57 7.57 0 0 0 .18-.034l.23 1.053a2.525 2.525 0 0 1-.827.136 2.238 2.238 0 0 1-.938-.179 1.61 1.61 0 0 1-.703-.579c-.179-.262-.268-.59-.268-.985v-6.456ZM65.928 294v-8.727h3.11c.68 0 1.242.123 1.688.37.446.248.78.586 1.001 1.015.222.426.333.906.333 1.44 0 .537-.113 1.02-.337 1.449a2.436 2.436 0 0 1-1.006 1.014c-.446.247-1.007.371-1.683.371h-2.14v-1.117h2.02c.43 0 .778-.074 1.045-.221.267-.151.463-.355.588-.614.125-.258.187-.552.187-.882 0-.33-.062-.622-.187-.878a1.344 1.344 0 0 0-.593-.601c-.266-.145-.619-.217-1.056-.217h-1.654V294h-1.316Zm7.573 0v-6.545h1.232v1.039h.068c.12-.352.33-.629.63-.831a1.808 1.808 0 0 1 1.032-.306 5.058 5.058 0 0 1 .54.029v1.219a2.308 2.308 0 0 0-.272-.047c-.13-.02-.261-.03-.392-.03-.301 0-.57.064-.805.192a1.427 1.427 0 0 0-.759 1.283V294h-1.274Zm7.128.132c-.613 0-1.149-.141-1.606-.422a2.84 2.84 0 0 1-1.066-1.18c-.252-.506-.379-1.097-.379-1.773 0-.679.126-1.273.38-1.781a2.835 2.835 0 0 1 1.065-1.185c.457-.281.993-.422 1.606-.422.614 0 1.15.141 1.607.422.457.281.812.676 1.065 1.185.253.508.38 1.102.38 1.781 0 .676-.127 1.267-.38 1.773a2.84 2.84 0 0 1-1.065 1.18c-.458.281-.993.422-1.607.422Zm.004-1.07c.398 0 .728-.105.99-.315.26-.21.454-.49.579-.839.127-.35.192-.735.192-1.155a3.33 3.33 0 0 0-.192-1.151 1.876 1.876 0 0 0-.58-.848c-.261-.213-.59-.319-.989-.319-.4 0-.732.106-.997.319a1.905 1.905 0 0 0-.583.848c-.125.35-.188.733-.188 1.151 0 .42.063.805.188 1.155.127.349.322.629.583.839.265.21.597.315.998.315Zm6.92 1.066c-.528 0-1-.135-1.415-.405-.412-.273-.736-.661-.972-1.163-.232-.506-.349-1.113-.349-1.82 0-.707.118-1.312.354-1.815.238-.503.565-.888.98-1.155a2.55 2.55 0 0 1 1.41-.401c.407 0 .733.069.98.205.25.133.444.29.58.469.14.179.247.336.324.473h.077v-3.243h1.274V294H89.55v-1.018h-.106a3.383 3.383 0 0 1-.332.477 1.854 1.854 0 0 1-.588.469c-.25.133-.574.2-.972.2Zm.281-1.087c.367 0 .676-.096.93-.29.255-.196.448-.467.579-.813.133-.347.2-.751.2-1.211 0-.454-.065-.852-.196-1.193a1.756 1.756 0 0 0-.575-.797c-.253-.19-.566-.285-.938-.285-.383 0-.703.099-.959.298-.255.199-.448.47-.58.814a3.319 3.319 0 0 0-.191 1.163c0 .438.065.831.196 1.181.13.349.324.626.58.831.258.201.576.302.954.302Zm8.927-1.755v-3.831h1.278V294h-1.253v-1.134h-.068a2.04 2.04 0 0 1-.724.874c-.33.23-.74.345-1.232.345a2.21 2.21 0 0 1-1.116-.277 1.94 1.94 0 0 1-.759-.831c-.182-.366-.273-.819-.273-1.359v-4.163h1.274v4.009c0 .447.124.802.371 1.066s.568.396.963.396c.239 0 .476-.06.712-.179a1.5 1.5 0 0 0 .592-.541c.16-.242.237-.548.235-.92Zm5.747 2.846c-.633 0-1.179-.143-1.636-.43a2.848 2.848 0 0 1-1.049-1.198c-.244-.508-.366-1.091-.366-1.747 0-.665.125-1.251.375-1.76.25-.511.602-.91 1.057-1.197.454-.287.99-.431 1.606-.431.498 0 .941.093 1.33.277.389.182.703.438.942.767.241.33.385.715.43 1.155h-1.24a1.477 1.477 0 0 0-.469-.792c-.241-.222-.565-.333-.971-.333-.355 0-.667.094-.934.281-.264.185-.47.449-.617.793-.148.341-.222.744-.222 1.21 0 .478.072.889.217 1.236.145.347.35.615.614.805.267.191.581.286.942.286.241 0 .46-.044.656-.132.199-.091.365-.22.499-.388.136-.168.231-.369.285-.605h1.24a2.403 2.403 0 0 1-.413 1.133c-.23.333-.539.594-.925.785-.384.19-.834.285-1.351.285Zm7.107-6.677v1.022h-3.575v-1.022h3.575Zm-2.616-1.569h1.274v6.192c0 .247.037.433.111.558a.575.575 0 0 0 .285.252c.119.042.249.064.388.064.102 0 .192-.007.268-.022a6.69 6.69 0 0 0 .179-.034l.23 1.053a2.523 2.523 0 0 1-.826.136 2.239 2.239 0 0 1-.938-.179 1.608 1.608 0 0 1-.703-.579c-.179-.262-.268-.59-.268-.985v-6.456Zm8.825 3.167-1.155.204a1.367 1.367 0 0 0-.23-.422 1.142 1.142 0 0 0-.418-.328 1.513 1.513 0 0 0-.66-.128c-.361 0-.662.081-.904.243-.241.159-.362.365-.362.618a.65.65 0 0 0 .243.528c.162.134.423.243.784.329l1.04.238c.602.139 1.051.354 1.347.644.295.289.443.666.443 1.129 0 .392-.114.741-.341 1.048-.225.304-.539.543-.942.716-.401.173-.865.26-1.393.26-.733 0-1.331-.156-1.794-.469-.464-.315-.748-.762-.853-1.342l1.232-.187c.077.321.234.563.473.728.238.162.55.243.933.243.418 0 .751-.087 1.001-.26.25-.176.375-.39.375-.643a.666.666 0 0 0-.23-.516c-.15-.139-.382-.244-.694-.315l-1.108-.243c-.611-.139-1.063-.361-1.355-.665-.29-.304-.435-.689-.435-1.155 0-.386.108-.724.324-1.014.216-.29.514-.516.895-.678.38-.164.817-.247 1.308-.247.707 0 1.264.154 1.67.461.407.304.675.711.806 1.223Z" fill="#000"/><rect x="133" y="323" width="234" height="3" rx="1.5" fill="#000" fill-opacity=".05"/><rect x="133" y="323" width="105.829" height="3" rx="1.5" fill="#BAB4C8"/><path d="M39.75 328h-2.693v-8.727h2.812c.847 0 1.571.174 2.174.524a3.427 3.427 0 0 1 1.385 1.496c.32.647.481 1.423.481 2.326 0 .909-.162 1.692-.486 2.348a3.458 3.458 0 0 1-1.415 1.509c-.619.349-1.372.524-2.258.524Zm-1.636-.938h1.568c.721 0 1.32-.139 1.794-.417a2.577 2.577 0 0 0 1.06-1.189c.234-.514.35-1.126.35-1.837 0-.704-.115-1.311-.345-1.819a2.539 2.539 0 0 0-1.031-1.176c-.457-.276-1.027-.414-1.709-.414h-1.687v6.852Zm7.431.938v-6.545h1.006V328h-1.006Zm.512-7.636a.714.714 0 0 1-.507-.201.642.642 0 0 1-.21-.481c0-.188.07-.348.21-.482a.717.717 0 0 1 .507-.2c.196 0 .363.067.503.2a.639.639 0 0 1 .213.482.636.636 0 0 1-.213.481.7.7 0 0 1-.503.201ZM48.393 328v-6.545h.972v.988h.068c.12-.324.335-.586.648-.788a1.905 1.905 0 0 1 1.056-.303 10.855 10.855 0 0 1 .529.017v1.023a3.329 3.329 0 0 0-.234-.038c-.12-.02-.246-.03-.38-.03-.318 0-.602.067-.852.2a1.467 1.467 0 0 0-.801 1.334V328h-1.006Zm7.01.136c-.63 0-1.175-.139-1.632-.417a2.806 2.806 0 0 1-1.053-1.176c-.244-.506-.366-1.094-.366-1.765 0-.67.122-1.261.366-1.772.248-.515.591-.915 1.032-1.202.443-.29.96-.435 1.55-.435.342 0 .678.057 1.01.171.333.113.636.298.908.554.273.253.49.588.652 1.005.162.418.243.932.243 1.543v.426h-5.045v-.869h4.023a2.15 2.15 0 0 0-.222-.989 1.67 1.67 0 0 0-.622-.686 1.747 1.747 0 0 0-.946-.251c-.4 0-.747.099-1.04.298-.29.196-.513.452-.669.767a2.25 2.25 0 0 0-.234 1.014v.58c0 .494.085.913.255 1.257.174.341.414.601.72.78.307.176.664.264 1.07.264.264 0 .503-.037.716-.111a1.53 1.53 0 0 0 .558-.341c.157-.153.277-.344.362-.571l.972.273a2.157 2.157 0 0 1-.516.869c-.241.247-.54.441-.895.58a3.327 3.327 0 0 1-1.197.204Zm6.9 0c-.614 0-1.143-.145-1.586-.434a2.833 2.833 0 0 1-1.023-1.198c-.238-.508-.358-1.089-.358-1.743 0-.664.123-1.251.367-1.76.247-.511.59-.91 1.031-1.197.443-.29.96-.435 1.551-.435.46 0 .875.086 1.245.256.369.17.671.409.907.716s.382.665.44 1.074H63.87a1.557 1.557 0 0 0-.511-.793c-.261-.233-.614-.349-1.057-.349-.392 0-.736.102-1.031.307a1.994 1.994 0 0 0-.686.856c-.162.367-.243.797-.243 1.291 0 .506.08.946.239 1.321.161.375.389.666.681.874.296.207.642.311 1.04.311.262 0 .499-.045.712-.136.213-.091.393-.222.541-.392.148-.171.253-.375.315-.614h1.006a2.334 2.334 0 0 1-.422 1.044 2.357 2.357 0 0 1-.882.733c-.364.179-.787.268-1.27.268Zm6.89-6.681v.852H65.8v-.852h3.392Zm-2.404-1.569h1.006v6.239c0 .284.041.497.124.639a.64.64 0 0 0 .324.281c.133.046.274.069.421.069.111 0 .202-.006.273-.017l.17-.035.205.904a2.184 2.184 0 0 1-.75.119c-.284 0-.562-.061-.835-.183a1.657 1.657 0 0 1-.673-.558c-.177-.25-.265-.566-.265-.946v-6.512Zm12.2 1.569a1.338 1.338 0 0 0-.621-1.006c-.364-.239-.81-.358-1.338-.358-.387 0-.725.062-1.015.187a1.618 1.618 0 0 0-.673.516c-.16.219-.239.467-.239.746 0 .233.056.433.166.601.114.164.26.302.435.413.176.108.361.197.554.268.193.069.37.124.533.167l.886.238c.227.06.48.142.759.247.281.106.55.249.805.431.259.179.472.409.64.69.167.281.25.627.25 1.036 0 .471-.123.897-.37 1.278-.244.381-.602.683-1.074.908-.469.224-1.038.336-1.709.336-.625 0-1.166-.1-1.623-.302a2.588 2.588 0 0 1-1.074-.844 2.409 2.409 0 0 1-.439-1.257h1.09c.03.33.14.602.333.818a1.8 1.8 0 0 0 .742.477c.3.103.625.154.971.154.404 0 .766-.065 1.087-.196.321-.134.575-.318.763-.554.187-.239.281-.517.281-.835 0-.29-.08-.526-.243-.708a1.784 1.784 0 0 0-.64-.443 6.627 6.627 0 0 0-.856-.298l-1.074-.307c-.681-.196-1.221-.476-1.619-.84-.398-.363-.596-.839-.596-1.427 0-.489.132-.915.396-1.279.267-.366.625-.65 1.074-.852a3.635 3.635 0 0 1 1.513-.307c.562 0 1.062.101 1.5.303a2.6 2.6 0 0 1 1.04.818c.258.347.394.74.408 1.181H78.99Zm4.67 6.698c-.415 0-.791-.078-1.13-.234a1.94 1.94 0 0 1-.805-.686c-.198-.301-.298-.665-.298-1.091 0-.375.074-.679.222-.912.148-.236.345-.42.592-.554.247-.133.52-.233.818-.298.301-.068.604-.122.908-.162.398-.051.72-.09.967-.115.25-.029.432-.075.546-.141.116-.065.174-.179.174-.341v-.034c0-.42-.115-.747-.345-.98-.227-.233-.572-.349-1.035-.349-.48 0-.857.105-1.13.315-.272.21-.464.435-.575.673l-.954-.341c.17-.397.397-.707.681-.929.287-.224.6-.38.938-.468a3.89 3.89 0 0 1 1.006-.137 4 4 0 0 1 .724.077c.276.048.541.149.797.303.258.153.473.385.643.694.17.31.256.725.256 1.245V328h-1.006v-.886h-.05a1.773 1.773 0 0 1-.342.456c-.159.162-.37.299-.635.413-.264.114-.586.17-.967.17Zm.153-.903c.398 0 .734-.078 1.006-.234a1.601 1.601 0 0 0 .835-1.385v-.921c-.042.051-.136.098-.28.141-.143.04-.308.075-.495.106a20.937 20.937 0 0 1-.963.128 3.89 3.89 0 0 0-.733.166 1.261 1.261 0 0 0-.546.337c-.136.148-.204.349-.204.605 0 .35.13.614.388.793.261.176.592.264.993.264Zm5.688-7.977V328h-1.005v-8.727H89.5Zm4.587 8.863c-.631 0-1.175-.139-1.633-.417a2.806 2.806 0 0 1-1.052-1.176c-.244-.506-.367-1.094-.367-1.765 0-.67.123-1.261.367-1.772.247-.515.59-.915 1.031-1.202.443-.29.96-.435 1.551-.435.341 0 .678.057 1.01.171.333.113.635.298.908.554.273.253.49.588.652 1.005.162.418.243.932.243 1.543v.426H91.75v-.869h4.023a2.15 2.15 0 0 0-.221-.989 1.67 1.67 0 0 0-.623-.686 1.747 1.747 0 0 0-.946-.251c-.4 0-.747.099-1.04.298-.29.196-.512.452-.668.767a2.25 2.25 0 0 0-.235 1.014v.58c0 .494.085.913.256 1.257.173.341.413.601.72.78.307.176.663.264 1.07.264.264 0 .502-.037.716-.111.216-.077.401-.19.558-.341.156-.153.277-.344.362-.571l.972.273a2.157 2.157 0 0 1-.516.869c-.242.247-.54.441-.895.58a3.327 3.327 0 0 1-1.197.204Z" fill="#000" fill-opacity=".8"/><path d="M353.342 321v-.447l1.681-1.84c.197-.215.359-.403.487-.562.128-.16.222-.311.283-.452.063-.143.095-.292.095-.448a.822.822 0 0 0-.477-.768 1.137 1.137 0 0 0-.498-.107 1.04 1.04 0 0 0-.512.122.84.84 0 0 0-.335.336 1.049 1.049 0 0 0-.117.507h-.587a1.43 1.43 0 0 1 .768-1.313c.239-.126.507-.189.803-.189.299 0 .563.063.793.189.231.126.411.296.542.51.131.214.197.452.197.713 0 .188-.034.371-.102.55a2.485 2.485 0 0 1-.348.594c-.164.217-.392.482-.684.795l-1.143 1.223v.04h2.366V321h-3.212Zm5.83.07c-.292 0-.555-.058-.788-.174a1.457 1.457 0 0 1-.562-.478 1.295 1.295 0 0 1-.231-.691h.596a.819.819 0 0 0 .313.572c.188.149.411.224.672.224a1.055 1.055 0 0 0 .942-.55c.094-.172.141-.367.141-.584 0-.222-.048-.42-.146-.594a1.073 1.073 0 0 0-.398-.415 1.127 1.127 0 0 0-.579-.154 1.572 1.572 0 0 0-.48.072c-.164.048-.299.11-.405.186l-.577-.069.308-2.506h2.645v.547h-2.128l-.179 1.501h.03a1.485 1.485 0 0 1 .885-.288 1.565 1.565 0 0 1 1.41.83c.141.257.211.55.211.88 0 .325-.073.615-.219.87a1.602 1.602 0 0 1-.596.602 1.703 1.703 0 0 1-.865.219Zm5.263-1.025v-.268c0-.186.038-.355.114-.51a.919.919 0 0 1 .338-.372.988.988 0 0 1 .542-.142c.215 0 .396.047.542.142a.88.88 0 0 1 .33.372c.075.155.112.324.112.51v.268c0 .186-.038.357-.114.513a.905.905 0 0 1-.333.372.98.98 0 0 1-.537.14 1 1 0 0 1-.544-.14.912.912 0 0 1-.336-.372 1.155 1.155 0 0 1-.114-.513Zm.507-.268v.268c0 .155.036.293.109.416.073.121.199.181.378.181.174 0 .297-.06.368-.181a.797.797 0 0 0 .109-.416v-.268a.82.82 0 0 0-.104-.413c-.07-.122-.194-.184-.373-.184-.174 0-.299.062-.375.184a.768.768 0 0 0-.112.413Zm-3.043-2.645v-.268c0-.186.038-.356.114-.51a.917.917 0 0 1 .339-.373.993.993 0 0 1 .541-.142c.216 0 .397.048.542.142a.891.891 0 0 1 .331.373c.075.154.112.324.112.51v.268c0 .186-.038.356-.115.512a.894.894 0 0 1-.333.373.975.975 0 0 1-.537.139c-.215 0-.396-.046-.544-.139a.929.929 0 0 1-.336-.373 1.151 1.151 0 0 1-.114-.512Zm.507-.268v.268c0 .154.037.293.11.415.073.121.198.182.377.182.174 0 .297-.061.368-.182a.795.795 0 0 0 .11-.415v-.268a.81.81 0 0 0-.105-.413c-.069-.123-.194-.184-.373-.184-.174 0-.299.061-.375.184a.777.777 0 0 0-.112.413Zm-.318 4.136 3.5-5.091h.567l-3.5 5.091h-.567Z" fill="#666"/><rect x="133" y="355" width="234" height="3" rx="1.5" fill="#000" fill-opacity=".05"/><rect x="133" y="355" width="150.513" height="3" rx="1.5" fill="#EFB1EC"/><path d="M44.08 354h-1.057a2.194 2.194 0 0 0-.89-1.381 2.399 2.399 0 0 0-.73-.358 2.929 2.929 0 0 0-.835-.119c-.528 0-1.007.134-1.436.401-.426.267-.765.66-1.018 1.18-.25.52-.375 1.158-.375 1.913 0 .756.125 1.394.375 1.914.253.52.592.913 1.018 1.18.43.267.908.401 1.436.401.29 0 .568-.04.835-.12.267-.079.51-.197.73-.353a2.246 2.246 0 0 0 .89-1.385h1.056c-.079.446-.224.845-.434 1.197a3.274 3.274 0 0 1-1.837 1.458c-.386.127-.8.191-1.24.191-.744 0-1.406-.181-1.986-.545-.58-.364-1.035-.881-1.367-1.551-.333-.671-.5-1.466-.5-2.387 0-.92.167-1.716.5-2.386.332-.67.788-1.188 1.367-1.551.58-.364 1.242-.546 1.986-.546.44 0 .854.064 1.24.192.39.128.74.316 1.053.563a3.2 3.2 0 0 1 .784.895c.21.349.355.748.434 1.197Zm1.57 6v-6.545h.973v.988h.068c.119-.324.335-.586.647-.788a1.905 1.905 0 0 1 1.057-.303 10.855 10.855 0 0 1 .529.017v1.023a3.336 3.336 0 0 0-.235-.038c-.119-.02-.245-.03-.379-.03-.318 0-.602.067-.852.2a1.467 1.467 0 0 0-.801 1.334V360H45.65Zm7.01.136c-.63 0-1.174-.139-1.631-.417a2.806 2.806 0 0 1-1.053-1.176c-.244-.506-.366-1.094-.366-1.765 0-.67.122-1.261.366-1.772.247-.515.591-.915 1.032-1.202.443-.29.96-.435 1.55-.435.342 0 .678.057 1.01.171.333.113.636.298.908.554.273.253.49.588.652 1.005.162.418.243.932.243 1.543v.426h-5.045v-.869h4.022a2.15 2.15 0 0 0-.221-.989 1.67 1.67 0 0 0-.622-.686 1.747 1.747 0 0 0-.946-.251c-.401 0-.748.099-1.04.298-.29.196-.513.452-.67.767a2.25 2.25 0 0 0-.234 1.014v.58c0 .494.086.913.256 1.257.173.341.413.601.72.78.307.176.664.264 1.07.264.264 0 .503-.037.716-.111a1.53 1.53 0 0 0 .558-.341c.156-.153.277-.344.362-.571l.972.273a2.157 2.157 0 0 1-.516.869c-.241.247-.54.441-.895.58a3.327 3.327 0 0 1-1.197.204Zm6.713 0c-.546 0-1.027-.137-1.445-.413-.418-.278-.744-.67-.98-1.176-.236-.509-.354-1.109-.354-1.803 0-.687.118-1.284.354-1.789.236-.506.564-.897.984-1.172.42-.276.906-.414 1.458-.414.426 0 .762.071 1.01.213.25.14.44.299.57.478.134.176.238.321.312.434h.085v-3.221h1.006V360H61.4v-1.006h-.12a6.36 6.36 0 0 1-.315.452c-.136.179-.33.34-.584.482-.252.139-.589.208-1.01.208Zm.136-.903c.403 0 .744-.105 1.023-.315.278-.213.49-.507.635-.882.144-.378.217-.814.217-1.309 0-.488-.071-.916-.213-1.282a1.86 1.86 0 0 0-.63-.861c-.28-.208-.623-.311-1.032-.311-.426 0-.781.109-1.066.328-.28.216-.492.51-.634.882-.14.369-.21.784-.21 1.244 0 .466.072.889.214 1.27.145.378.358.679.64.904.283.221.635.332 1.056.332Zm4.845.767v-6.545h1.006V360h-1.006Zm.511-7.636a.714.714 0 0 1-.507-.201.642.642 0 0 1-.209-.481c0-.188.07-.348.21-.482a.717.717 0 0 1 .506-.2c.196 0 .364.067.503.2a.639.639 0 0 1 .213.482.636.636 0 0 1-.213.481.7.7 0 0 1-.503.201Zm5.183 1.091v.852h-3.392v-.852h3.392Zm-2.403-1.569h1.006v6.239c0 .284.04.497.123.639a.64.64 0 0 0 .324.281c.133.046.274.069.422.069.11 0 .202-.006.273-.017l.17-.035.205.904a2.189 2.189 0 0 1-.75.119c-.285 0-.563-.061-.836-.183a1.657 1.657 0 0 1-.673-.558c-.176-.25-.264-.566-.264-.946v-6.512ZM82.095 354h-1.057a2.195 2.195 0 0 0-.89-1.381 2.399 2.399 0 0 0-.729-.358 2.929 2.929 0 0 0-.835-.119c-.529 0-1.007.134-1.436.401-.426.267-.766.66-1.019 1.18-.25.52-.375 1.158-.375 1.913 0 .756.125 1.394.375 1.914.253.52.593.913 1.019 1.18.429.267.907.401 1.436.401.29 0 .568-.04.835-.12.267-.079.51-.197.729-.353a2.246 2.246 0 0 0 .89-1.385h1.057c-.08.446-.224.845-.434 1.197a3.274 3.274 0 0 1-1.837 1.458c-.386.127-.8.191-1.24.191-.745 0-1.406-.181-1.986-.545-.58-.364-1.035-.881-1.368-1.551-.332-.671-.499-1.466-.499-2.387 0-.92.167-1.716.5-2.386.332-.67.788-1.188 1.367-1.551.58-.364 1.242-.546 1.986-.546.44 0 .853.064 1.24.192.39.128.74.316 1.052.563a3.2 3.2 0 0 1 .784.895c.21.349.356.748.435 1.197Zm3.498 6.153c-.415 0-.791-.078-1.13-.234a1.94 1.94 0 0 1-.805-.686c-.199-.301-.298-.665-.298-1.091 0-.375.074-.679.221-.912.148-.236.346-.42.593-.554.247-.133.52-.233.818-.298.301-.068.603-.122.907-.162.398-.051.72-.09.968-.115.25-.029.432-.075.545-.141.117-.065.175-.179.175-.341v-.034c0-.42-.115-.747-.345-.98-.227-.233-.573-.349-1.036-.349-.48 0-.856.105-1.129.315-.273.21-.464.435-.575.673l-.955-.341c.17-.397.398-.707.682-.929.287-.224.6-.38.938-.468a3.89 3.89 0 0 1 1.005-.137 4 4 0 0 1 .725.077c.275.048.54.149.796.303.26.153.474.385.644.694.17.31.256.725.256 1.245V360h-1.006v-.886h-.051a1.775 1.775 0 0 1-.341.456c-.16.162-.37.299-.635.413-.264.114-.587.17-.967.17Zm.153-.903c.398 0 .733-.078 1.006-.234a1.602 1.602 0 0 0 .835-1.385v-.921c-.043.051-.136.098-.281.141-.142.04-.307.075-.495.106a20.937 20.937 0 0 1-.963.128 3.89 3.89 0 0 0-.733.166 1.261 1.261 0 0 0-.545.337c-.136.148-.205.349-.205.605 0 .35.13.614.388.793.262.176.593.264.993.264Zm4.682.75v-6.545h.972v.988h.068c.12-.324.335-.586.648-.788a1.904 1.904 0 0 1 1.057-.303 10.862 10.862 0 0 1 .528.017v1.023a3.325 3.325 0 0 0-.234-.038c-.12-.02-.246-.03-.38-.03-.318 0-.602.067-.852.2a1.468 1.468 0 0 0-.801 1.334V360h-1.006Zm6.737.136c-.545 0-1.027-.137-1.444-.413-.418-.278-.744-.67-.98-1.176-.236-.509-.354-1.109-.354-1.803 0-.687.118-1.284.354-1.789.236-.506.564-.897.984-1.172.42-.276.906-.414 1.458-.414.426 0 .762.071 1.01.213.25.14.44.299.57.478.134.176.238.321.312.434h.085v-3.221h1.005V360h-.971v-1.006h-.12c-.073.12-.178.27-.315.452a1.87 1.87 0 0 1-.584.482c-.252.139-.59.208-1.01.208Zm.137-.903c.403 0 .744-.105 1.023-.315.278-.213.49-.507.635-.882.144-.378.217-.814.217-1.309 0-.488-.071-.916-.213-1.282a1.862 1.862 0 0 0-.63-.861c-.28-.208-.623-.311-1.032-.311-.426 0-.781.109-1.066.328-.28.216-.492.51-.634.882-.14.369-.21.784-.21 1.244 0 .466.072.889.214 1.27.145.378.358.679.639.904.284.221.636.332 1.057.332Z" fill="#000" fill-opacity=".8"/><path d="M354.923 353.07a1.907 1.907 0 0 1-.626-.12 1.497 1.497 0 0 1-.572-.385c-.172-.182-.31-.428-.415-.738-.104-.312-.157-.703-.157-1.174 0-.45.043-.85.127-1.198a2.71 2.71 0 0 1 .368-.882c.161-.24.355-.423.582-.547.229-.124.486-.187.773-.187.285 0 .539.058.761.172.223.113.406.27.546.472.141.202.232.435.274.699h-.607a1.112 1.112 0 0 0-.328-.569c-.162-.151-.378-.227-.646-.227-.394 0-.705.172-.932.515-.226.343-.339.824-.341 1.444h.04a1.481 1.481 0 0 1 .758-.594c.156-.055.321-.082.495-.082.291 0 .558.073.8.219.242.144.436.344.582.599.146.253.219.544.219.872 0 .315-.071.604-.212.865a1.6 1.6 0 0 1-.594.622 1.677 1.677 0 0 1-.895.224Zm0-.547c.209 0 .396-.052.562-.157.168-.104.299-.244.395-.42.098-.176.147-.371.147-.587 0-.21-.047-.401-.142-.574a1.076 1.076 0 0 0-.385-.415 1.016 1.016 0 0 0-.557-.154c-.157 0-.304.031-.44.094a1.145 1.145 0 0 0-.596.624 1.185 1.185 0 0 0 .054 1.002c.096.176.227.317.393.425.168.108.357.162.569.162Zm2.678.477v-.447l1.681-1.84c.197-.215.359-.403.487-.562.127-.16.222-.311.283-.452.063-.143.095-.292.095-.448a.815.815 0 0 0-.13-.464.838.838 0 0 0-.348-.304 1.13 1.13 0 0 0-.497-.107 1.04 1.04 0 0 0-.512.122.84.84 0 0 0-.335.336 1.049 1.049 0 0 0-.117.507h-.587c0-.298.069-.56.206-.786a1.44 1.44 0 0 1 .562-.527c.239-.126.506-.189.803-.189.298 0 .563.063.793.189.23.126.411.296.542.51.131.214.196.452.196.713 0 .188-.034.371-.102.55a2.42 2.42 0 0 1-.348.594c-.164.217-.391.482-.683.795l-1.144 1.223v.04h2.367V353h-3.212Zm6.834-.955v-.268c0-.186.038-.355.114-.51a.919.919 0 0 1 .338-.372.988.988 0 0 1 .542-.142c.215 0 .396.047.542.142a.88.88 0 0 1 .33.372c.075.155.112.324.112.51v.268c0 .186-.038.357-.114.513a.905.905 0 0 1-.333.372.98.98 0 0 1-.537.14 1 1 0 0 1-.544-.14.912.912 0 0 1-.336-.372 1.155 1.155 0 0 1-.114-.513Zm.507-.268v.268c0 .155.036.293.109.416.073.121.199.181.378.181.174 0 .297-.06.368-.181a.797.797 0 0 0 .109-.416v-.268a.82.82 0 0 0-.104-.413c-.07-.122-.194-.184-.373-.184-.174 0-.299.062-.375.184a.768.768 0 0 0-.112.413Zm-3.043-2.645v-.268c0-.186.038-.356.114-.51a.917.917 0 0 1 .339-.373.993.993 0 0 1 .541-.142c.216 0 .397.048.542.142a.891.891 0 0 1 .331.373c.075.154.112.324.112.51v.268c0 .186-.038.356-.115.512a.894.894 0 0 1-.333.373.975.975 0 0 1-.537.139c-.215 0-.396-.046-.544-.139a.929.929 0 0 1-.336-.373 1.151 1.151 0 0 1-.114-.512Zm.507-.268v.268c0 .154.037.293.11.415.073.121.198.182.377.182.174 0 .297-.061.368-.182a.795.795 0 0 0 .11-.415v-.268a.81.81 0 0 0-.105-.413c-.069-.123-.194-.184-.373-.184-.174 0-.299.061-.375.184a.777.777 0 0 0-.112.413Zm-.318 4.136 3.5-5.091h.567l-3.5 5.091h-.567Z" fill="#666"/><rect x="20" y="20" width="268" height="229" rx="8" fill="#fff"/><rect x="20.5" y="20.5" width="267" height="228" rx="7.5" stroke="#000" stroke-opacity=".1"/><path fill="#F5E6F5" d="M146 110h51v24.297h-51z"/><path d="M156.01 125.133c-.46 0-.873-.084-1.24-.25a2.163 2.163 0 0 1-.88-.71 2.322 2.322 0 0 1-.4-1.09h1.04c.067.333.23.606.49.82.267.213.6.32 1 .32.293 0 .547-.07.76-.21.213-.14.38-.33.5-.57.12-.24.18-.51.18-.81 0-.474-.133-.85-.4-1.13a1.332 1.332 0 0 0-1.02-.43c-.34 0-.633.08-.88.24-.247.16-.427.366-.54.62h-1.01l.6-3.92h3.77v.92h-2.97l-.36 1.88c.153-.18.363-.327.63-.44.267-.114.57-.17.91-.17.48 0 .89.11 1.23.33.34.213.6.503.78.87a2.65 2.65 0 0 1 .28 1.22c0 .48-.103.91-.31 1.29-.207.373-.493.67-.86.89-.367.22-.8.33-1.3.33Zm5.848 0c-.64 0-1.153-.16-1.54-.48-.386-.32-.666-.754-.84-1.3a6.086 6.086 0 0 1-.26-1.84c0-.68.087-1.294.26-1.84.174-.547.454-.98.84-1.3.387-.32.9-.48 1.54-.48s1.15.156 1.53.47c.387.313.667.743.84 1.29.174.546.26 1.166.26 1.86 0 .693-.086 1.313-.26 1.86-.173.546-.453.976-.84 1.29-.38.313-.89.47-1.53.47Zm0-.95c.54 0 .934-.237 1.18-.71.247-.48.37-1.134.37-1.96 0-.827-.126-1.48-.38-1.96-.246-.48-.636-.72-1.17-.72-.533 0-.926.24-1.18.72-.253.48-.38 1.133-.38 1.96 0 .826.127 1.48.38 1.96.254.473.647.71 1.18.71Zm3.999.91c-.2 0-.37-.067-.51-.2a.702.702 0 0 1-.2-.5c0-.194.067-.357.2-.49.14-.14.31-.21.51-.21a.65.65 0 0 1 .49.21c.14.133.21.296.21.49 0 .193-.07.36-.21.5a.668.668 0 0 1-.49.2Zm3.859.04c-.44 0-.813-.09-1.12-.27a2.134 2.134 0 0 1-.73-.73 2.388 2.388 0 0 1-.31-.97h.97c.067.34.2.603.4.79.207.186.474.28.8.28.3 0 .564-.097.79-.29.234-.194.417-.49.55-.89.14-.407.217-.924.23-1.55a1.803 1.803 0 0 1-.69.73c-.306.186-.666.28-1.08.28a2.13 2.13 0 0 1-1.84-1.07c-.2-.334-.3-.73-.3-1.19 0-.407.094-.79.28-1.15.187-.36.454-.654.8-.88.347-.22.754-.33 1.22-.33.487 0 .9.096 1.24.29.34.186.61.443.81.77.2.32.347.68.44 1.08.094.4.14.806.14 1.22 0 .78-.103 1.46-.31 2.04-.206.573-.503 1.023-.89 1.35-.193.16-.406.283-.64.37-.233.08-.486.12-.76.12Zm.04-3.53c.26 0 .49-.064.69-.19a1.41 1.41 0 0 0 .48-.51c.114-.214.17-.444.17-.69a1.404 1.404 0 0 0-.66-1.22c-.2-.12-.43-.18-.69-.18-.266 0-.5.06-.7.18-.193.12-.346.286-.46.5-.106.206-.16.443-.16.71 0 .426.124.766.37 1.02.254.253.574.38.96.38Zm6.739 3.41v-1.4h-3.32v-.84l2.39-4.76h1.05l-2.32 4.67h2.26v-1.9h1v1.9h.91v.93h-.91v1.4h-1.06Zm3.768 0 4.01-7h1.05l-4.01 7h-1.05Zm.5-3.66c-.307 0-.587-.07-.84-.21a1.553 1.553 0 0 1-.6-.59 1.897 1.897 0 0 1-.22-.93c0-.354.073-.657.22-.91.147-.26.35-.464.61-.61.253-.14.533-.21.84-.21.313 0 .593.07.84.21.247.14.443.34.59.6.073.126.127.266.16.42.04.153.06.32.06.5 0 .36-.073.67-.22.93-.147.253-.347.45-.6.59-.247.14-.527.21-.84.21Zm0-.77c.213 0 .4-.08.56-.24.16-.16.24-.397.24-.71 0-.327-.08-.57-.24-.73a.72.72 0 0 0-.55-.25c-.22 0-.41.083-.57.25-.16.16-.24.403-.24.73 0 .313.08.55.24.71.16.16.347.24.56.24Zm4.11 4.55c-.313 0-.597-.07-.85-.21a1.648 1.648 0 0 1-.59-.6 1.877 1.877 0 0 1-.22-.92c0-.354.073-.657.22-.91.153-.26.353-.464.6-.61.253-.14.537-.21.85-.21.307 0 .583.07.83.21.253.14.453.336.6.59.073.133.127.276.16.43.04.153.06.32.06.5 0 .36-.073.67-.22.93a1.501 1.501 0 0 1-.59.58c-.247.146-.53.22-.85.22Zm-.01-.77c.227 0 .417-.08.57-.24.16-.16.24-.4.24-.72 0-.32-.08-.56-.24-.72a.752.752 0 0 0-1.12 0c-.16.16-.24.4-.24.72 0 .313.077.553.23.72.16.16.347.24.56.24Z" fill="#000"/><path d="M165.229 133.297h13.378L171.918 140l-6.689-6.703Z" fill="#F5E6F5"/><path d="M38.74 47.144a4.39 4.39 0 0 1-1.668-.312 4.176 4.176 0 0 1-1.344-.9 4.21 4.21 0 0 1-.888-1.368 4.836 4.836 0 0 1-.312-1.764c0-.648.104-1.236.312-1.764a4.18 4.18 0 0 1 .888-1.38 4.02 4.02 0 0 1 1.344-.888 4.39 4.39 0 0 1 1.668-.312c.608 0 1.168.104 1.68.312.512.2.956.492 1.332.876.384.384.68.844.888 1.38.216.528.324 1.12.324 1.776a4.71 4.71 0 0 1-.324 1.776 3.94 3.94 0 0 1-.888 1.38c-.376.376-.82.668-1.332.876a4.422 4.422 0 0 1-1.68.312Zm0-1.14c.552 0 1.048-.128 1.488-.384.44-.256.788-.624 1.044-1.104.256-.48.384-1.052.384-1.716 0-.68-.128-1.26-.384-1.74a2.648 2.648 0 0 0-1.044-1.092 2.977 2.977 0 0 0-1.488-.372 2.88 2.88 0 0 0-1.476.384c-.44.248-.788.612-1.044 1.092-.256.48-.384 1.056-.384 1.728 0 .664.128 1.236.384 1.716s.604.848 1.044 1.104c.44.256.932.384 1.476.384Zm7.692 1.14c-.488 0-.908-.1-1.26-.3a2.09 2.09 0 0 1-.816-.888c-.192-.392-.288-.86-.288-1.404v-3.504h1.26v3.336c0 .528.12.94.36 1.236.248.296.608.444 1.08.444.488 0 .872-.16 1.152-.48.28-.328.42-.776.42-1.344v-3.192h1.272V47h-1.224l-.024-.888c-.2.328-.472.584-.816.768a2.368 2.368 0 0 1-1.116.264ZM50.985 47v-5.952h1.224l.036 1.008c.2-.36.472-.64.816-.84.352-.208.764-.312 1.236-.312v1.332h-.348c-.568 0-.992.148-1.272.444-.28.288-.42.732-.42 1.332V47h-1.272Zm7.35 0v-8.4h2.7c.593 0 1.097.092 1.513.276.424.176.752.44.984.792.232.352.348.788.348 1.308 0 .632-.164 1.124-.492 1.476-.328.344-.776.576-1.344.696L64.42 47h-1.536l-2.112-3.636h-1.164V47h-1.272Zm1.273-4.716h1.404c.4 0 .716-.052.948-.156.232-.104.392-.252.48-.444.096-.2.144-.436.144-.708 0-.272-.048-.504-.144-.696a.896.896 0 0 0-.48-.456c-.232-.104-.548-.156-.948-.156h-1.404v2.616Zm8.082 4.86c-.584 0-1.1-.132-1.548-.396a2.806 2.806 0 0 1-1.056-1.104c-.248-.472-.372-1.012-.372-1.62 0-.632.124-1.18.372-1.644a2.662 2.662 0 0 1 1.044-1.08c.456-.264.98-.396 1.572-.396.576 0 1.08.128 1.512.384.432.248.768.588 1.008 1.02.248.432.372.924.372 1.476 0 .112-.004.208-.012.288 0 .08-.008.176-.024.288h-4.572c.024.336.108.636.252.9.144.256.34.46.588.612.248.144.532.216.852.216.344 0 .636-.076.876-.228.248-.16.432-.384.552-.672h1.32c-.104.36-.28.688-.528.984-.24.296-.544.532-.912.708-.368.176-.8.264-1.296.264Zm-1.692-3.684h3.3c-.016-.464-.18-.828-.492-1.092-.312-.272-.692-.408-1.14-.408-.4 0-.764.124-1.092.372-.328.248-.52.624-.576 1.128Zm5.659 6.18v-8.592h1.224l.048.9c.208-.304.488-.552.84-.744.352-.2.768-.3 1.248-.3.592 0 1.1.14 1.524.42.424.272.752.644.984 1.116.232.464.348.988.348 1.572a3.62 3.62 0 0 1-.348 1.596 2.777 2.777 0 0 1-.996 1.128c-.424.272-.928.408-1.512.408-.496 0-.924-.1-1.284-.3a2.295 2.295 0 0 1-.804-.756v3.552h-1.272Zm3.096-3.612c.368 0 .688-.088.96-.264.272-.176.484-.416.636-.72.152-.304.228-.648.228-1.032 0-.4-.08-.748-.24-1.044a1.71 1.71 0 0 0-.636-.708 1.767 1.767 0 0 0-.948-.252c-.352 0-.664.088-.936.264a1.792 1.792 0 0 0-.648.708c-.152.296-.228.644-.228 1.044 0 .368.076.708.228 1.02a1.706 1.706 0 0 0 1.584.984Zm7.095 1.116a3.257 3.257 0 0 1-1.56-.372 2.863 2.863 0 0 1-1.092-1.092c-.264-.472-.396-1.028-.396-1.668 0-.64.136-1.192.408-1.656a2.86 2.86 0 0 1 1.116-1.068 3.243 3.243 0 0 1 1.572-.384c.576 0 1.096.124 1.56.372a2.86 2.86 0 0 1 1.116 1.068c.28.464.42 1.02.42 1.668 0 .608-.136 1.148-.408 1.62a2.901 2.901 0 0 1-1.104 1.116c-.472.264-1.016.396-1.632.396Zm.012-1.104c.352 0 .664-.088.936-.264.28-.176.5-.416.66-.72.16-.312.24-.664.24-1.056 0-.4-.08-.748-.24-1.044a1.63 1.63 0 0 0-.636-.696 1.767 1.767 0 0 0-.948-.252c-.376 0-.7.088-.972.264a1.74 1.74 0 0 0-.612.72 2.419 2.419 0 0 0-.204 1.02c0 .44.08.812.24 1.116.168.304.388.532.66.684.272.152.564.228.876.228Zm4.27.96v-5.952h1.223l.036 1.008c.2-.36.472-.64.816-.84.352-.208.764-.312 1.236-.312v1.332h-.348c-.568 0-.992.148-1.272.444-.28.288-.42.732-.42 1.332V47H86.13Zm6.64 0c-.592 0-1.048-.144-1.368-.432-.32-.288-.48-.76-.48-1.416v-3.036h-.9v-1.068h.9v-1.44h1.272v1.44h1.512v1.068h-1.512v3.036c0 .304.068.508.204.612.136.104.348.156.636.156h.672V47h-.936Zm4.442.144c-.464 0-.888-.08-1.272-.24a2.386 2.386 0 0 1-.936-.708 2 2 0 0 1-.42-1.068h1.284c.056.288.204.524.444.708.24.184.54.276.9.276.32 0 .58-.068.78-.204.2-.144.3-.332.3-.564 0-.2-.068-.356-.204-.468a1.364 1.364 0 0 0-.504-.264 6.09 6.09 0 0 0-.66-.168 7.964 7.964 0 0 1-1.044-.324 2.04 2.04 0 0 1-.78-.528c-.2-.224-.3-.524-.3-.9 0-.368.096-.684.288-.948.2-.272.472-.48.816-.624a2.989 2.989 0 0 1 1.164-.216c.648 0 1.188.164 1.62.492.432.32.672.792.72 1.416h-1.224a.888.888 0 0 0-.36-.648c-.2-.152-.46-.228-.78-.228-.296 0-.536.06-.72.18-.184.112-.276.284-.276.516 0 .16.064.296.192.408.128.104.292.192.492.264.208.064.424.124.648.18a6.82 6.82 0 0 1 1.092.324c.32.128.576.308.768.54.192.232.292.552.3.96 0 .368-.104.692-.312.972-.2.272-.476.484-.828.636-.344.152-.74.228-1.188.228Z" fill="#000" fill-opacity=".9"/><path fill="#F5E6F5" d="M147 197.438h8v51.563h-8z"/><path fill="#EFB1EC" d="M167.355 149h8v100h-8z"/><path fill="#F5E6F5" d="M187.71 178.688h8v70.313h-8zM208.065 214.625h8V249h-8zM228.42 169.312h8V249h-8zM248.776 206.812h8V249h-8zM269.131 192.75h8V249h-8z"/><path d="m35.23 67.2 1.1-2.4-2.13-4.76h.91l1.64 3.86 1.74-3.86h.87l-3.25 7.16h-.88Zm6.838-2.08c-.453 0-.87-.1-1.25-.3a2.334 2.334 0 0 1-.91-.89c-.227-.393-.34-.867-.34-1.42 0-.527.11-.983.33-1.37.227-.387.53-.687.91-.9.387-.213.82-.32 1.3-.32.46 0 .88.1 1.26.3.387.2.697.493.93.88.233.387.35.857.35 1.41 0 .507-.11.957-.33 1.35-.22.393-.527.703-.92.93-.387.22-.83.33-1.33.33Zm0-.73a1.7 1.7 0 0 0 .88-.23c.26-.16.467-.38.62-.66.153-.28.23-.61.23-.99 0-.36-.067-.68-.2-.96-.133-.28-.327-.5-.58-.66-.253-.16-.56-.24-.92-.24-.367 0-.677.083-.93.25-.247.167-.433.39-.56.67-.127.28-.19.593-.19.94 0 .44.08.8.24 1.08.16.273.367.477.62.61.253.127.517.19.79.19Zm5.565.73c-.387 0-.727-.077-1.02-.23-.287-.16-.51-.4-.67-.72-.16-.327-.24-.737-.24-1.23v-2.9h.84v2.81c0 .513.107.9.32 1.16.213.26.533.39.96.39.427 0 .78-.153 1.06-.46.287-.313.43-.757.43-1.33v-2.57h.84V65h-.76l-.05-.89c-.16.313-.39.56-.69.74-.3.18-.64.27-1.02.27Zm3.903-.12v-4.96h.76l.07.95c.153-.327.386-.587.7-.78.313-.193.7-.29 1.16-.29v.88h-.23c-.547 0-.954.147-1.22.44-.267.293-.4.713-.4 1.26V65h-.84Zm7.929.12c-.34 0-.65-.057-.93-.17a1.517 1.517 0 0 1-.67-.51c-.16-.233-.24-.517-.24-.85 0-.387.1-.693.3-.92.2-.233.463-.4.79-.5a3.49 3.49 0 0 1 1.07-.16h1.34c0-.347-.06-.62-.18-.82a.998.998 0 0 0-.45-.43 1.454 1.454 0 0 0-.62-.13c-.327 0-.61.08-.85.24-.233.153-.38.393-.44.72h-.86a1.61 1.61 0 0 1 .36-.91c.207-.247.467-.433.78-.56a2.6 2.6 0 0 1 1.01-.2c.5 0 .903.093 1.21.28.307.18.53.423.67.73s.21.647.21 1.02v1.52c0 .247.03.433.09.56.06.127.213.203.46.23V65c-.22 0-.42-.027-.6-.08a1.157 1.157 0 0 1-.46-.28 1.195 1.195 0 0 1-.26-.52c-.167.28-.397.517-.69.71-.287.193-.633.29-1.04.29Zm.13-.71c.333 0 .613-.083.84-.25.227-.173.397-.393.51-.66.12-.267.18-.543.18-.83v-.01h-1.27c-.233 0-.453.027-.66.08a.962.962 0 0 0-.5.27c-.127.127-.19.307-.19.54 0 .3.107.52.32.66.213.133.47.2.77.2Zm3.933.59v-4.96h.76l.05.89c.16-.313.39-.56.69-.74.3-.18.64-.27 1.02-.27.587 0 1.053.18 1.4.54.353.353.53.9.53 1.64V65h-.84v-2.81c0-.513-.107-.9-.32-1.16-.213-.26-.533-.39-.96-.39-.427 0-.783.157-1.07.47-.28.307-.42.747-.42 1.32V65h-.84Zm7.382.12c-.34 0-.65-.057-.93-.17a1.517 1.517 0 0 1-.67-.51c-.16-.233-.24-.517-.24-.85 0-.387.1-.693.3-.92.2-.233.464-.4.79-.5a3.49 3.49 0 0 1 1.07-.16h1.34c0-.347-.06-.62-.18-.82a.998.998 0 0 0-.45-.43 1.454 1.454 0 0 0-.62-.13c-.326 0-.61.08-.85.24-.233.153-.38.393-.44.72h-.86a1.61 1.61 0 0 1 .36-.91c.207-.247.467-.433.78-.56a2.6 2.6 0 0 1 1.01-.2c.5 0 .904.093 1.21.28.307.18.53.423.67.73s.21.647.21 1.02v1.52c0 .247.03.433.09.56.06.127.214.203.46.23V65c-.22 0-.42-.027-.6-.08a1.157 1.157 0 0 1-.46-.28 1.195 1.195 0 0 1-.26-.52c-.166.28-.396.517-.69.71-.286.193-.633.29-1.04.29Zm.13-.71c.334 0 .614-.083.84-.25.227-.173.397-.393.51-.66.12-.267.18-.543.18-.83v-.01H71.3c-.233 0-.453.027-.66.08a.962.962 0 0 0-.5.27c-.126.127-.19.307-.19.54 0 .3.107.52.32.66.214.133.47.2.77.2Zm3.933.59v-7h.84v7h-.84Zm2.757 2.2 1.1-2.4-2.13-4.76h.91l1.64 3.86 1.74-3.86h.87l-3.25 7.16h-.88Zm6.977-2.2c-.454 0-.81-.11-1.07-.33-.26-.22-.39-.617-.39-1.19v-2.73h-.86v-.71h.86v-1.19h.84v1.19h1.39v.71h-1.39v2.73c0 .313.063.527.19.64.126.107.35.16.67.16h.53V65h-.77Zm2.417-6.06a.59.59 0 0 1-.42-.16.59.59 0 0 1-.16-.42c0-.16.053-.293.16-.4a.59.59 0 0 1 .42-.16c.16 0 .297.053.41.16.113.107.17.24.17.4a.57.57 0 0 1-.17.42.577.577 0 0 1-.41.16Zm-.42 6.06v-4.96h.84V65h-.84Zm4.582.12a2.55 2.55 0 0 1-1.27-.32 2.356 2.356 0 0 1-.89-.9c-.22-.393-.33-.853-.33-1.38 0-.513.107-.963.32-1.35.214-.393.507-.7.88-.92.374-.22.804-.33 1.29-.33.587 0 1.08.153 1.48.46.407.307.664.717.77 1.23h-.86a1.084 1.084 0 0 0-.49-.71 1.602 1.602 0 0 0-.91-.26c-.353 0-.65.087-.89.26-.24.173-.423.403-.55.69-.12.287-.18.597-.18.93 0 .367.07.693.21.98.14.287.33.51.57.67.247.16.527.24.84.24.347 0 .65-.083.91-.25.26-.173.424-.417.49-.73h.86a1.985 1.985 0 0 1-.41.88 2.187 2.187 0 0 1-.78.6c-.313.14-.666.21-1.06.21Zm5.323 0c-.393 0-.746-.067-1.06-.2a1.962 1.962 0 0 1-.76-.58 1.912 1.912 0 0 1-.35-.89h.86c.054.26.19.487.41.68.227.187.53.28.91.28.354 0 .614-.073.78-.22a.712.712 0 0 0 .25-.54c0-.2-.05-.353-.15-.46a.853.853 0 0 0-.42-.24 5.685 5.685 0 0 0-.67-.17c-.28-.06-.553-.14-.82-.24a1.86 1.86 0 0 1-.66-.43c-.173-.18-.26-.417-.26-.71s.074-.55.22-.77c.147-.22.354-.393.62-.52.274-.127.594-.19.96-.19.527 0 .957.133 1.29.4.34.26.537.633.59 1.12h-.83a.84.84 0 0 0-.33-.59c-.18-.147-.423-.22-.73-.22-.3 0-.533.063-.7.19a.607.607 0 0 0-.24.5c0 .133.047.247.14.34.094.093.227.173.4.24.18.067.39.127.63.18.334.067.637.15.91.25.274.1.494.247.66.44.167.187.25.457.25.81a1.31 1.31 0 0 1-.23.79 1.545 1.545 0 0 1-.66.55c-.28.133-.616.2-1.01.2Zm7.977 0c-.46 0-.877-.107-1.25-.32a2.302 2.302 0 0 1-.87-.9c-.213-.393-.32-.853-.32-1.38 0-.52.1-.973.3-1.36.207-.393.493-.697.86-.91.373-.22.807-.33 1.3-.33.467 0 .873.103 1.22.31.347.207.617.487.81.84.2.347.3.737.3 1.17v.22c0 .053-.003.137-.01.25h-3.95c.02.327.097.62.23.88.14.253.327.453.56.6.24.147.513.22.82.22.347 0 .637-.08.87-.24.233-.16.403-.377.51-.65h.83a2.137 2.137 0 0 1-1.18 1.39c-.293.14-.637.21-1.03.21Zm-1.6-3.06h3.12c-.02-.447-.173-.797-.46-1.05-.287-.253-.64-.38-1.06-.38-.4 0-.757.123-1.07.37-.307.24-.483.593-.53 1.06Zm4.329 2.94 1.72-2.48-1.72-2.48h.91l1.39 2.05 1.4-2.05h.9l-1.72 2.48 1.72 2.48h-.9l-1.4-2.05-1.39 2.05h-.91Zm5.48 2.2v-7.16h.76l.08.82c.16-.24.387-.457.68-.65.3-.193.68-.29 1.14-.29.5 0 .934.113 1.3.34.367.227.65.537.85.93.2.393.3.84.3 1.34 0 .493-.1.937-.3 1.33-.2.393-.486.703-.86.93-.366.22-.8.33-1.3.33-.406 0-.77-.083-1.09-.25a1.74 1.74 0 0 1-.72-.7v3.03h-.84Zm2.56-2.81c.34 0 .637-.077.89-.23.254-.16.45-.38.59-.66.147-.287.22-.613.22-.98 0-.353-.07-.67-.21-.95a1.533 1.533 0 0 0-.58-.67 1.616 1.616 0 0 0-.91-.25 1.622 1.622 0 0 0-1.49.89c-.14.28-.21.607-.21.98 0 .347.07.663.21.95.14.28.337.503.59.67.254.167.554.25.9.25Zm5.95.73c-.46 0-.877-.107-1.25-.32a2.302 2.302 0 0 1-.87-.9c-.214-.393-.32-.853-.32-1.38 0-.52.1-.973.3-1.36.206-.393.493-.697.86-.91.373-.22.806-.33 1.3-.33.466 0 .873.103 1.22.31.346.207.616.487.81.84.2.347.3.737.3 1.17v.22c0 .053-.004.137-.01.25h-3.95c.02.327.096.62.23.88.14.253.326.453.56.6.24.147.513.22.82.22.346 0 .636-.08.87-.24.233-.16.403-.377.51-.65h.83a2.137 2.137 0 0 1-1.18 1.39 2.37 2.37 0 0 1-1.03.21Zm-1.6-3.06h3.12c-.02-.447-.174-.797-.46-1.05-.287-.253-.64-.38-1.06-.38-.4 0-.757.123-1.07.37-.307.24-.484.593-.53 1.06Zm5.063 2.94v-4.96h.76l.07.95c.153-.327.387-.587.7-.78.313-.193.7-.29 1.16-.29v.88h-.23c-.547 0-.953.147-1.22.44-.267.293-.4.713-.4 1.26V65h-.84Zm4.143-6.06a.588.588 0 0 1-.42-.16.588.588 0 0 1-.16-.42c0-.16.053-.293.16-.4a.588.588 0 0 1 .42-.16c.16 0 .297.053.41.16.113.107.17.24.17.4a.572.572 0 0 1-.17.42.576.576 0 0 1-.41.16Zm-.42 6.06v-4.96h.84V65h-.84Zm4.533.12c-.46 0-.877-.107-1.25-.32a2.302 2.302 0 0 1-.87-.9c-.214-.393-.32-.853-.32-1.38 0-.52.1-.973.3-1.36.206-.393.493-.697.86-.91.373-.22.806-.33 1.3-.33.466 0 .873.103 1.22.31.346.207.616.487.81.84.2.347.3.737.3 1.17v.22c0 .053-.004.137-.01.25h-3.95c.02.327.096.62.23.88.14.253.326.453.56.6.24.147.513.22.82.22.346 0 .636-.08.87-.24.233-.16.403-.377.51-.65h.83a2.137 2.137 0 0 1-1.18 1.39 2.37 2.37 0 0 1-1.03.21Zm-1.6-3.06h3.12c-.02-.447-.174-.797-.46-1.05-.287-.253-.64-.38-1.06-.38-.4 0-.757.123-1.07.37-.307.24-.484.593-.53 1.06Zm5.063 2.94v-4.96h.76l.05.89c.16-.313.39-.56.69-.74.3-.18.64-.27 1.02-.27.587 0 1.053.18 1.4.54.353.353.53.9.53 1.64V65h-.84v-2.81c0-.513-.107-.9-.32-1.16-.213-.26-.533-.39-.96-.39-.427 0-.783.157-1.07.47-.28.307-.42.747-.42 1.32V65h-.84Zm8.012.12c-.466 0-.89-.107-1.27-.32a2.358 2.358 0 0 1-.89-.9c-.22-.393-.33-.853-.33-1.38 0-.513.107-.963.32-1.35.214-.393.507-.7.88-.92.374-.22.804-.33 1.29-.33.587 0 1.08.153 1.48.46.407.307.664.717.77 1.23h-.86a1.082 1.082 0 0 0-.49-.71 1.602 1.602 0 0 0-.91-.26c-.353 0-.65.087-.89.26-.24.173-.423.403-.55.69-.12.287-.18.597-.18.93 0 .367.07.693.21.98.14.287.33.51.57.67.247.16.527.24.84.24.347 0 .65-.083.91-.25.26-.173.424-.417.49-.73h.86a1.974 1.974 0 0 1-.41.88 2.175 2.175 0 0 1-.78.6c-.313.14-.666.21-1.06.21Zm5.653 0c-.46 0-.876-.107-1.25-.32a2.316 2.316 0 0 1-.87-.9c-.213-.393-.32-.853-.32-1.38 0-.52.1-.973.3-1.36a2.23 2.23 0 0 1 .86-.91c.374-.22.807-.33 1.3-.33.467 0 .874.103 1.22.31.347.207.617.487.81.84.2.347.3.737.3 1.17v.22c0 .053-.003.137-.01.25h-3.95c.02.327.097.62.23.88.14.253.327.453.56.6.24.147.514.22.82.22.347 0 .637-.08.87-.24.234-.16.404-.377.51-.65h.83a2.137 2.137 0 0 1-1.18 1.39c-.293.14-.636.21-1.03.21Zm-1.6-3.06h3.12c-.02-.447-.173-.797-.46-1.05-.286-.253-.64-.38-1.06-.38-.4 0-.756.123-1.07.37-.306.24-.483.593-.53 1.06Z" fill="#000" fill-opacity=".7"/><path d="M39.92 128.24c-.88 0-1.687-.167-2.42-.5a4.505 4.505 0 0 1-1.74-1.44c-.427-.613-.64-1.333-.64-2.16 0-.84.213-1.587.64-2.24.44-.667 1.053-1.133 1.84-1.4-.667-.267-1.193-.667-1.58-1.2a3.156 3.156 0 0 1-.56-1.82c0-.787.2-1.46.6-2.02.413-.56.953-.98 1.62-1.26a5.602 5.602 0 0 1 2.24-.44c.827 0 1.573.147 2.24.44a3.8 3.8 0 0 1 1.6 1.28c.4.56.6 1.227.6 2a3.14 3.14 0 0 1-.58 1.82c-.373.547-.893.947-1.56 1.2.787.267 1.393.733 1.82 1.4.44.667.66 1.413.66 2.24 0 .64-.127 1.213-.38 1.72a3.83 3.83 0 0 1-1.06 1.3c-.44.347-.947.613-1.52.8-.573.187-1.18.28-1.82.28Zm0-1.82c.827 0 1.48-.213 1.96-.64.493-.44.74-1.04.74-1.8 0-.813-.253-1.433-.76-1.86-.493-.427-1.14-.64-1.94-.64-.787 0-1.433.213-1.94.64-.507.427-.76 1.047-.76 1.86 0 .733.233 1.327.7 1.78.467.44 1.133.66 2 .66Zm0-6.6c.667 0 1.22-.193 1.66-.58.453-.387.68-.907.68-1.56 0-.707-.22-1.24-.66-1.6-.44-.373-1-.56-1.68-.56-.68 0-1.24.187-1.68.56-.44.36-.66.893-.66 1.6 0 .653.22 1.173.66 1.56.44.387 1 .58 1.68.58Zm11.797 8.42c-1.28 0-2.307-.32-3.08-.96-.773-.64-1.334-1.507-1.68-2.6-.347-1.093-.52-2.32-.52-3.68 0-1.36.173-2.587.52-3.68.346-1.093.907-1.96 1.68-2.6.773-.64 1.8-.96 3.08-.96s2.3.313 3.06.94c.773.627 1.333 1.487 1.68 2.58.346 1.093.52 2.333.52 3.72s-.173 2.627-.52 3.72c-.347 1.093-.907 1.953-1.68 2.58-.76.627-1.78.94-3.06.94Zm0-1.9c1.08 0 1.867-.473 2.36-1.42.493-.96.74-2.267.74-3.92s-.254-2.96-.76-3.92c-.494-.96-1.274-1.44-2.34-1.44-1.067 0-1.853.48-2.36 1.44-.507.96-.76 2.267-.76 3.92s.253 2.96.76 3.92c.507.947 1.293 1.42 2.36 1.42Zm7.997 1.82c-.4 0-.74-.133-1.02-.4a1.4 1.4 0 0 1-.4-1c0-.387.133-.713.4-.98.28-.28.62-.42 1.02-.42.386 0 .713.14.98.42.28.267.42.593.42.98s-.14.72-.42 1c-.267.267-.594.4-.98.4Zm8.398.08c-.973 0-1.8-.193-2.48-.58a4.72 4.72 0 0 1-1.62-1.54 7.354 7.354 0 0 1-.88-2.16c-.186-.8-.28-1.62-.28-2.46 0-1.547.207-2.9.62-4.06.414-1.16 1.007-2.06 1.78-2.7.387-.333.814-.58 1.28-.74.467-.16.974-.24 1.52-.24.88 0 1.627.18 2.24.54.614.36 1.1.84 1.46 1.44.174.307.307.627.4.96.107.32.18.653.22 1h-1.94c-.12-.693-.386-1.227-.8-1.6-.413-.373-.946-.56-1.6-.56a2.41 2.41 0 0 0-1.58.58c-.466.387-.84.987-1.12 1.8-.266.8-.413 1.833-.44 3.1.307-.587.767-1.067 1.38-1.44.614-.387 1.327-.58 2.14-.58.747 0 1.447.187 2.1.56.667.373 1.2.9 1.6 1.58.4.68.6 1.473.6 2.38 0 .813-.186 1.58-.56 2.3-.373.72-.913 1.3-1.62 1.74-.68.453-1.486.68-2.42.68Zm-.12-1.84c.534 0 1-.12 1.4-.36.4-.253.707-.593.92-1.02.214-.427.32-.9.32-1.42 0-.84-.253-1.513-.76-2.02-.506-.52-1.14-.78-1.9-.78-.52 0-.986.133-1.4.4a2.66 2.66 0 0 0-.94 1.02 2.82 2.82 0 0 0-.34 1.38c0 .533.114 1.013.34 1.44.227.413.547.747.96 1 .414.24.88.36 1.4.36Zm8.737 1.6 8.02-14h2.1l-8.02 14h-2.1Zm1-7.32c-.613 0-1.173-.14-1.68-.42a3.09 3.09 0 0 1-1.2-1.18c-.293-.533-.44-1.153-.44-1.86 0-.707.147-1.313.44-1.82.294-.52.7-.927 1.22-1.22a3.415 3.415 0 0 1 1.68-.42c.627 0 1.187.14 1.68.42.494.28.887.68 1.18 1.2.147.253.254.533.32.84.08.307.12.64.12 1 0 .72-.146 1.34-.44 1.86a3.09 3.09 0 0 1-1.2 1.18c-.493.28-1.053.42-1.68.42Zm0-1.54c.427 0 .8-.16 1.12-.48.32-.32.48-.793.48-1.42 0-.653-.16-1.14-.48-1.46-.306-.333-.673-.5-1.1-.5-.44 0-.82.167-1.14.5-.32.32-.48.807-.48 1.46 0 .627.16 1.1.48 1.42.32.32.694.48 1.12.48Zm8.22 9.1c-.626 0-1.193-.14-1.7-.42a3.28 3.28 0 0 1-1.18-1.2c-.293-.533-.44-1.147-.44-1.84 0-.707.147-1.313.44-1.82.307-.52.707-.927 1.2-1.22a3.455 3.455 0 0 1 1.7-.42c.614 0 1.167.14 1.66.42.507.28.907.673 1.2 1.18.147.267.254.553.32.86.08.307.12.64.12 1 0 .72-.146 1.34-.44 1.86a2.99 2.99 0 0 1-1.18 1.16c-.493.293-1.06.44-1.7.44Zm-.02-1.54c.454 0 .834-.16 1.14-.48.32-.32.48-.8.48-1.44 0-.64-.16-1.12-.48-1.44-.306-.333-.68-.5-1.12-.5-.426 0-.8.167-1.12.5-.32.32-.48.8-.48 1.44 0 .627.154 1.107.46 1.44.32.32.694.48 1.12.48Z" fill="#000"/><path d="M34.84 146v-.89h2.02v-4.92l-1.97.49v-.78l2.42-.9h.56v6.11h1.71v.89h-4.74Zm6.118.08c-.2 0-.37-.067-.51-.2a.7.7 0 0 1-.2-.5c0-.193.067-.357.2-.49.14-.14.31-.21.51-.21a.65.65 0 0 1 .49.21.65.65 0 0 1 .21.49c0 .193-.07.36-.21.5a.667.667 0 0 1-.49.2Zm1.89-.08v-.89h2.02v-4.92l-1.97.49v-.78l2.42-.9h.56v6.11h1.71v.89h-4.74Zm6.548 0 2.88-6.1h-3.92v-.9h5.02v.77l-2.87 6.23h-1.11Zm5.969 0 4.01-7h1.05l-4.01 7h-1.05Zm.5-3.66c-.307 0-.587-.07-.84-.21a1.549 1.549 0 0 1-.6-.59 1.9 1.9 0 0 1-.22-.93c0-.353.073-.657.22-.91.146-.26.35-.463.61-.61.253-.14.533-.21.84-.21.313 0 .593.07.84.21.246.14.443.34.59.6.073.127.126.267.16.42.04.153.06.32.06.5 0 .36-.074.67-.22.93-.147.253-.347.45-.6.59-.247.14-.527.21-.84.21Zm0-.77c.213 0 .4-.08.56-.24.16-.16.24-.397.24-.71 0-.327-.08-.57-.24-.73a.72.72 0 0 0-.55-.25c-.22 0-.41.083-.57.25-.16.16-.24.403-.24.73 0 .313.08.55.24.71.16.16.346.24.56.24Zm4.11 4.55c-.314 0-.597-.07-.85-.21a1.648 1.648 0 0 1-.59-.6 1.877 1.877 0 0 1-.22-.92c0-.353.073-.657.22-.91a1.7 1.7 0 0 1 .6-.61c.253-.14.536-.21.85-.21.306 0 .583.07.83.21.253.14.453.337.6.59.073.133.126.277.16.43.04.153.06.32.06.5 0 .36-.074.67-.22.93a1.495 1.495 0 0 1-.59.58c-.247.147-.53.22-.85.22Zm-.01-.77c.226 0 .416-.08.57-.24.16-.16.24-.4.24-.72 0-.32-.08-.56-.24-.72a.752.752 0 0 0-1.12 0c-.16.16-.24.4-.24.72 0 .313.076.553.23.72.16.16.346.24.56.24Zm5.243.65v-7h1.06v7h-1.06Zm2.321 0v-4.96h1.02l.02.73c.167-.273.397-.483.69-.63.3-.147.617-.22.95-.22.58 0 1.05.183 1.41.55.36.36.54.9.54 1.62V146h-1.06v-2.78c0-.447-.1-.79-.3-1.03-.2-.247-.5-.37-.9-.37-.393 0-.71.137-.95.41-.24.267-.36.637-.36 1.11V146h-1.06Zm7.994.12c-.487 0-.917-.11-1.29-.33a2.354 2.354 0 0 1-.88-.91c-.214-.393-.32-.847-.32-1.36 0-.507.103-.957.31-1.35.206-.393.496-.7.87-.92.373-.22.81-.33 1.31-.33.593 0 1.093.153 1.5.46.413.3.683.723.81 1.27h-1.12c-.06-.247-.2-.447-.42-.6a1.304 1.304 0 0 0-.78-.23c-.314 0-.574.08-.78.24-.207.153-.364.36-.47.62-.1.253-.15.533-.15.84 0 .32.053.61.16.87.113.253.273.457.48.61.213.147.466.22.76.22.3 0 .556-.07.77-.21.213-.147.356-.357.43-.63h1.12a2.19 2.19 0 0 1-.44.92c-.214.26-.48.463-.8.61-.32.14-.677.21-1.07.21Zm3.256-.12v-4.96h1.02l.03.84c.167-.3.393-.533.68-.7a1.99 1.99 0 0 1 1.03-.26v1.11h-.29c-.473 0-.827.123-1.06.37-.233.24-.35.61-.35 1.11V146h-1.06Zm5.689.12c-.487 0-.917-.11-1.29-.33a2.34 2.34 0 0 1-.88-.92 2.857 2.857 0 0 1-.31-1.35c0-.527.103-.983.31-1.37.206-.387.496-.687.87-.9.38-.22.816-.33 1.31-.33.48 0 .9.107 1.26.32.36.207.64.49.84.85.206.36.31.77.31 1.23 0 .093-.004.173-.01.24 0 .067-.007.147-.02.24h-3.81c.02.28.09.53.21.75.12.213.283.383.49.51.206.12.443.18.71.18.286 0 .53-.063.73-.19.206-.133.36-.32.46-.56h1.1c-.087.3-.234.573-.44.82-.2.247-.454.443-.76.59-.307.147-.667.22-1.08.22Zm-1.41-3.07h2.75c-.014-.387-.15-.69-.41-.91a1.394 1.394 0 0 0-.95-.34c-.334 0-.637.103-.91.31-.274.207-.434.52-.48.94Zm6.305 3.07c-.32 0-.613-.057-.88-.17a1.536 1.536 0 0 1-.64-.52c-.16-.227-.24-.5-.24-.82 0-.38.094-.683.28-.91.194-.233.45-.403.77-.51.327-.113.683-.17 1.07-.17h1.26c0-.287-.047-.517-.14-.69a.862.862 0 0 0-.38-.39 1.154 1.154 0 0 0-.56-.13c-.28 0-.527.067-.74.2-.206.127-.337.33-.39.61h-1.07a1.66 1.66 0 0 1 .36-.92c.213-.253.483-.447.81-.58.327-.133.673-.2 1.04-.2.48 0 .877.09 1.19.27.32.173.557.417.71.73.16.313.24.67.24 1.07v1.52c.007.193.047.337.12.43.08.087.22.137.42.15v.91c-.267 0-.5-.03-.7-.09a1.204 1.204 0 0 1-.48-.27 1.347 1.347 0 0 1-.3-.48c-.16.267-.393.493-.7.68-.306.187-.656.28-1.05.28Zm.25-.87c.273 0 .513-.067.72-.2.207-.14.367-.32.48-.54.114-.227.17-.47.17-.73v-.02h-1.18c-.193 0-.376.023-.55.07a.878.878 0 0 0-.41.24c-.1.107-.15.257-.15.45 0 .253.09.44.27.56.18.113.397.17.65.17Zm5.726.87c-.387 0-.74-.067-1.06-.2-.32-.14-.58-.337-.78-.59-.2-.253-.317-.55-.35-.89h1.07c.047.24.17.437.37.59.2.153.45.23.75.23.267 0 .483-.057.65-.17a.554.554 0 0 0 .25-.47.476.476 0 0 0-.17-.39 1.136 1.136 0 0 0-.42-.22c-.167-.053-.35-.1-.55-.14a6.543 6.543 0 0 1-.87-.27 1.7 1.7 0 0 1-.65-.44c-.167-.187-.25-.437-.25-.75 0-.307.08-.57.24-.79.166-.227.393-.4.68-.52.287-.12.61-.18.97-.18.54 0 .99.137 1.35.41.36.267.56.66.6 1.18h-1.02a.74.74 0 0 0-.3-.54c-.167-.127-.383-.19-.65-.19-.247 0-.447.05-.6.15a.469.469 0 0 0-.23.43c0 .133.053.247.16.34.106.087.243.16.41.22.173.053.353.103.54.15.34.073.643.163.91.27.267.107.48.257.64.45.16.193.243.46.25.8 0 .307-.087.577-.26.81a1.64 1.64 0 0 1-.69.53c-.287.127-.617.19-.99.19Zm5.203 0c-.487 0-.917-.11-1.29-.33a2.34 2.34 0 0 1-.88-.92 2.857 2.857 0 0 1-.31-1.35c0-.527.103-.983.31-1.37.207-.387.496-.687.87-.9.38-.22.817-.33 1.31-.33.48 0 .9.107 1.26.32.36.207.64.49.84.85.207.36.31.77.31 1.23 0 .093-.003.173-.01.24 0 .067-.007.147-.02.24h-3.81c.02.28.09.53.21.75.12.213.283.383.49.51.207.12.443.18.71.18.287 0 .53-.063.73-.19.207-.133.36-.32.46-.56h1.1c-.087.3-.233.573-.44.82a2.16 2.16 0 0 1-.76.59c-.307.147-.667.22-1.08.22Zm-1.41-3.07h2.75c-.013-.387-.15-.69-.41-.91a1.394 1.394 0 0 0-.95-.34c-.333 0-.637.103-.91.31-.273.207-.433.52-.48.94Zm6.915 3.07c-.493 0-.92-.117-1.28-.35a2.424 2.424 0 0 1-.82-.95 3.048 3.048 0 0 1-.28-1.32c0-.48.094-.913.28-1.3a2.28 2.28 0 0 1 .82-.93c.36-.233.787-.35 1.28-.35.367 0 .7.077 1 .23.3.147.544.357.73.63V139h1.07v7h-1.03l-.04-.77c-.16.26-.39.473-.69.64a2.1 2.1 0 0 1-1.04.25Zm.21-.93c.314 0 .584-.073.81-.22.227-.147.4-.347.52-.6s.18-.537.18-.85c0-.36-.07-.663-.21-.91a1.406 1.406 0 0 0-.55-.57c-.226-.133-.48-.2-.76-.2-.286 0-.543.07-.77.21-.226.14-.406.333-.54.58-.126.247-.19.54-.19.88 0 .333.067.627.2.88.134.253.314.45.54.59.227.14.484.21.77.21Z" fill="#666"/></g></svg>