<svg width="18" height="18" viewBox="0 0 18 18" fill="none" xmlns="http://www.w3.org/2000/svg">
<path d="M15.75 1.50018L15 2.25018" stroke="black" stroke-linecap="round" stroke-linejoin="round"/>
<path d="M2.25 1.50021L3 2.25021" stroke="black" stroke-linecap="round" stroke-linejoin="round"/>
<path d="M15.75 11.9995L15 11.2495" stroke="black" stroke-linecap="round" stroke-linejoin="round"/>
<path d="M2.25 11.9995L3 11.2495" stroke="black" stroke-linecap="round" stroke-linejoin="round"/>
<path d="M6.75 13.5H11.25" stroke="black" stroke-linecap="round" stroke-linejoin="round"/>
<path d="M7.5022 15.75H10.5022" stroke="black" stroke-linecap="round" stroke-linejoin="round"/>
<path d="M9.00013 2.24985C6.00002 2.24985 4.46414 3.71256 4.50013 5.99985C4.51768 7.11501 4.87502 7.87485 5.62513 8.62485C6.37524 9.37485 6.75024 9.74985 6.75013 11.2498H11.2501C11.2502 9.74991 11.6252 9.37488 12.375 8.62493L12.3751 8.62485C13.125 7.87485 13.4826 7.11501 13.5001 5.99985C13.5361 3.71256 12.0002 2.24985 9.00013 2.24985Z" stroke="black" stroke-linecap="round" stroke-linejoin="round"/>
</svg>
