<svg width="110" height="31" viewBox="0 0 110 31" fill="none" xmlns="http://www.w3.org/2000/svg">
<g style="mix-blend-mode:luminosity" opacity="0.5">
<path fill-rule="evenodd" clip-rule="evenodd" d="M20.1221 4.21843C19.8488 4.1614 19.567 4.1614 19.2937 4.21843C18.9778 4.28433 18.6955 4.44477 18.471 4.57232L18.4098 4.607L10.8029 8.8948C10.7818 8.90666 10.7601 8.91875 10.7379 8.93123C10.5003 9.06398 10.2016 9.23092 9.97213 9.48349C9.77381 9.70189 9.62374 9.96074 9.53189 10.2427C9.42566 10.5688 9.42692 10.9148 9.42794 11.1901C9.42802 11.2158 9.4281 11.2409 9.4281 11.2653V19.7313C9.4281 19.7557 9.42802 19.7808 9.42794 19.8066C9.42692 20.0818 9.42566 20.4278 9.53189 20.7539C9.62374 21.0359 9.77381 21.2947 9.97213 21.5131C10.2016 21.7657 10.5004 21.9327 10.7379 22.0655C10.7601 22.0779 10.7818 22.0899 10.8029 22.1018L18.4098 26.3897L18.471 26.4243C18.6955 26.5519 18.9778 26.7123 19.2937 26.7782C19.567 26.8352 19.8488 26.8352 20.1221 26.7782C20.4379 26.7123 20.7202 26.5519 20.9447 26.4243L21.0058 26.3897L28.6129 22.1018C28.6222 22.0966 28.6316 22.0913 28.6412 22.0859C28.6532 22.0792 28.6654 22.0724 28.6778 22.0655C28.9154 21.9327 29.2141 21.7657 29.4435 21.5131C29.6419 21.2947 29.792 21.0359 29.8839 20.7539C29.9901 20.4278 29.9888 20.0818 29.9878 19.8066C29.9877 19.7808 29.9876 19.7557 29.9876 19.7313V11.2653C29.9876 11.2409 29.9877 11.2158 29.9878 11.1901C29.9888 10.9148 29.9901 10.5688 29.8839 10.2427C29.792 9.96074 29.6419 9.70189 29.4435 9.48349C29.2141 9.23092 28.9154 9.06398 28.6778 8.93123L28.6769 8.93068C28.6551 8.91844 28.6336 8.9065 28.6129 8.8948L21.0058 4.607L20.9447 4.57232C20.7202 4.44477 20.4379 4.28433 20.1221 4.21843ZM19.4083 6.43046C19.5641 6.34266 19.6436 6.29829 19.703 6.26926L19.7078 6.26687L19.7128 6.26926C19.7721 6.29829 19.8516 6.34266 20.0074 6.43046L26.8429 10.2834L19.7078 14.3052L12.5728 10.2834L19.4083 6.43046ZM11.4841 12.0559L18.6799 16.112V24.1556L11.8013 20.2784C11.6369 20.1857 11.5529 20.1379 11.494 20.0997L11.489 20.0966L11.4886 20.0906C11.4845 20.0198 11.4841 19.9222 11.4841 19.7313V12.0559Z" fill="black"/>
<path d="M39.3438 18.9833H42.6161V20.9398H36.8457V10.5349H39.3438V18.9833Z" fill="black"/>
<path d="M44.9178 11.8099C44.4796 11.8099 44.1192 11.6815 43.8368 11.4246C43.5641 11.1577 43.4277 10.8317 43.4277 10.4463C43.4277 10.051 43.5641 9.72499 43.8368 9.46808C44.1192 9.20125 44.4796 9.06787 44.9178 9.06787C45.3464 9.06787 45.697 9.20125 45.9697 9.46808C46.2521 9.72499 46.3933 10.051 46.3933 10.4463C46.3933 10.8317 46.2521 11.1577 45.9697 11.4246C45.697 11.6815 45.3464 11.8099 44.9178 11.8099ZM46.1596 12.6696V20.9402H43.6615V12.6696H46.1596Z" fill="black"/>
<path d="M50.9199 12.5515C51.4945 12.5515 51.9961 12.67 52.4246 12.9072C52.8629 13.1443 53.1988 13.4556 53.4326 13.8409V12.67H55.9306V20.9258C55.9306 21.6866 55.7797 22.3734 55.4778 22.9861C55.1856 23.6085 54.7327 24.1026 54.1191 24.4682C53.5153 24.8338 52.7606 25.0166 51.8549 25.0166C50.6471 25.0166 49.6684 24.7252 48.9185 24.1421C48.1686 23.569 47.7401 22.7884 47.6329 21.8003H50.1018C50.1797 22.1165 50.3648 22.3635 50.6569 22.5414C50.9491 22.7291 51.3094 22.823 51.738 22.823C52.2542 22.823 52.6632 22.6699 52.9651 22.3635C53.2768 22.0671 53.4326 21.5878 53.4326 20.9258V19.7548C53.1891 20.1403 52.8531 20.4565 52.4246 20.7034C51.9961 20.9406 51.4945 21.0592 50.9199 21.0592C50.2478 21.0592 49.6392 20.8863 49.0938 20.5404C48.5484 20.1847 48.115 19.6857 47.7936 19.0434C47.482 18.3912 47.3262 17.6403 47.3262 16.7905C47.3262 15.9407 47.482 15.1947 47.7936 14.5523C48.115 13.9101 48.5484 13.416 49.0938 13.0702C49.6392 12.7244 50.2478 12.5515 50.9199 12.5515ZM53.4326 16.8053C53.4326 16.1729 53.2573 15.6739 52.9066 15.3083C52.5658 14.9427 52.147 14.7599 51.6503 14.7599C51.1536 14.7599 50.73 14.9427 50.3794 15.3083C50.0385 15.664 49.868 16.1581 49.868 16.7905C49.868 17.4229 50.0385 17.9269 50.3794 18.3023C50.73 18.6679 51.1536 18.8507 51.6503 18.8507C52.147 18.8507 52.5658 18.6679 52.9066 18.3023C53.2573 17.9367 53.4326 17.4377 53.4326 16.8053Z" fill="black"/>
<path d="M62.6046 12.5805C63.5395 12.5805 64.2894 12.8967 64.8543 13.5291C65.4191 14.1517 65.7016 15.0113 65.7016 16.1082V20.9401H63.2181V16.449C63.2181 15.8957 63.0769 15.4659 62.7945 15.1596C62.512 14.8532 62.1322 14.7001 61.655 14.7001C61.1778 14.7001 60.798 14.8532 60.5155 15.1596C60.2331 15.4659 60.0919 15.8957 60.0919 16.449V20.9401H57.5938V9.97189H60.0919V13.7811C60.3451 13.4155 60.6908 13.1241 61.1291 12.9067C61.5673 12.6893 62.0592 12.5805 62.6046 12.5805Z" fill="black"/>
<path d="M71.8336 18.7911V20.9402H70.5627C69.6569 20.9402 68.9509 20.7179 68.4444 20.2732C67.938 19.8187 67.6848 19.0825 67.6848 18.0648V14.7743H66.6914V12.6696H67.6848V10.6539H70.1829V12.6696H71.8191V14.7743H70.1829V18.0944C70.1829 18.3415 70.2413 18.5193 70.3582 18.628C70.475 18.7367 70.6698 18.7911 70.9425 18.7911H71.8336Z" fill="black"/>
<path d="M75.5762 13.8404C75.8099 13.4551 76.1459 13.1438 76.5842 12.9067C77.0224 12.6695 77.524 12.5509 78.0889 12.5509C78.7607 12.5509 79.3697 12.7238 79.9149 13.0696C80.4602 13.4155 80.8892 13.9096 81.2004 14.5518C81.5217 15.1942 81.6828 15.9402 81.6828 16.79C81.6828 17.6397 81.5217 18.3907 81.2004 19.0429C80.8892 19.6852 80.4602 20.1841 79.9149 20.5399C79.3697 20.8858 78.7607 21.0587 78.0889 21.0587C77.5143 21.0587 77.0127 20.945 76.5842 20.7177C76.1557 20.4806 75.8196 20.1693 75.5762 19.784V20.9401H73.0781V9.97189H75.5762V13.8404ZM79.141 16.79C79.141 16.1576 78.965 15.6635 78.6146 15.3078C78.2739 14.9422 77.8502 14.7594 77.3438 14.7594C76.8471 14.7594 76.4235 14.9422 76.0729 15.3078C75.732 15.6734 75.5616 16.1724 75.5616 16.8048C75.5616 17.4372 75.732 17.9362 76.0729 18.3018C76.4235 18.6674 76.8471 18.8502 77.3438 18.8502C77.8405 18.8502 78.2642 18.6674 78.6146 18.3018C78.965 17.9263 79.141 17.4224 79.141 16.79Z" fill="black"/>
<path d="M86.5583 21.0592C85.76 21.0592 85.0395 20.8863 84.3968 20.5404C83.7635 20.1946 83.2622 19.7005 82.8921 19.0582C82.5315 18.416 82.3516 17.665 82.3516 16.8053C82.3516 15.9555 82.5362 15.2095 82.9063 14.5672C83.2763 13.9151 83.7831 13.416 84.4259 13.0702C85.0686 12.7244 85.7891 12.5515 86.5881 12.5515C87.3864 12.5515 88.1069 12.7244 88.7496 13.0702C89.3924 13.416 89.8991 13.9151 90.2692 14.5672C90.6393 15.2095 90.8239 15.9555 90.8239 16.8053C90.8239 17.6551 90.6346 18.406 90.2543 19.0582C89.8842 19.7005 89.3735 20.1946 88.7206 20.5404C88.0779 20.8863 87.3574 21.0592 86.5583 21.0592ZM86.5583 18.8655C87.036 18.8655 87.4399 18.6877 87.7714 18.3319C88.1116 17.9762 88.2821 17.4674 88.2821 16.8053C88.2821 16.1433 88.1171 15.6344 87.7856 15.2787C87.4642 14.923 87.0651 14.7451 86.5881 14.7451C86.101 14.7451 85.6964 14.923 85.375 15.2787C85.0536 15.6245 84.8933 16.1333 84.8933 16.8053C84.8933 17.4674 85.0489 17.9762 85.3608 18.3319C85.6822 18.6877 86.0814 18.8655 86.5583 18.8655Z" fill="black"/>
<path d="M96.8239 20.941L95.2603 18.6436L93.9458 20.941H91.243L93.9317 16.7168L91.1699 12.6704H93.9749L95.5385 14.9529L96.853 12.6704H99.5558L96.8239 16.8353L99.6289 20.941H96.8239Z" fill="black"/>
</g>
</svg>
